<?xml version="1.0" encoding="utf-8" standalone="no"?>
<!DOCTYPE svg PUBLIC "-//W3C//DTD SVG 1.1//EN"
  "http://www.w3.org/Graphics/SVG/1.1/DTD/svg11.dtd">
<svg xmlns:xlink="http://www.w3.org/1999/xlink" width="460.8pt" height="345.6pt" viewBox="0 0 460.8 345.6" xmlns="http://www.w3.org/2000/svg" version="1.1">
 <metadata>
  <rdf:RDF xmlns:dc="http://purl.org/dc/elements/1.1/" xmlns:cc="http://creativecommons.org/ns#" xmlns:rdf="http://www.w3.org/1999/02/22-rdf-syntax-ns#">
   <cc:Work>
    <dc:type rdf:resource="http://purl.org/dc/dcmitype/StillImage"/>
    <dc:date>2025-03-18T18:24:48.148958</dc:date>
    <dc:format>image/svg+xml</dc:format>
    <dc:creator>
     <cc:Agent>
      <dc:title>Matplotlib v3.8.4, https://matplotlib.org/</dc:title>
     </cc:Agent>
    </dc:creator>
   </cc:Work>
  </rdf:RDF>
 </metadata>
 <defs>
  <style type="text/css">*{stroke-linejoin: round; stroke-linecap: butt}</style>
 </defs>
 <g id="figure_1">
  <g id="patch_1">
   <path d="M 0 345.6 
L 460.8 345.6 
L 460.8 0 
L 0 0 
z
" style="fill: #ffffff"/>
  </g>
  <g id="axes_1">
   <g id="patch_2">
    <path d="M 24.1625 70.064059 
L 450 70.064059 
L 450 25.918125 
L 24.1625 25.918125 
z
" style="fill: #ffffff"/>
   </g>
   <g id="matplotlib.axis_1">
    <g id="xtick_1">
     <g id="line2d_1">
      <defs>
       <path id="m86d64828e0" d="M 0 0 
L 0 3.5 
" style="stroke: #000000; stroke-width: 0.8"/>
      </defs>
      <g>
       <use xlink:href="#m86d64828e0" x="59.648958" y="70.064059" style="stroke: #000000; stroke-width: 0.8"/>
      </g>
     </g>
    </g>
    <g id="xtick_2">
     <g id="line2d_2">
      <g>
       <use xlink:href="#m86d64828e0" x="130.621875" y="70.064059" style="stroke: #000000; stroke-width: 0.8"/>
      </g>
     </g>
    </g>
    <g id="xtick_3">
     <g id="line2d_3">
      <g>
       <use xlink:href="#m86d64828e0" x="201.594792" y="70.064059" style="stroke: #000000; stroke-width: 0.8"/>
      </g>
     </g>
    </g>
    <g id="xtick_4">
     <g id="line2d_4">
      <g>
       <use xlink:href="#m86d64828e0" x="272.567708" y="70.064059" style="stroke: #000000; stroke-width: 0.8"/>
      </g>
     </g>
    </g>
    <g id="xtick_5">
     <g id="line2d_5">
      <g>
       <use xlink:href="#m86d64828e0" x="343.540625" y="70.064059" style="stroke: #000000; stroke-width: 0.8"/>
      </g>
     </g>
    </g>
    <g id="xtick_6">
     <g id="line2d_6">
      <g>
       <use xlink:href="#m86d64828e0" x="414.513542" y="70.064059" style="stroke: #000000; stroke-width: 0.8"/>
      </g>
     </g>
    </g>
   </g>
   <g id="matplotlib.axis_2">
    <g id="ytick_1">
     <g id="line2d_7">
      <defs>
       <path id="m7c265386b5" d="M 0 0 
L -3.5 0 
" style="stroke: #000000; stroke-width: 0.8"/>
      </defs>
      <g>
       <use xlink:href="#m7c265386b5" x="24.1625" y="66.385231" style="stroke: #000000; stroke-width: 0.8"/>
      </g>
     </g>
     <g id="text_1">
      <!-- 0 -->
      <g transform="translate(10.8 70.18445) scale(0.1 -0.1)">
       <defs>
        <path id="DejaVuSans-30" d="M 2034 4250 
Q 1547 4250 1301 3770 
Q 1056 3291 1056 2328 
Q 1056 1369 1301 889 
Q 1547 409 2034 409 
Q 2525 409 2770 889 
Q 3016 1369 3016 2328 
Q 3016 3291 2770 3770 
Q 2525 4250 2034 4250 
z
M 2034 4750 
Q 2819 4750 3233 4129 
Q 3647 3509 3647 2328 
Q 3647 1150 3233 529 
Q 2819 -91 2034 -91 
Q 1250 -91 836 529 
Q 422 1150 422 2328 
Q 422 3509 836 4129 
Q 1250 4750 2034 4750 
z
" transform="scale(0.015625)"/>
       </defs>
       <use xlink:href="#DejaVuSans-30"/>
      </g>
     </g>
    </g>
    <g id="ytick_2">
     <g id="line2d_8">
      <g>
       <use xlink:href="#m7c265386b5" x="24.1625" y="29.596953" style="stroke: #000000; stroke-width: 0.8"/>
      </g>
     </g>
     <g id="text_2">
      <!-- 1 -->
      <g transform="translate(10.8 33.396172) scale(0.1 -0.1)">
       <defs>
        <path id="DejaVuSans-31" d="M 794 531 
L 1825 531 
L 1825 4091 
L 703 3866 
L 703 4441 
L 1819 4666 
L 2450 4666 
L 2450 531 
L 3481 531 
L 3481 0 
L 794 0 
L 794 531 
z
" transform="scale(0.015625)"/>
       </defs>
       <use xlink:href="#DejaVuSans-31"/>
      </g>
     </g>
    </g>
   </g>
   <g id="line2d_9">
    <path d="M 59.648958 66.385231 
L 63.197604 66.385231 
L 66.74625 66.385231 
L 70.294896 66.385231 
L 73.843542 66.385231 
L 77.392187 66.385231 
L 80.940833 66.385231 
L 84.489479 66.385231 
L 88.038125 66.385231 
L 91.586771 66.385231 
L 95.135417 66.385231 
L 98.684062 66.385231 
L 102.232708 66.385231 
L 105.781354 66.385231 
L 109.33 66.385231 
L 112.878646 66.385231 
L 116.427292 66.385231 
L 119.975937 66.385231 
L 123.524583 66.385231 
L 127.073229 66.385231 
L 130.621875 66.385231 
L 134.170521 66.385231 
L 137.719167 66.385231 
L 141.267812 66.385231 
L 144.816458 66.385231 
L 148.365104 66.385231 
L 151.91375 66.385231 
L 155.462396 66.385231 
L 159.011042 66.385231 
L 162.559687 66.385231 
L 166.108333 66.385231 
L 169.656979 66.385231 
L 173.205625 66.385231 
L 176.754271 66.385231 
L 180.302917 66.385231 
L 183.851562 66.385231 
L 187.400208 66.385231 
L 190.948854 66.385231 
L 194.4975 66.385231 
L 198.046146 66.385231 
L 201.594792 66.385231 
L 205.143437 66.385231 
L 208.692083 66.385231 
L 212.240729 66.385231 
L 215.789375 66.385231 
L 219.338021 66.385231 
L 222.886667 66.385231 
L 226.435312 66.385231 
L 229.983958 66.385231 
L 233.532604 66.385231 
L 237.08125 66.385231 
L 240.629896 66.385231 
L 244.178542 66.385231 
L 247.727187 66.385231 
L 251.275833 66.385231 
L 254.824479 66.385231 
L 258.373125 66.385231 
L 261.921771 66.385231 
L 265.470417 66.385231 
L 269.019062 66.385231 
L 272.567708 66.385231 
L 276.116354 66.385231 
L 279.665 66.385231 
L 283.213646 66.385231 
L 286.762292 66.385231 
L 290.310937 66.385231 
L 293.859583 66.385231 
L 297.408229 66.385231 
L 300.956875 66.385231 
L 304.505521 66.385231 
L 308.054167 66.385231 
L 311.602812 66.385231 
L 315.151458 66.385231 
L 318.700104 66.385231 
L 322.24875 66.385231 
L 325.797396 66.385231 
L 329.346042 66.385231 
L 332.894687 66.385231 
L 336.443333 66.385231 
L 339.991979 66.385231 
L 343.540625 66.385231 
L 347.089271 66.385231 
L 350.637917 66.385231 
L 354.186562 66.385231 
L 357.735208 66.385231 
L 361.283854 66.385231 
L 364.8325 66.385231 
L 368.381146 66.385231 
L 371.929792 66.385231 
L 375.478437 66.385231 
L 379.027083 66.385231 
L 382.575729 66.385231 
L 386.124375 66.385231 
L 389.673021 66.385231 
L 393.221667 66.385231 
L 396.770312 66.385231 
L 400.318958 66.385231 
L 403.867604 66.385231 
L 407.41625 66.385231 
L 410.964896 66.385231 
L 414.513542 66.385231 
" clip-path="url(#p89cb0a0130)" style="fill: none; stroke: #1f77b4; stroke-width: 1.5; stroke-linecap: square"/>
   </g>
   <g id="patch_3">
    <path d="M 24.1625 70.064059 
L 24.1625 25.918125 
" style="fill: none; stroke: #000000; stroke-width: 0.8; stroke-linejoin: miter; stroke-linecap: square"/>
   </g>
   <g id="patch_4">
    <path d="M 450 70.064059 
L 450 25.918125 
" style="fill: none; stroke: #000000; stroke-width: 0.8; stroke-linejoin: miter; stroke-linecap: square"/>
   </g>
   <g id="patch_5">
    <path d="M 24.1625 70.064059 
L 450 70.064059 
" style="fill: none; stroke: #000000; stroke-width: 0.8; stroke-linejoin: miter; stroke-linecap: square"/>
   </g>
   <g id="patch_6">
    <path d="M 24.1625 25.918125 
L 450 25.918125 
" style="fill: none; stroke: #000000; stroke-width: 0.8; stroke-linejoin: miter; stroke-linecap: square"/>
   </g>
   <g id="text_3">
    <!-- heat -->
    <g transform="translate(223.557812 19.918125) scale(0.12 -0.12)">
     <defs>
      <path id="DejaVuSans-68" d="M 3513 2113 
L 3513 0 
L 2938 0 
L 2938 2094 
Q 2938 2591 2744 2837 
Q 2550 3084 2163 3084 
Q 1697 3084 1428 2787 
Q 1159 2491 1159 1978 
L 1159 0 
L 581 0 
L 581 4863 
L 1159 4863 
L 1159 2956 
Q 1366 3272 1645 3428 
Q 1925 3584 2291 3584 
Q 2894 3584 3203 3211 
Q 3513 2838 3513 2113 
z
" transform="scale(0.015625)"/>
      <path id="DejaVuSans-65" d="M 3597 1894 
L 3597 1613 
L 953 1613 
Q 991 1019 1311 708 
Q 1631 397 2203 397 
Q 2534 397 2845 478 
Q 3156 559 3463 722 
L 3463 178 
Q 3153 47 2828 -22 
Q 2503 -91 2169 -91 
Q 1331 -91 842 396 
Q 353 884 353 1716 
Q 353 2575 817 3079 
Q 1281 3584 2069 3584 
Q 2775 3584 3186 3129 
Q 3597 2675 3597 1894 
z
M 3022 2063 
Q 3016 2534 2758 2815 
Q 2500 3097 2075 3097 
Q 1594 3097 1305 2825 
Q 1016 2553 972 2059 
L 3022 2063 
z
" transform="scale(0.015625)"/>
      <path id="DejaVuSans-61" d="M 2194 1759 
Q 1497 1759 1228 1600 
Q 959 1441 959 1056 
Q 959 750 1161 570 
Q 1363 391 1709 391 
Q 2188 391 2477 730 
Q 2766 1069 2766 1631 
L 2766 1759 
L 2194 1759 
z
M 3341 1997 
L 3341 0 
L 2766 0 
L 2766 531 
Q 2569 213 2275 61 
Q 1981 -91 1556 -91 
Q 1019 -91 701 211 
Q 384 513 384 1019 
Q 384 1609 779 1909 
Q 1175 2209 1959 2209 
L 2766 2209 
L 2766 2266 
Q 2766 2663 2505 2880 
Q 2244 3097 1772 3097 
Q 1472 3097 1187 3025 
Q 903 2953 641 2809 
L 641 3341 
Q 956 3463 1253 3523 
Q 1550 3584 1831 3584 
Q 2591 3584 2966 3190 
Q 3341 2797 3341 1997 
z
" transform="scale(0.015625)"/>
      <path id="DejaVuSans-74" d="M 1172 4494 
L 1172 3500 
L 2356 3500 
L 2356 3053 
L 1172 3053 
L 1172 1153 
Q 1172 725 1289 603 
Q 1406 481 1766 481 
L 2356 481 
L 2356 0 
L 1766 0 
Q 1100 0 847 248 
Q 594 497 594 1153 
L 594 3053 
L 172 3053 
L 172 3500 
L 594 3500 
L 594 4494 
L 1172 4494 
z
" transform="scale(0.015625)"/>
     </defs>
     <use xlink:href="#DejaVuSans-68"/>
     <use xlink:href="#DejaVuSans-65" x="63.378906"/>
     <use xlink:href="#DejaVuSans-61" x="124.902344"/>
     <use xlink:href="#DejaVuSans-74" x="186.181641"/>
    </g>
   </g>
   <g id="legend_1">
    <g id="patch_7">
     <path d="M 376.434375 48.59625 
L 443 48.59625 
Q 445 48.59625 445 46.59625 
L 445 32.918125 
Q 445 30.918125 443 30.918125 
L 376.434375 30.918125 
Q 374.434375 30.918125 374.434375 32.918125 
L 374.434375 46.59625 
Q 374.434375 48.59625 376.434375 48.59625 
z
" style="fill: #ffffff; opacity: 0.8; stroke: #cccccc; stroke-linejoin: miter"/>
    </g>
    <g id="line2d_10">
     <path d="M 378.434375 39.016563 
L 388.434375 39.016563 
L 398.434375 39.016563 
" style="fill: none; stroke: #1f77b4; stroke-width: 1.5; stroke-linecap: square"/>
    </g>
    <g id="text_4">
     <!-- t=0.00 -->
     <g transform="translate(406.434375 42.516563) scale(0.1 -0.1)">
      <defs>
       <path id="DejaVuSans-3d" d="M 678 2906 
L 4684 2906 
L 4684 2381 
L 678 2381 
L 678 2906 
z
M 678 1631 
L 4684 1631 
L 4684 1100 
L 678 1100 
L 678 1631 
z
" transform="scale(0.015625)"/>
       <path id="DejaVuSans-2e" d="M 684 794 
L 1344 794 
L 1344 0 
L 684 0 
L 684 794 
z
" transform="scale(0.015625)"/>
      </defs>
      <use xlink:href="#DejaVuSans-74"/>
      <use xlink:href="#DejaVuSans-3d" x="39.208984"/>
      <use xlink:href="#DejaVuSans-30" x="122.998047"/>
      <use xlink:href="#DejaVuSans-2e" x="186.621094"/>
      <use xlink:href="#DejaVuSans-30" x="218.408203"/>
      <use xlink:href="#DejaVuSans-30" x="282.03125"/>
     </g>
    </g>
   </g>
  </g>
  <g id="axes_2">
   <g id="patch_8">
    <path d="M 24.1625 128.658982 
L 450 128.658982 
L 450 84.513048 
L 24.1625 84.513048 
z
" style="fill: #ffffff"/>
   </g>
   <g id="matplotlib.axis_3">
    <g id="xtick_7">
     <g id="line2d_11">
      <g>
       <use xlink:href="#m86d64828e0" x="59.648958" y="128.658982" style="stroke: #000000; stroke-width: 0.8"/>
      </g>
     </g>
    </g>
    <g id="xtick_8">
     <g id="line2d_12">
      <g>
       <use xlink:href="#m86d64828e0" x="130.621875" y="128.658982" style="stroke: #000000; stroke-width: 0.8"/>
      </g>
     </g>
    </g>
    <g id="xtick_9">
     <g id="line2d_13">
      <g>
       <use xlink:href="#m86d64828e0" x="201.594792" y="128.658982" style="stroke: #000000; stroke-width: 0.8"/>
      </g>
     </g>
    </g>
    <g id="xtick_10">
     <g id="line2d_14">
      <g>
       <use xlink:href="#m86d64828e0" x="272.567708" y="128.658982" style="stroke: #000000; stroke-width: 0.8"/>
      </g>
     </g>
    </g>
    <g id="xtick_11">
     <g id="line2d_15">
      <g>
       <use xlink:href="#m86d64828e0" x="343.540625" y="128.658982" style="stroke: #000000; stroke-width: 0.8"/>
      </g>
     </g>
    </g>
    <g id="xtick_12">
     <g id="line2d_16">
      <g>
       <use xlink:href="#m86d64828e0" x="414.513542" y="128.658982" style="stroke: #000000; stroke-width: 0.8"/>
      </g>
     </g>
    </g>
   </g>
   <g id="matplotlib.axis_4">
    <g id="ytick_3">
     <g id="line2d_17">
      <g>
       <use xlink:href="#m7c265386b5" x="24.1625" y="124.980154" style="stroke: #000000; stroke-width: 0.8"/>
      </g>
     </g>
     <g id="text_5">
      <!-- 0 -->
      <g transform="translate(10.8 128.779373) scale(0.1 -0.1)">
       <use xlink:href="#DejaVuSans-30"/>
      </g>
     </g>
    </g>
    <g id="ytick_4">
     <g id="line2d_18">
      <g>
       <use xlink:href="#m7c265386b5" x="24.1625" y="88.191876" style="stroke: #000000; stroke-width: 0.8"/>
      </g>
     </g>
     <g id="text_6">
      <!-- 1 -->
      <g transform="translate(10.8 91.991094) scale(0.1 -0.1)">
       <use xlink:href="#DejaVuSans-31"/>
      </g>
     </g>
    </g>
   </g>
   <g id="line2d_19">
    <path d="M 59.648958 115.783084 
L 63.197604 115.783084 
L 66.74625 115.783084 
L 70.294896 115.783084 
L 73.843542 115.783084 
L 77.392187 115.783084 
L 80.940833 115.783084 
L 84.489479 115.783084 
L 88.038125 115.783084 
L 91.586771 115.783084 
L 95.135417 115.783084 
L 98.684062 115.783084 
L 102.232708 115.783084 
L 105.781354 115.783084 
L 109.33 115.783084 
L 112.878646 115.783084 
L 116.427292 115.783084 
L 119.975937 115.783084 
L 123.524583 115.783084 
L 127.073229 115.783084 
L 130.621875 115.783084 
L 134.170521 115.783084 
L 137.719167 115.783084 
L 141.267812 115.783084 
L 144.816458 115.783084 
L 148.365104 115.783084 
L 151.91375 115.783084 
L 155.462396 115.783084 
L 159.011042 115.783084 
L 162.559687 115.783084 
L 166.108333 115.783084 
L 169.656979 115.783084 
L 173.205625 115.783084 
L 176.754271 115.783084 
L 180.302917 115.783084 
L 183.851562 115.783084 
L 187.400208 115.783084 
L 190.948854 115.783084 
L 194.4975 115.783084 
L 198.046146 115.783084 
L 201.594792 115.783084 
L 205.143437 115.783084 
L 208.692083 115.783084 
L 212.240729 115.783084 
L 215.789375 115.783084 
L 219.338021 115.783084 
L 222.886667 115.783084 
L 226.435312 115.783084 
L 229.983958 115.783084 
L 233.532604 115.783084 
L 237.08125 115.783084 
L 240.629896 115.783084 
L 244.178542 115.783084 
L 247.727187 115.783084 
L 251.275833 115.783084 
L 254.824479 115.783084 
L 258.373125 115.783084 
L 261.921771 115.783084 
L 265.470417 115.783084 
L 269.019062 115.783084 
L 272.567708 115.783084 
L 276.116354 115.783084 
L 279.665 115.783084 
L 283.213646 115.783084 
L 286.762292 115.783084 
L 290.310937 115.783084 
L 293.859583 115.783084 
L 297.408229 115.783084 
L 300.956875 115.783084 
L 304.505521 115.783084 
L 308.054167 115.783084 
L 311.602812 115.783084 
L 315.151458 115.783084 
L 318.700104 115.783084 
L 322.24875 115.783084 
L 325.797396 115.783084 
L 329.346042 115.783084 
L 332.894687 115.783084 
L 336.443333 115.783084 
L 339.991979 115.783084 
L 343.540625 115.783084 
L 347.089271 115.783084 
L 350.637917 115.783084 
L 354.186562 115.783084 
L 357.735208 115.783084 
L 361.283854 115.783084 
L 364.8325 115.783084 
L 368.381146 115.783084 
L 371.929792 115.783084 
L 375.478437 115.783084 
L 379.027083 115.783084 
L 382.575729 115.783084 
L 386.124375 115.783084 
L 389.673021 115.783084 
L 393.221667 115.783084 
L 396.770312 115.783084 
L 400.318958 115.783084 
L 403.867604 115.783084 
L 407.41625 115.783084 
L 410.964896 115.783084 
L 414.513542 115.783084 
" clip-path="url(#p8348726e1c)" style="fill: none; stroke: #1f77b4; stroke-width: 1.5; stroke-linecap: square"/>
   </g>
   <g id="patch_9">
    <path d="M 24.1625 128.658982 
L 24.1625 84.513048 
" style="fill: none; stroke: #000000; stroke-width: 0.8; stroke-linejoin: miter; stroke-linecap: square"/>
   </g>
   <g id="patch_10">
    <path d="M 450 128.658982 
L 450 84.513048 
" style="fill: none; stroke: #000000; stroke-width: 0.8; stroke-linejoin: miter; stroke-linecap: square"/>
   </g>
   <g id="patch_11">
    <path d="M 24.1625 128.658982 
L 450 128.658982 
" style="fill: none; stroke: #000000; stroke-width: 0.8; stroke-linejoin: miter; stroke-linecap: square"/>
   </g>
   <g id="patch_12">
    <path d="M 24.1625 84.513048 
L 450 84.513048 
" style="fill: none; stroke: #000000; stroke-width: 0.8; stroke-linejoin: miter; stroke-linecap: square"/>
   </g>
   <g id="legend_2">
    <g id="patch_13">
     <path d="M 376.434375 107.191173 
L 443 107.191173 
Q 445 107.191173 445 105.191173 
L 445 91.513048 
Q 445 89.513048 443 89.513048 
L 376.434375 89.513048 
Q 374.434375 89.513048 374.434375 91.513048 
L 374.434375 105.191173 
Q 374.434375 107.191173 376.434375 107.191173 
z
" style="fill: #ffffff; opacity: 0.8; stroke: #cccccc; stroke-linejoin: miter"/>
    </g>
    <g id="line2d_20">
     <path d="M 378.434375 97.611485 
L 388.434375 97.611485 
L 398.434375 97.611485 
" style="fill: none; stroke: #1f77b4; stroke-width: 1.5; stroke-linecap: square"/>
    </g>
    <g id="text_7">
     <!-- t=0.25 -->
     <g transform="translate(406.434375 101.111485) scale(0.1 -0.1)">
      <defs>
       <path id="DejaVuSans-32" d="M 1228 531 
L 3431 531 
L 3431 0 
L 469 0 
L 469 531 
Q 828 903 1448 1529 
Q 2069 2156 2228 2338 
Q 2531 2678 2651 2914 
Q 2772 3150 2772 3378 
Q 2772 3750 2511 3984 
Q 2250 4219 1831 4219 
Q 1534 4219 1204 4116 
Q 875 4013 500 3803 
L 500 4441 
Q 881 4594 1212 4672 
Q 1544 4750 1819 4750 
Q 2544 4750 2975 4387 
Q 3406 4025 3406 3419 
Q 3406 3131 3298 2873 
Q 3191 2616 2906 2266 
Q 2828 2175 2409 1742 
Q 1991 1309 1228 531 
z
" transform="scale(0.015625)"/>
       <path id="DejaVuSans-35" d="M 691 4666 
L 3169 4666 
L 3169 4134 
L 1269 4134 
L 1269 2991 
Q 1406 3038 1543 3061 
Q 1681 3084 1819 3084 
Q 2600 3084 3056 2656 
Q 3513 2228 3513 1497 
Q 3513 744 3044 326 
Q 2575 -91 1722 -91 
Q 1428 -91 1123 -41 
Q 819 9 494 109 
L 494 744 
Q 775 591 1075 516 
Q 1375 441 1709 441 
Q 2250 441 2565 725 
Q 2881 1009 2881 1497 
Q 2881 1984 2565 2268 
Q 2250 2553 1709 2553 
Q 1456 2553 1204 2497 
Q 953 2441 691 2322 
L 691 4666 
z
" transform="scale(0.015625)"/>
      </defs>
      <use xlink:href="#DejaVuSans-74"/>
      <use xlink:href="#DejaVuSans-3d" x="39.208984"/>
      <use xlink:href="#DejaVuSans-30" x="122.998047"/>
      <use xlink:href="#DejaVuSans-2e" x="186.621094"/>
      <use xlink:href="#DejaVuSans-32" x="218.408203"/>
      <use xlink:href="#DejaVuSans-35" x="282.03125"/>
     </g>
    </g>
   </g>
  </g>
  <g id="axes_3">
   <g id="patch_14">
    <path d="M 24.1625 187.253904 
L 450 187.253904 
L 450 143.107971 
L 24.1625 143.107971 
z
" style="fill: #ffffff"/>
   </g>
   <g id="matplotlib.axis_5">
    <g id="xtick_13">
     <g id="line2d_21">
      <g>
       <use xlink:href="#m86d64828e0" x="59.648958" y="187.253904" style="stroke: #000000; stroke-width: 0.8"/>
      </g>
     </g>
    </g>
    <g id="xtick_14">
     <g id="line2d_22">
      <g>
       <use xlink:href="#m86d64828e0" x="130.621875" y="187.253904" style="stroke: #000000; stroke-width: 0.8"/>
      </g>
     </g>
    </g>
    <g id="xtick_15">
     <g id="line2d_23">
      <g>
       <use xlink:href="#m86d64828e0" x="201.594792" y="187.253904" style="stroke: #000000; stroke-width: 0.8"/>
      </g>
     </g>
    </g>
    <g id="xtick_16">
     <g id="line2d_24">
      <g>
       <use xlink:href="#m86d64828e0" x="272.567708" y="187.253904" style="stroke: #000000; stroke-width: 0.8"/>
      </g>
     </g>
    </g>
    <g id="xtick_17">
     <g id="line2d_25">
      <g>
       <use xlink:href="#m86d64828e0" x="343.540625" y="187.253904" style="stroke: #000000; stroke-width: 0.8"/>
      </g>
     </g>
    </g>
    <g id="xtick_18">
     <g id="line2d_26">
      <g>
       <use xlink:href="#m86d64828e0" x="414.513542" y="187.253904" style="stroke: #000000; stroke-width: 0.8"/>
      </g>
     </g>
    </g>
   </g>
   <g id="matplotlib.axis_6">
    <g id="ytick_5">
     <g id="line2d_27">
      <g>
       <use xlink:href="#m7c265386b5" x="24.1625" y="183.575077" style="stroke: #000000; stroke-width: 0.8"/>
      </g>
     </g>
     <g id="text_8">
      <!-- 0 -->
      <g transform="translate(10.8 187.374295) scale(0.1 -0.1)">
       <use xlink:href="#DejaVuSans-30"/>
      </g>
     </g>
    </g>
    <g id="ytick_6">
     <g id="line2d_28">
      <g>
       <use xlink:href="#m7c265386b5" x="24.1625" y="146.786798" style="stroke: #000000; stroke-width: 0.8"/>
      </g>
     </g>
     <g id="text_9">
      <!-- 1 -->
      <g transform="translate(10.8 150.586017) scale(0.1 -0.1)">
       <use xlink:href="#DejaVuSans-31"/>
      </g>
     </g>
    </g>
   </g>
   <g id="line2d_29">
    <path d="M 59.648958 165.180937 
L 63.197604 165.180937 
L 66.74625 165.180937 
L 70.294896 165.180937 
L 73.843542 165.180937 
L 77.392187 165.180937 
L 80.940833 165.180937 
L 84.489479 165.180937 
L 88.038125 165.180937 
L 91.586771 165.180937 
L 95.135417 165.180937 
L 98.684062 165.180937 
L 102.232708 165.180937 
L 105.781354 165.180937 
L 109.33 165.180937 
L 112.878646 165.180937 
L 116.427292 165.180937 
L 119.975937 165.180937 
L 123.524583 165.180937 
L 127.073229 165.180937 
L 130.621875 165.180937 
L 134.170521 165.180937 
L 137.719167 165.180937 
L 141.267812 165.180937 
L 144.816458 165.180937 
L 148.365104 165.180937 
L 151.91375 165.180937 
L 155.462396 165.180937 
L 159.011042 165.180937 
L 162.559687 165.180937 
L 166.108333 165.180937 
L 169.656979 165.180937 
L 173.205625 165.180937 
L 176.754271 165.180937 
L 180.302917 165.180937 
L 183.851562 165.180937 
L 187.400208 165.180937 
L 190.948854 165.180937 
L 194.4975 165.180937 
L 198.046146 165.180937 
L 201.594792 165.180937 
L 205.143437 165.180937 
L 208.692083 165.180937 
L 212.240729 165.180937 
L 215.789375 165.180937 
L 219.338021 165.180937 
L 222.886667 165.180937 
L 226.435312 165.180937 
L 229.983958 165.180937 
L 233.532604 165.180937 
L 237.08125 165.180937 
L 240.629896 165.180937 
L 244.178542 165.180937 
L 247.727187 165.180937 
L 251.275833 165.180937 
L 254.824479 165.180937 
L 258.373125 165.180937 
L 261.921771 165.180937 
L 265.470417 165.180937 
L 269.019062 165.180937 
L 272.567708 165.180937 
L 276.116354 165.180937 
L 279.665 165.180937 
L 283.213646 165.180937 
L 286.762292 165.180937 
L 290.310937 165.180937 
L 293.859583 165.180937 
L 297.408229 165.180937 
L 300.956875 165.180937 
L 304.505521 165.180937 
L 308.054167 165.180937 
L 311.602812 165.180937 
L 315.151458 165.180937 
L 318.700104 165.180937 
L 322.24875 165.180937 
L 325.797396 165.180937 
L 329.346042 165.180937 
L 332.894687 165.180937 
L 336.443333 165.180937 
L 339.991979 165.180937 
L 343.540625 165.180937 
L 347.089271 165.180937 
L 350.637917 165.180937 
L 354.186562 165.180937 
L 357.735208 165.180937 
L 361.283854 165.180937 
L 364.8325 165.180937 
L 368.381146 165.180937 
L 371.929792 165.180937 
L 375.478437 165.180937 
L 379.027083 165.180937 
L 382.575729 165.180937 
L 386.124375 165.180937 
L 389.673021 165.180937 
L 393.221667 165.180937 
L 396.770312 165.180937 
L 400.318958 165.180937 
L 403.867604 165.180937 
L 407.41625 165.180937 
L 410.964896 165.180937 
L 414.513542 165.180937 
" clip-path="url(#p1672236389)" style="fill: none; stroke: #1f77b4; stroke-width: 1.5; stroke-linecap: square"/>
   </g>
   <g id="patch_15">
    <path d="M 24.1625 187.253904 
L 24.1625 143.107971 
" style="fill: none; stroke: #000000; stroke-width: 0.8; stroke-linejoin: miter; stroke-linecap: square"/>
   </g>
   <g id="patch_16">
    <path d="M 450 187.253904 
L 450 143.107971 
" style="fill: none; stroke: #000000; stroke-width: 0.8; stroke-linejoin: miter; stroke-linecap: square"/>
   </g>
   <g id="patch_17">
    <path d="M 24.1625 187.253904 
L 450 187.253904 
" style="fill: none; stroke: #000000; stroke-width: 0.8; stroke-linejoin: miter; stroke-linecap: square"/>
   </g>
   <g id="patch_18">
    <path d="M 24.1625 143.107971 
L 450 143.107971 
" style="fill: none; stroke: #000000; stroke-width: 0.8; stroke-linejoin: miter; stroke-linecap: square"/>
   </g>
   <g id="legend_3">
    <g id="patch_19">
     <path d="M 376.434375 165.786096 
L 443 165.786096 
Q 445 165.786096 445 163.786096 
L 445 150.107971 
Q 445 148.107971 443 148.107971 
L 376.434375 148.107971 
Q 374.434375 148.107971 374.434375 150.107971 
L 374.434375 163.786096 
Q 374.434375 165.786096 376.434375 165.786096 
z
" style="fill: #ffffff; opacity: 0.8; stroke: #cccccc; stroke-linejoin: miter"/>
    </g>
    <g id="line2d_30">
     <path d="M 378.434375 156.206408 
L 388.434375 156.206408 
L 398.434375 156.206408 
" style="fill: none; stroke: #1f77b4; stroke-width: 1.5; stroke-linecap: square"/>
    </g>
    <g id="text_10">
     <!-- t=0.50 -->
     <g transform="translate(406.434375 159.706408) scale(0.1 -0.1)">
      <use xlink:href="#DejaVuSans-74"/>
      <use xlink:href="#DejaVuSans-3d" x="39.208984"/>
      <use xlink:href="#DejaVuSans-30" x="122.998047"/>
      <use xlink:href="#DejaVuSans-2e" x="186.621094"/>
      <use xlink:href="#DejaVuSans-35" x="218.408203"/>
      <use xlink:href="#DejaVuSans-30" x="282.03125"/>
     </g>
    </g>
   </g>
  </g>
  <g id="axes_4">
   <g id="patch_20">
    <path d="M 24.1625 245.848827 
L 450 245.848827 
L 450 201.702893 
L 24.1625 201.702893 
z
" style="fill: #ffffff"/>
   </g>
   <g id="matplotlib.axis_7">
    <g id="xtick_19">
     <g id="line2d_31">
      <g>
       <use xlink:href="#m86d64828e0" x="59.648958" y="245.848827" style="stroke: #000000; stroke-width: 0.8"/>
      </g>
     </g>
    </g>
    <g id="xtick_20">
     <g id="line2d_32">
      <g>
       <use xlink:href="#m86d64828e0" x="130.621875" y="245.848827" style="stroke: #000000; stroke-width: 0.8"/>
      </g>
     </g>
    </g>
    <g id="xtick_21">
     <g id="line2d_33">
      <g>
       <use xlink:href="#m86d64828e0" x="201.594792" y="245.848827" style="stroke: #000000; stroke-width: 0.8"/>
      </g>
     </g>
    </g>
    <g id="xtick_22">
     <g id="line2d_34">
      <g>
       <use xlink:href="#m86d64828e0" x="272.567708" y="245.848827" style="stroke: #000000; stroke-width: 0.8"/>
      </g>
     </g>
    </g>
    <g id="xtick_23">
     <g id="line2d_35">
      <g>
       <use xlink:href="#m86d64828e0" x="343.540625" y="245.848827" style="stroke: #000000; stroke-width: 0.8"/>
      </g>
     </g>
    </g>
    <g id="xtick_24">
     <g id="line2d_36">
      <g>
       <use xlink:href="#m86d64828e0" x="414.513542" y="245.848827" style="stroke: #000000; stroke-width: 0.8"/>
      </g>
     </g>
    </g>
   </g>
   <g id="matplotlib.axis_8">
    <g id="ytick_7">
     <g id="line2d_37">
      <g>
       <use xlink:href="#m7c265386b5" x="24.1625" y="242.169999" style="stroke: #000000; stroke-width: 0.8"/>
      </g>
     </g>
     <g id="text_11">
      <!-- 0 -->
      <g transform="translate(10.8 245.969218) scale(0.1 -0.1)">
       <use xlink:href="#DejaVuSans-30"/>
      </g>
     </g>
    </g>
    <g id="ytick_8">
     <g id="line2d_38">
      <g>
       <use xlink:href="#m7c265386b5" x="24.1625" y="205.381721" style="stroke: #000000; stroke-width: 0.8"/>
      </g>
     </g>
     <g id="text_12">
      <!-- 1 -->
      <g transform="translate(10.8 209.18094) scale(0.1 -0.1)">
       <use xlink:href="#DejaVuSans-31"/>
      </g>
     </g>
    </g>
   </g>
   <g id="line2d_39">
    <path d="M 59.648958 214.578791 
L 63.197604 214.578791 
L 66.74625 214.578791 
L 70.294896 214.578791 
L 73.843542 214.578791 
L 77.392187 214.578791 
L 80.940833 214.578791 
L 84.489479 214.578791 
L 88.038125 214.578791 
L 91.586771 214.578791 
L 95.135417 214.578791 
L 98.684062 214.578791 
L 102.232708 214.578791 
L 105.781354 214.578791 
L 109.33 214.578791 
L 112.878646 214.578791 
L 116.427292 214.578791 
L 119.975937 214.578791 
L 123.524583 214.578791 
L 127.073229 214.578791 
L 130.621875 214.578791 
L 134.170521 214.578791 
L 137.719167 214.578791 
L 141.267812 214.578791 
L 144.816458 214.578791 
L 148.365104 214.578791 
L 151.91375 214.578791 
L 155.462396 214.578791 
L 159.011042 214.578791 
L 162.559687 214.578791 
L 166.108333 214.578791 
L 169.656979 214.578791 
L 173.205625 214.578791 
L 176.754271 214.578791 
L 180.302917 214.578791 
L 183.851562 214.578791 
L 187.400208 214.578791 
L 190.948854 214.578791 
L 194.4975 214.578791 
L 198.046146 214.578791 
L 201.594792 214.578791 
L 205.143437 214.578791 
L 208.692083 214.578791 
L 212.240729 214.578791 
L 215.789375 214.578791 
L 219.338021 214.578791 
L 222.886667 214.578791 
L 226.435312 214.578791 
L 229.983958 214.578791 
L 233.532604 214.578791 
L 237.08125 214.578791 
L 240.629896 214.578791 
L 244.178542 214.578791 
L 247.727187 214.578791 
L 251.275833 214.578791 
L 254.824479 214.578791 
L 258.373125 214.578791 
L 261.921771 214.578791 
L 265.470417 214.578791 
L 269.019062 214.578791 
L 272.567708 214.578791 
L 276.116354 214.578791 
L 279.665 214.578791 
L 283.213646 214.578791 
L 286.762292 214.578791 
L 290.310937 214.578791 
L 293.859583 214.578791 
L 297.408229 214.578791 
L 300.956875 214.578791 
L 304.505521 214.578791 
L 308.054167 214.578791 
L 311.602812 214.578791 
L 315.151458 214.578791 
L 318.700104 214.578791 
L 322.24875 214.578791 
L 325.797396 214.578791 
L 329.346042 214.578791 
L 332.894687 214.578791 
L 336.443333 214.578791 
L 339.991979 214.578791 
L 343.540625 214.578791 
L 347.089271 214.578791 
L 350.637917 214.578791 
L 354.186562 214.578791 
L 357.735208 214.578791 
L 361.283854 214.578791 
L 364.8325 214.578791 
L 368.381146 214.578791 
L 371.929792 214.578791 
L 375.478437 214.578791 
L 379.027083 214.578791 
L 382.575729 214.578791 
L 386.124375 214.578791 
L 389.673021 214.578791 
L 393.221667 214.578791 
L 396.770312 214.578791 
L 400.318958 214.578791 
L 403.867604 214.578791 
L 407.41625 214.578791 
L 410.964896 214.578791 
L 414.513542 214.578791 
" clip-path="url(#p8cb0eeb2bd)" style="fill: none; stroke: #1f77b4; stroke-width: 1.5; stroke-linecap: square"/>
   </g>
   <g id="patch_21">
    <path d="M 24.1625 245.848827 
L 24.1625 201.702893 
" style="fill: none; stroke: #000000; stroke-width: 0.8; stroke-linejoin: miter; stroke-linecap: square"/>
   </g>
   <g id="patch_22">
    <path d="M 450 245.848827 
L 450 201.702893 
" style="fill: none; stroke: #000000; stroke-width: 0.8; stroke-linejoin: miter; stroke-linecap: square"/>
   </g>
   <g id="patch_23">
    <path d="M 24.1625 245.848827 
L 450 245.848827 
" style="fill: none; stroke: #000000; stroke-width: 0.8; stroke-linejoin: miter; stroke-linecap: square"/>
   </g>
   <g id="patch_24">
    <path d="M 24.1625 201.702893 
L 450 201.702893 
" style="fill: none; stroke: #000000; stroke-width: 0.8; stroke-linejoin: miter; stroke-linecap: square"/>
   </g>
   <g id="legend_4">
    <g id="patch_25">
     <path d="M 376.434375 224.381018 
L 443 224.381018 
Q 445 224.381018 445 222.381018 
L 445 208.702893 
Q 445 206.702893 443 206.702893 
L 376.434375 206.702893 
Q 374.434375 206.702893 374.434375 208.702893 
L 374.434375 222.381018 
Q 374.434375 224.381018 376.434375 224.381018 
z
" style="fill: #ffffff; opacity: 0.8; stroke: #cccccc; stroke-linejoin: miter"/>
    </g>
    <g id="line2d_40">
     <path d="M 378.434375 214.801331 
L 388.434375 214.801331 
L 398.434375 214.801331 
" style="fill: none; stroke: #1f77b4; stroke-width: 1.5; stroke-linecap: square"/>
    </g>
    <g id="text_13">
     <!-- t=0.75 -->
     <g transform="translate(406.434375 218.301331) scale(0.1 -0.1)">
      <defs>
       <path id="DejaVuSans-37" d="M 525 4666 
L 3525 4666 
L 3525 4397 
L 1831 0 
L 1172 0 
L 2766 4134 
L 525 4134 
L 525 4666 
z
" transform="scale(0.015625)"/>
      </defs>
      <use xlink:href="#DejaVuSans-74"/>
      <use xlink:href="#DejaVuSans-3d" x="39.208984"/>
      <use xlink:href="#DejaVuSans-30" x="122.998047"/>
      <use xlink:href="#DejaVuSans-2e" x="186.621094"/>
      <use xlink:href="#DejaVuSans-37" x="218.408203"/>
      <use xlink:href="#DejaVuSans-35" x="282.03125"/>
     </g>
    </g>
   </g>
  </g>
  <g id="axes_5">
   <g id="patch_26">
    <path d="M 24.1625 304.44375 
L 450 304.44375 
L 450 260.297816 
L 24.1625 260.297816 
z
" style="fill: #ffffff"/>
   </g>
   <g id="matplotlib.axis_9">
    <g id="xtick_25">
     <g id="line2d_41">
      <g>
       <use xlink:href="#m86d64828e0" x="59.648958" y="304.44375" style="stroke: #000000; stroke-width: 0.8"/>
      </g>
     </g>
     <g id="text_14">
      <!-- 0.0 -->
      <g transform="translate(51.697396 319.042187) scale(0.1 -0.1)">
       <use xlink:href="#DejaVuSans-30"/>
       <use xlink:href="#DejaVuSans-2e" x="63.623047"/>
       <use xlink:href="#DejaVuSans-30" x="95.410156"/>
      </g>
     </g>
    </g>
    <g id="xtick_26">
     <g id="line2d_42">
      <g>
       <use xlink:href="#m86d64828e0" x="130.621875" y="304.44375" style="stroke: #000000; stroke-width: 0.8"/>
      </g>
     </g>
     <g id="text_15">
      <!-- 0.2 -->
      <g transform="translate(122.670312 319.042187) scale(0.1 -0.1)">
       <use xlink:href="#DejaVuSans-30"/>
       <use xlink:href="#DejaVuSans-2e" x="63.623047"/>
       <use xlink:href="#DejaVuSans-32" x="95.410156"/>
      </g>
     </g>
    </g>
    <g id="xtick_27">
     <g id="line2d_43">
      <g>
       <use xlink:href="#m86d64828e0" x="201.594792" y="304.44375" style="stroke: #000000; stroke-width: 0.8"/>
      </g>
     </g>
     <g id="text_16">
      <!-- 0.4 -->
      <g transform="translate(193.643229 319.042187) scale(0.1 -0.1)">
       <defs>
        <path id="DejaVuSans-34" d="M 2419 4116 
L 825 1625 
L 2419 1625 
L 2419 4116 
z
M 2253 4666 
L 3047 4666 
L 3047 1625 
L 3713 1625 
L 3713 1100 
L 3047 1100 
L 3047 0 
L 2419 0 
L 2419 1100 
L 313 1100 
L 313 1709 
L 2253 4666 
z
" transform="scale(0.015625)"/>
       </defs>
       <use xlink:href="#DejaVuSans-30"/>
       <use xlink:href="#DejaVuSans-2e" x="63.623047"/>
       <use xlink:href="#DejaVuSans-34" x="95.410156"/>
      </g>
     </g>
    </g>
    <g id="xtick_28">
     <g id="line2d_44">
      <g>
       <use xlink:href="#m86d64828e0" x="272.567708" y="304.44375" style="stroke: #000000; stroke-width: 0.8"/>
      </g>
     </g>
     <g id="text_17">
      <!-- 0.6 -->
      <g transform="translate(264.616146 319.042187) scale(0.1 -0.1)">
       <defs>
        <path id="DejaVuSans-36" d="M 2113 2584 
Q 1688 2584 1439 2293 
Q 1191 2003 1191 1497 
Q 1191 994 1439 701 
Q 1688 409 2113 409 
Q 2538 409 2786 701 
Q 3034 994 3034 1497 
Q 3034 2003 2786 2293 
Q 2538 2584 2113 2584 
z
M 3366 4563 
L 3366 3988 
Q 3128 4100 2886 4159 
Q 2644 4219 2406 4219 
Q 1781 4219 1451 3797 
Q 1122 3375 1075 2522 
Q 1259 2794 1537 2939 
Q 1816 3084 2150 3084 
Q 2853 3084 3261 2657 
Q 3669 2231 3669 1497 
Q 3669 778 3244 343 
Q 2819 -91 2113 -91 
Q 1303 -91 875 529 
Q 447 1150 447 2328 
Q 447 3434 972 4092 
Q 1497 4750 2381 4750 
Q 2619 4750 2861 4703 
Q 3103 4656 3366 4563 
z
" transform="scale(0.015625)"/>
       </defs>
       <use xlink:href="#DejaVuSans-30"/>
       <use xlink:href="#DejaVuSans-2e" x="63.623047"/>
       <use xlink:href="#DejaVuSans-36" x="95.410156"/>
      </g>
     </g>
    </g>
    <g id="xtick_29">
     <g id="line2d_45">
      <g>
       <use xlink:href="#m86d64828e0" x="343.540625" y="304.44375" style="stroke: #000000; stroke-width: 0.8"/>
      </g>
     </g>
     <g id="text_18">
      <!-- 0.8 -->
      <g transform="translate(335.589062 319.042187) scale(0.1 -0.1)">
       <defs>
        <path id="DejaVuSans-38" d="M 2034 2216 
Q 1584 2216 1326 1975 
Q 1069 1734 1069 1313 
Q 1069 891 1326 650 
Q 1584 409 2034 409 
Q 2484 409 2743 651 
Q 3003 894 3003 1313 
Q 3003 1734 2745 1975 
Q 2488 2216 2034 2216 
z
M 1403 2484 
Q 997 2584 770 2862 
Q 544 3141 544 3541 
Q 544 4100 942 4425 
Q 1341 4750 2034 4750 
Q 2731 4750 3128 4425 
Q 3525 4100 3525 3541 
Q 3525 3141 3298 2862 
Q 3072 2584 2669 2484 
Q 3125 2378 3379 2068 
Q 3634 1759 3634 1313 
Q 3634 634 3220 271 
Q 2806 -91 2034 -91 
Q 1263 -91 848 271 
Q 434 634 434 1313 
Q 434 1759 690 2068 
Q 947 2378 1403 2484 
z
M 1172 3481 
Q 1172 3119 1398 2916 
Q 1625 2713 2034 2713 
Q 2441 2713 2670 2916 
Q 2900 3119 2900 3481 
Q 2900 3844 2670 4047 
Q 2441 4250 2034 4250 
Q 1625 4250 1398 4047 
Q 1172 3844 1172 3481 
z
" transform="scale(0.015625)"/>
       </defs>
       <use xlink:href="#DejaVuSans-30"/>
       <use xlink:href="#DejaVuSans-2e" x="63.623047"/>
       <use xlink:href="#DejaVuSans-38" x="95.410156"/>
      </g>
     </g>
    </g>
    <g id="xtick_30">
     <g id="line2d_46">
      <g>
       <use xlink:href="#m86d64828e0" x="414.513542" y="304.44375" style="stroke: #000000; stroke-width: 0.8"/>
      </g>
     </g>
     <g id="text_19">
      <!-- 1.0 -->
      <g transform="translate(406.561979 319.042187) scale(0.1 -0.1)">
       <use xlink:href="#DejaVuSans-31"/>
       <use xlink:href="#DejaVuSans-2e" x="63.623047"/>
       <use xlink:href="#DejaVuSans-30" x="95.410156"/>
      </g>
     </g>
    </g>
    <g id="text_20">
     <!-- position -->
     <g transform="translate(217.276562 332.720312) scale(0.1 -0.1)">
      <defs>
       <path id="DejaVuSans-70" d="M 1159 525 
L 1159 -1331 
L 581 -1331 
L 581 3500 
L 1159 3500 
L 1159 2969 
Q 1341 3281 1617 3432 
Q 1894 3584 2278 3584 
Q 2916 3584 3314 3078 
Q 3713 2572 3713 1747 
Q 3713 922 3314 415 
Q 2916 -91 2278 -91 
Q 1894 -91 1617 61 
Q 1341 213 1159 525 
z
M 3116 1747 
Q 3116 2381 2855 2742 
Q 2594 3103 2138 3103 
Q 1681 3103 1420 2742 
Q 1159 2381 1159 1747 
Q 1159 1113 1420 752 
Q 1681 391 2138 391 
Q 2594 391 2855 752 
Q 3116 1113 3116 1747 
z
" transform="scale(0.015625)"/>
       <path id="DejaVuSans-6f" d="M 1959 3097 
Q 1497 3097 1228 2736 
Q 959 2375 959 1747 
Q 959 1119 1226 758 
Q 1494 397 1959 397 
Q 2419 397 2687 759 
Q 2956 1122 2956 1747 
Q 2956 2369 2687 2733 
Q 2419 3097 1959 3097 
z
M 1959 3584 
Q 2709 3584 3137 3096 
Q 3566 2609 3566 1747 
Q 3566 888 3137 398 
Q 2709 -91 1959 -91 
Q 1206 -91 779 398 
Q 353 888 353 1747 
Q 353 2609 779 3096 
Q 1206 3584 1959 3584 
z
" transform="scale(0.015625)"/>
       <path id="DejaVuSans-73" d="M 2834 3397 
L 2834 2853 
Q 2591 2978 2328 3040 
Q 2066 3103 1784 3103 
Q 1356 3103 1142 2972 
Q 928 2841 928 2578 
Q 928 2378 1081 2264 
Q 1234 2150 1697 2047 
L 1894 2003 
Q 2506 1872 2764 1633 
Q 3022 1394 3022 966 
Q 3022 478 2636 193 
Q 2250 -91 1575 -91 
Q 1294 -91 989 -36 
Q 684 19 347 128 
L 347 722 
Q 666 556 975 473 
Q 1284 391 1588 391 
Q 1994 391 2212 530 
Q 2431 669 2431 922 
Q 2431 1156 2273 1281 
Q 2116 1406 1581 1522 
L 1381 1569 
Q 847 1681 609 1914 
Q 372 2147 372 2553 
Q 372 3047 722 3315 
Q 1072 3584 1716 3584 
Q 2034 3584 2315 3537 
Q 2597 3491 2834 3397 
z
" transform="scale(0.015625)"/>
       <path id="DejaVuSans-69" d="M 603 3500 
L 1178 3500 
L 1178 0 
L 603 0 
L 603 3500 
z
M 603 4863 
L 1178 4863 
L 1178 4134 
L 603 4134 
L 603 4863 
z
" transform="scale(0.015625)"/>
       <path id="DejaVuSans-6e" d="M 3513 2113 
L 3513 0 
L 2938 0 
L 2938 2094 
Q 2938 2591 2744 2837 
Q 2550 3084 2163 3084 
Q 1697 3084 1428 2787 
Q 1159 2491 1159 1978 
L 1159 0 
L 581 0 
L 581 3500 
L 1159 3500 
L 1159 2956 
Q 1366 3272 1645 3428 
Q 1925 3584 2291 3584 
Q 2894 3584 3203 3211 
Q 3513 2838 3513 2113 
z
" transform="scale(0.015625)"/>
      </defs>
      <use xlink:href="#DejaVuSans-70"/>
      <use xlink:href="#DejaVuSans-6f" x="63.476562"/>
      <use xlink:href="#DejaVuSans-73" x="124.658203"/>
      <use xlink:href="#DejaVuSans-69" x="176.757812"/>
      <use xlink:href="#DejaVuSans-74" x="204.541016"/>
      <use xlink:href="#DejaVuSans-69" x="243.75"/>
      <use xlink:href="#DejaVuSans-6f" x="271.533203"/>
      <use xlink:href="#DejaVuSans-6e" x="332.714844"/>
     </g>
    </g>
   </g>
   <g id="matplotlib.axis_10">
    <g id="ytick_9">
     <g id="line2d_47">
      <g>
       <use xlink:href="#m7c265386b5" x="24.1625" y="300.764922" style="stroke: #000000; stroke-width: 0.8"/>
      </g>
     </g>
     <g id="text_21">
      <!-- 0 -->
      <g transform="translate(10.8 304.564141) scale(0.1 -0.1)">
       <use xlink:href="#DejaVuSans-30"/>
      </g>
     </g>
    </g>
    <g id="ytick_10">
     <g id="line2d_48">
      <g>
       <use xlink:href="#m7c265386b5" x="24.1625" y="263.976644" style="stroke: #000000; stroke-width: 0.8"/>
      </g>
     </g>
     <g id="text_22">
      <!-- 1 -->
      <g transform="translate(10.8 267.775863) scale(0.1 -0.1)">
       <use xlink:href="#DejaVuSans-31"/>
      </g>
     </g>
    </g>
   </g>
   <g id="line2d_49">
    <path d="M 59.648958 263.976644 
L 63.197604 263.976644 
L 66.74625 263.976644 
L 70.294896 263.976644 
L 73.843542 263.976644 
L 77.392187 263.976644 
L 80.940833 263.976644 
L 84.489479 263.976644 
L 88.038125 263.976644 
L 91.586771 263.976644 
L 95.135417 263.976644 
L 98.684062 263.976644 
L 102.232708 263.976644 
L 105.781354 263.976644 
L 109.33 263.976644 
L 112.878646 263.976644 
L 116.427292 263.976644 
L 119.975937 263.976644 
L 123.524583 263.976644 
L 127.073229 263.976644 
L 130.621875 263.976644 
L 134.170521 263.976644 
L 137.719167 263.976644 
L 141.267812 263.976644 
L 144.816458 263.976644 
L 148.365104 263.976644 
L 151.91375 263.976644 
L 155.462396 263.976644 
L 159.011042 263.976644 
L 162.559687 263.976644 
L 166.108333 263.976644 
L 169.656979 263.976644 
L 173.205625 263.976644 
L 176.754271 263.976644 
L 180.302917 263.976644 
L 183.851562 263.976644 
L 187.400208 263.976644 
L 190.948854 263.976644 
L 194.4975 263.976644 
L 198.046146 263.976644 
L 201.594792 263.976644 
L 205.143437 263.976644 
L 208.692083 263.976644 
L 212.240729 263.976644 
L 215.789375 263.976644 
L 219.338021 263.976644 
L 222.886667 263.976644 
L 226.435312 263.976644 
L 229.983958 263.976644 
L 233.532604 263.976644 
L 237.08125 263.976644 
L 240.629896 263.976644 
L 244.178542 263.976644 
L 247.727187 263.976644 
L 251.275833 263.976644 
L 254.824479 263.976644 
L 258.373125 263.976644 
L 261.921771 263.976644 
L 265.470417 263.976644 
L 269.019062 263.976644 
L 272.567708 263.976644 
L 276.116354 263.976644 
L 279.665 263.976644 
L 283.213646 263.976644 
L 286.762292 263.976644 
L 290.310937 263.976644 
L 293.859583 263.976644 
L 297.408229 263.976644 
L 300.956875 263.976644 
L 304.505521 263.976644 
L 308.054167 263.976644 
L 311.602812 263.976644 
L 315.151458 263.976644 
L 318.700104 263.976644 
L 322.24875 263.976644 
L 325.797396 263.976644 
L 329.346042 263.976644 
L 332.894687 263.976644 
L 336.443333 263.976644 
L 339.991979 263.976644 
L 343.540625 263.976644 
L 347.089271 263.976644 
L 350.637917 263.976644 
L 354.186562 263.976644 
L 357.735208 263.976644 
L 361.283854 263.976644 
L 364.8325 263.976644 
L 368.381146 263.976644 
L 371.929792 263.976644 
L 375.478437 263.976644 
L 379.027083 263.976644 
L 382.575729 263.976644 
L 386.124375 263.976644 
L 389.673021 263.976644 
L 393.221667 263.976644 
L 396.770312 263.976644 
L 400.318958 263.976644 
L 403.867604 263.976644 
L 407.41625 263.976644 
L 410.964896 263.976644 
L 414.513542 263.976644 
" clip-path="url(#p1512bf326f)" style="fill: none; stroke: #1f77b4; stroke-width: 1.5; stroke-linecap: square"/>
   </g>
   <g id="patch_27">
    <path d="M 24.1625 304.44375 
L 24.1625 260.297816 
" style="fill: none; stroke: #000000; stroke-width: 0.8; stroke-linejoin: miter; stroke-linecap: square"/>
   </g>
   <g id="patch_28">
    <path d="M 450 304.44375 
L 450 260.297816 
" style="fill: none; stroke: #000000; stroke-width: 0.8; stroke-linejoin: miter; stroke-linecap: square"/>
   </g>
   <g id="patch_29">
    <path d="M 24.1625 304.44375 
L 450 304.44375 
" style="fill: none; stroke: #000000; stroke-width: 0.8; stroke-linejoin: miter; stroke-linecap: square"/>
   </g>
   <g id="patch_30">
    <path d="M 24.1625 260.297816 
L 450 260.297816 
" style="fill: none; stroke: #000000; stroke-width: 0.8; stroke-linejoin: miter; stroke-linecap: square"/>
   </g>
   <g id="legend_5">
    <g id="patch_31">
     <path d="M 376.434375 282.975941 
L 443 282.975941 
Q 445 282.975941 445 280.975941 
L 445 267.297816 
Q 445 265.297816 443 265.297816 
L 376.434375 265.297816 
Q 374.434375 265.297816 374.434375 267.297816 
L 374.434375 280.975941 
Q 374.434375 282.975941 376.434375 282.975941 
z
" style="fill: #ffffff; opacity: 0.8; stroke: #cccccc; stroke-linejoin: miter"/>
    </g>
    <g id="line2d_50">
     <path d="M 378.434375 273.396254 
L 388.434375 273.396254 
L 398.434375 273.396254 
" style="fill: none; stroke: #1f77b4; stroke-width: 1.5; stroke-linecap: square"/>
    </g>
    <g id="text_23">
     <!-- t=1.00 -->
     <g transform="translate(406.434375 276.896254) scale(0.1 -0.1)">
      <use xlink:href="#DejaVuSans-74"/>
      <use xlink:href="#DejaVuSans-3d" x="39.208984"/>
      <use xlink:href="#DejaVuSans-31" x="122.998047"/>
      <use xlink:href="#DejaVuSans-2e" x="186.621094"/>
      <use xlink:href="#DejaVuSans-30" x="218.408203"/>
      <use xlink:href="#DejaVuSans-30" x="282.03125"/>
     </g>
    </g>
   </g>
  </g>
 </g>
 <defs>
  <clipPath id="p89cb0a0130">
   <rect x="24.1625" y="25.918125" width="425.8375" height="44.145934"/>
  </clipPath>
  <clipPath id="p8348726e1c">
   <rect x="24.1625" y="84.513048" width="425.8375" height="44.145934"/>
  </clipPath>
  <clipPath id="p1672236389">
   <rect x="24.1625" y="143.107971" width="425.8375" height="44.145934"/>
  </clipPath>
  <clipPath id="p8cb0eeb2bd">
   <rect x="24.1625" y="201.702893" width="425.8375" height="44.145934"/>
  </clipPath>
  <clipPath id="p1512bf326f">
   <rect x="24.1625" y="260.297816" width="425.8375" height="44.145934"/>
  </clipPath>
 </defs>
</svg>
