<?xml version="1.0" encoding="utf-8" standalone="no"?>
<!DOCTYPE svg PUBLIC "-//W3C//DTD SVG 1.1//EN"
  "http://www.w3.org/Graphics/SVG/1.1/DTD/svg11.dtd">
<svg xmlns:xlink="http://www.w3.org/1999/xlink" width="460.8pt" height="345.6pt" viewBox="0 0 460.8 345.6" xmlns="http://www.w3.org/2000/svg" version="1.1">
 <metadata>
  <rdf:RDF xmlns:dc="http://purl.org/dc/elements/1.1/" xmlns:cc="http://creativecommons.org/ns#" xmlns:rdf="http://www.w3.org/1999/02/22-rdf-syntax-ns#">
   <cc:Work>
    <dc:type rdf:resource="http://purl.org/dc/dcmitype/StillImage"/>
    <dc:date>2025-03-18T20:57:01.585377</dc:date>
    <dc:format>image/svg+xml</dc:format>
    <dc:creator>
     <cc:Agent>
      <dc:title>Matplotlib v3.8.4, https://matplotlib.org/</dc:title>
     </cc:Agent>
    </dc:creator>
   </cc:Work>
  </rdf:RDF>
 </metadata>
 <defs>
  <style type="text/css">*{stroke-linejoin: round; stroke-linecap: butt}</style>
 </defs>
 <g id="figure_1">
  <g id="patch_1">
   <path d="M 0 345.6 
L 460.8 345.6 
L 460.8 0 
L 0 0 
z
" style="fill: #ffffff"/>
  </g>
  <g id="axes_1">
   <g id="patch_2">
    <path d="M 24.1625 70.064059 
L 450 70.064059 
L 450 25.918125 
L 24.1625 25.918125 
z
" style="fill: #ffffff"/>
   </g>
   <g id="matplotlib.axis_1">
    <g id="xtick_1">
     <g id="line2d_1">
      <defs>
       <path id="m954026f037" d="M 0 0 
L 0 3.5 
" style="stroke: #000000; stroke-width: 0.8"/>
      </defs>
      <g>
       <use xlink:href="#m954026f037" x="59.648958" y="70.064059" style="stroke: #000000; stroke-width: 0.8"/>
      </g>
     </g>
    </g>
    <g id="xtick_2">
     <g id="line2d_2">
      <g>
       <use xlink:href="#m954026f037" x="130.621875" y="70.064059" style="stroke: #000000; stroke-width: 0.8"/>
      </g>
     </g>
    </g>
    <g id="xtick_3">
     <g id="line2d_3">
      <g>
       <use xlink:href="#m954026f037" x="201.594792" y="70.064059" style="stroke: #000000; stroke-width: 0.8"/>
      </g>
     </g>
    </g>
    <g id="xtick_4">
     <g id="line2d_4">
      <g>
       <use xlink:href="#m954026f037" x="272.567708" y="70.064059" style="stroke: #000000; stroke-width: 0.8"/>
      </g>
     </g>
    </g>
    <g id="xtick_5">
     <g id="line2d_5">
      <g>
       <use xlink:href="#m954026f037" x="343.540625" y="70.064059" style="stroke: #000000; stroke-width: 0.8"/>
      </g>
     </g>
    </g>
    <g id="xtick_6">
     <g id="line2d_6">
      <g>
       <use xlink:href="#m954026f037" x="414.513542" y="70.064059" style="stroke: #000000; stroke-width: 0.8"/>
      </g>
     </g>
    </g>
   </g>
   <g id="matplotlib.axis_2">
    <g id="ytick_1">
     <g id="line2d_7">
      <defs>
       <path id="m75599e1149" d="M 0 0 
L -3.5 0 
" style="stroke: #000000; stroke-width: 0.8"/>
      </defs>
      <g>
       <use xlink:href="#m75599e1149" x="24.1625" y="66.385231" style="stroke: #000000; stroke-width: 0.8"/>
      </g>
     </g>
     <g id="text_1">
      <!-- 0 -->
      <g transform="translate(10.8 70.18445) scale(0.1 -0.1)">
       <defs>
        <path id="DejaVuSans-30" d="M 2034 4250 
Q 1547 4250 1301 3770 
Q 1056 3291 1056 2328 
Q 1056 1369 1301 889 
Q 1547 409 2034 409 
Q 2525 409 2770 889 
Q 3016 1369 3016 2328 
Q 3016 3291 2770 3770 
Q 2525 4250 2034 4250 
z
M 2034 4750 
Q 2819 4750 3233 4129 
Q 3647 3509 3647 2328 
Q 3647 1150 3233 529 
Q 2819 -91 2034 -91 
Q 1250 -91 836 529 
Q 422 1150 422 2328 
Q 422 3509 836 4129 
Q 1250 4750 2034 4750 
z
" transform="scale(0.015625)"/>
       </defs>
       <use xlink:href="#DejaVuSans-30"/>
      </g>
     </g>
    </g>
    <g id="ytick_2">
     <g id="line2d_8">
      <g>
       <use xlink:href="#m75599e1149" x="24.1625" y="29.596953" style="stroke: #000000; stroke-width: 0.8"/>
      </g>
     </g>
     <g id="text_2">
      <!-- 1 -->
      <g transform="translate(10.8 33.396172) scale(0.1 -0.1)">
       <defs>
        <path id="DejaVuSans-31" d="M 794 531 
L 1825 531 
L 1825 4091 
L 703 3866 
L 703 4441 
L 1819 4666 
L 2450 4666 
L 2450 531 
L 3481 531 
L 3481 0 
L 794 0 
L 794 531 
z
" transform="scale(0.015625)"/>
       </defs>
       <use xlink:href="#DejaVuSans-31"/>
      </g>
     </g>
    </g>
   </g>
   <g id="line2d_9">
    <path d="M 59.648958 66.385231 
L 63.197604 66.017716 
L 66.74625 65.650201 
L 70.294896 65.282685 
L 73.843542 64.91517 
L 77.392187 64.547655 
L 80.940833 64.180139 
L 84.489479 63.812624 
L 88.038125 63.445109 
L 91.586771 63.077594 
L 95.135417 62.710078 
L 98.684062 62.342563 
L 102.232708 61.975048 
L 105.781354 61.607533 
L 109.33 61.240017 
L 112.878646 60.872502 
L 116.427292 60.504987 
L 119.975937 60.137472 
L 123.524583 59.769956 
L 127.073229 59.402441 
L 130.621875 59.034926 
L 134.170521 58.66741 
L 137.719167 58.299895 
L 141.267812 57.93238 
L 144.816458 57.564865 
L 148.365104 57.197349 
L 151.91375 56.829834 
L 155.462396 56.462319 
L 159.011042 56.094804 
L 162.559687 55.727288 
L 166.108333 55.359773 
L 169.656979 54.992258 
L 173.205625 54.624743 
L 176.754271 54.257227 
L 180.302917 53.889712 
L 183.851562 53.522197 
L 187.400208 53.154681 
L 190.948854 52.787166 
L 194.4975 52.419651 
L 198.046146 52.052136 
L 201.594792 51.68462 
L 205.143437 51.317105 
L 208.692083 50.94959 
L 212.240729 50.582075 
L 215.789375 50.214559 
L 219.338021 49.847044 
L 222.886667 49.479529 
L 226.435312 49.112014 
L 229.983958 48.744498 
L 233.532604 48.376983 
L 237.08125 48.009468 
L 240.629896 47.641952 
L 244.178542 47.274437 
L 247.727187 46.906922 
L 251.275833 46.539407 
L 254.824479 46.171891 
L 258.373125 45.804376 
L 261.921771 45.436861 
L 265.470417 45.069346 
L 269.019062 44.70183 
L 272.567708 44.334315 
L 276.116354 43.9668 
L 279.665 43.599285 
L 283.213646 43.231769 
L 286.762292 42.864254 
L 290.310937 42.496739 
L 293.859583 42.129223 
L 297.408229 41.761708 
L 300.956875 41.394193 
L 304.505521 41.026678 
L 308.054167 40.659162 
L 311.602812 40.291647 
L 315.151458 39.924132 
L 318.700104 39.556617 
L 322.24875 39.189101 
L 325.797396 38.821586 
L 329.346042 38.454071 
L 332.894687 38.086556 
L 336.443333 37.71904 
L 339.991979 37.351525 
L 343.540625 36.98401 
L 347.089271 36.616494 
L 350.637917 36.248979 
L 354.186562 35.881464 
L 357.735208 35.513949 
L 361.283854 35.146433 
L 364.8325 34.778918 
L 368.381146 34.411403 
L 371.929792 34.043888 
L 375.478437 33.676372 
L 379.027083 33.308857 
L 382.575729 32.941342 
L 386.124375 32.573826 
L 389.673021 32.206311 
L 393.221667 31.838796 
L 396.770312 31.471281 
L 400.318958 31.103765 
L 403.867604 30.73625 
L 407.41625 30.368735 
L 410.964896 30.00122 
L 414.513542 29.633704 
" clip-path="url(#p1878404a37)" style="fill: none; stroke: #1f77b4; stroke-width: 1.5; stroke-linecap: square"/>
   </g>
   <g id="patch_3">
    <path d="M 24.1625 70.064059 
L 24.1625 25.918125 
" style="fill: none; stroke: #000000; stroke-width: 0.8; stroke-linejoin: miter; stroke-linecap: square"/>
   </g>
   <g id="patch_4">
    <path d="M 450 70.064059 
L 450 25.918125 
" style="fill: none; stroke: #000000; stroke-width: 0.8; stroke-linejoin: miter; stroke-linecap: square"/>
   </g>
   <g id="patch_5">
    <path d="M 24.1625 70.064059 
L 450 70.064059 
" style="fill: none; stroke: #000000; stroke-width: 0.8; stroke-linejoin: miter; stroke-linecap: square"/>
   </g>
   <g id="patch_6">
    <path d="M 24.1625 25.918125 
L 450 25.918125 
" style="fill: none; stroke: #000000; stroke-width: 0.8; stroke-linejoin: miter; stroke-linecap: square"/>
   </g>
   <g id="text_3">
    <!-- saw -->
    <g transform="translate(225.371875 19.918125) scale(0.12 -0.12)">
     <defs>
      <path id="DejaVuSans-73" d="M 2834 3397 
L 2834 2853 
Q 2591 2978 2328 3040 
Q 2066 3103 1784 3103 
Q 1356 3103 1142 2972 
Q 928 2841 928 2578 
Q 928 2378 1081 2264 
Q 1234 2150 1697 2047 
L 1894 2003 
Q 2506 1872 2764 1633 
Q 3022 1394 3022 966 
Q 3022 478 2636 193 
Q 2250 -91 1575 -91 
Q 1294 -91 989 -36 
Q 684 19 347 128 
L 347 722 
Q 666 556 975 473 
Q 1284 391 1588 391 
Q 1994 391 2212 530 
Q 2431 669 2431 922 
Q 2431 1156 2273 1281 
Q 2116 1406 1581 1522 
L 1381 1569 
Q 847 1681 609 1914 
Q 372 2147 372 2553 
Q 372 3047 722 3315 
Q 1072 3584 1716 3584 
Q 2034 3584 2315 3537 
Q 2597 3491 2834 3397 
z
" transform="scale(0.015625)"/>
      <path id="DejaVuSans-61" d="M 2194 1759 
Q 1497 1759 1228 1600 
Q 959 1441 959 1056 
Q 959 750 1161 570 
Q 1363 391 1709 391 
Q 2188 391 2477 730 
Q 2766 1069 2766 1631 
L 2766 1759 
L 2194 1759 
z
M 3341 1997 
L 3341 0 
L 2766 0 
L 2766 531 
Q 2569 213 2275 61 
Q 1981 -91 1556 -91 
Q 1019 -91 701 211 
Q 384 513 384 1019 
Q 384 1609 779 1909 
Q 1175 2209 1959 2209 
L 2766 2209 
L 2766 2266 
Q 2766 2663 2505 2880 
Q 2244 3097 1772 3097 
Q 1472 3097 1187 3025 
Q 903 2953 641 2809 
L 641 3341 
Q 956 3463 1253 3523 
Q 1550 3584 1831 3584 
Q 2591 3584 2966 3190 
Q 3341 2797 3341 1997 
z
" transform="scale(0.015625)"/>
      <path id="DejaVuSans-77" d="M 269 3500 
L 844 3500 
L 1563 769 
L 2278 3500 
L 2956 3500 
L 3675 769 
L 4391 3500 
L 4966 3500 
L 4050 0 
L 3372 0 
L 2619 2869 
L 1863 0 
L 1184 0 
L 269 3500 
z
" transform="scale(0.015625)"/>
     </defs>
     <use xlink:href="#DejaVuSans-73"/>
     <use xlink:href="#DejaVuSans-61" x="52.099609"/>
     <use xlink:href="#DejaVuSans-77" x="113.378906"/>
    </g>
   </g>
   <g id="legend_1">
    <g id="patch_7">
     <path d="M 376.434375 48.59625 
L 443 48.59625 
Q 445 48.59625 445 46.59625 
L 445 32.918125 
Q 445 30.918125 443 30.918125 
L 376.434375 30.918125 
Q 374.434375 30.918125 374.434375 32.918125 
L 374.434375 46.59625 
Q 374.434375 48.59625 376.434375 48.59625 
z
" style="fill: #ffffff; opacity: 0.8; stroke: #cccccc; stroke-linejoin: miter"/>
    </g>
    <g id="line2d_10">
     <path d="M 378.434375 39.016563 
L 388.434375 39.016563 
L 398.434375 39.016563 
" style="fill: none; stroke: #1f77b4; stroke-width: 1.5; stroke-linecap: square"/>
    </g>
    <g id="text_4">
     <!-- t=0.00 -->
     <g transform="translate(406.434375 42.516563) scale(0.1 -0.1)">
      <defs>
       <path id="DejaVuSans-74" d="M 1172 4494 
L 1172 3500 
L 2356 3500 
L 2356 3053 
L 1172 3053 
L 1172 1153 
Q 1172 725 1289 603 
Q 1406 481 1766 481 
L 2356 481 
L 2356 0 
L 1766 0 
Q 1100 0 847 248 
Q 594 497 594 1153 
L 594 3053 
L 172 3053 
L 172 3500 
L 594 3500 
L 594 4494 
L 1172 4494 
z
" transform="scale(0.015625)"/>
       <path id="DejaVuSans-3d" d="M 678 2906 
L 4684 2906 
L 4684 2381 
L 678 2381 
L 678 2906 
z
M 678 1631 
L 4684 1631 
L 4684 1100 
L 678 1100 
L 678 1631 
z
" transform="scale(0.015625)"/>
       <path id="DejaVuSans-2e" d="M 684 794 
L 1344 794 
L 1344 0 
L 684 0 
L 684 794 
z
" transform="scale(0.015625)"/>
      </defs>
      <use xlink:href="#DejaVuSans-74"/>
      <use xlink:href="#DejaVuSans-3d" x="39.208984"/>
      <use xlink:href="#DejaVuSans-30" x="122.998047"/>
      <use xlink:href="#DejaVuSans-2e" x="186.621094"/>
      <use xlink:href="#DejaVuSans-30" x="218.408203"/>
      <use xlink:href="#DejaVuSans-30" x="282.03125"/>
     </g>
    </g>
   </g>
  </g>
  <g id="axes_2">
   <g id="patch_8">
    <path d="M 24.1625 128.658982 
L 450 128.658982 
L 450 84.513048 
L 24.1625 84.513048 
z
" style="fill: #ffffff"/>
   </g>
   <g id="matplotlib.axis_3">
    <g id="xtick_7">
     <g id="line2d_11">
      <g>
       <use xlink:href="#m954026f037" x="59.648958" y="128.658982" style="stroke: #000000; stroke-width: 0.8"/>
      </g>
     </g>
    </g>
    <g id="xtick_8">
     <g id="line2d_12">
      <g>
       <use xlink:href="#m954026f037" x="130.621875" y="128.658982" style="stroke: #000000; stroke-width: 0.8"/>
      </g>
     </g>
    </g>
    <g id="xtick_9">
     <g id="line2d_13">
      <g>
       <use xlink:href="#m954026f037" x="201.594792" y="128.658982" style="stroke: #000000; stroke-width: 0.8"/>
      </g>
     </g>
    </g>
    <g id="xtick_10">
     <g id="line2d_14">
      <g>
       <use xlink:href="#m954026f037" x="272.567708" y="128.658982" style="stroke: #000000; stroke-width: 0.8"/>
      </g>
     </g>
    </g>
    <g id="xtick_11">
     <g id="line2d_15">
      <g>
       <use xlink:href="#m954026f037" x="343.540625" y="128.658982" style="stroke: #000000; stroke-width: 0.8"/>
      </g>
     </g>
    </g>
    <g id="xtick_12">
     <g id="line2d_16">
      <g>
       <use xlink:href="#m954026f037" x="414.513542" y="128.658982" style="stroke: #000000; stroke-width: 0.8"/>
      </g>
     </g>
    </g>
   </g>
   <g id="matplotlib.axis_4">
    <g id="ytick_3">
     <g id="line2d_17">
      <g>
       <use xlink:href="#m75599e1149" x="24.1625" y="124.980154" style="stroke: #000000; stroke-width: 0.8"/>
      </g>
     </g>
     <g id="text_5">
      <!-- 0 -->
      <g transform="translate(10.8 128.779373) scale(0.1 -0.1)">
       <use xlink:href="#DejaVuSans-30"/>
      </g>
     </g>
    </g>
    <g id="ytick_4">
     <g id="line2d_18">
      <g>
       <use xlink:href="#m75599e1149" x="24.1625" y="88.191876" style="stroke: #000000; stroke-width: 0.8"/>
      </g>
     </g>
     <g id="text_6">
      <!-- 1 -->
      <g transform="translate(10.8 91.991094) scale(0.1 -0.1)">
       <use xlink:href="#DejaVuSans-31"/>
      </g>
     </g>
    </g>
   </g>
   <g id="line2d_19">
    <path d="M 59.648958 97.388945 
L 63.197604 97.02143 
L 66.74625 96.653915 
L 70.294896 96.286399 
L 73.843542 95.918884 
L 77.392187 95.551369 
L 80.940833 95.183854 
L 84.489479 94.816338 
L 88.038125 94.448823 
L 91.586771 94.081308 
L 95.135417 93.713792 
L 98.684062 93.346277 
L 102.232708 92.978762 
L 105.781354 92.611247 
L 109.33 92.243731 
L 112.878646 91.876216 
L 116.427292 91.508701 
L 119.975937 91.141186 
L 123.524583 90.77367 
L 127.073229 90.406155 
L 130.621875 90.03864 
L 134.170521 89.671125 
L 137.719167 89.303609 
L 141.267812 88.936094 
L 144.816458 88.568579 
L 148.365104 88.201063 
L 151.91375 124.621826 
L 155.462396 124.254311 
L 159.011042 123.886796 
L 162.559687 123.519281 
L 166.108333 123.151765 
L 169.656979 122.78425 
L 173.205625 122.416735 
L 176.754271 122.04922 
L 180.302917 121.681704 
L 183.851562 121.314189 
L 187.400208 120.946674 
L 190.948854 120.579159 
L 194.4975 120.211643 
L 198.046146 119.844128 
L 201.594792 119.476613 
L 205.143437 119.109097 
L 208.692083 118.741582 
L 212.240729 118.374067 
L 215.789375 118.006552 
L 219.338021 117.639036 
L 222.886667 117.271521 
L 226.435312 116.904006 
L 229.983958 116.536491 
L 233.532604 116.168975 
L 237.08125 115.80146 
L 240.629896 115.433945 
L 244.178542 115.06643 
L 247.727187 114.698914 
L 251.275833 114.331399 
L 254.824479 113.963884 
L 258.373125 113.596368 
L 261.921771 113.228853 
L 265.470417 112.861338 
L 269.019062 112.493823 
L 272.567708 112.126307 
L 276.116354 111.758792 
L 279.665 111.391277 
L 283.213646 111.023762 
L 286.762292 110.656246 
L 290.310937 110.288731 
L 293.859583 109.921216 
L 297.408229 109.553701 
L 300.956875 109.186185 
L 304.505521 108.81867 
L 308.054167 108.451155 
L 311.602812 108.083639 
L 315.151458 107.716124 
L 318.700104 107.348609 
L 322.24875 106.981094 
L 325.797396 106.613578 
L 329.346042 106.246063 
L 332.894687 105.878548 
L 336.443333 105.511033 
L 339.991979 105.143517 
L 343.540625 104.776002 
L 347.089271 104.408487 
L 350.637917 104.040972 
L 354.186562 103.673456 
L 357.735208 103.305941 
L 361.283854 102.938426 
L 364.8325 102.57091 
L 368.381146 102.203395 
L 371.929792 101.83588 
L 375.478437 101.468365 
L 379.027083 101.100849 
L 382.575729 100.733334 
L 386.124375 100.365819 
L 389.673021 99.998304 
L 393.221667 99.630788 
L 396.770312 99.263273 
L 400.318958 98.895758 
L 403.867604 98.528242 
L 407.41625 98.160727 
L 410.964896 97.793212 
L 414.513542 97.425697 
" clip-path="url(#p38c624aaed)" style="fill: none; stroke: #1f77b4; stroke-width: 1.5; stroke-linecap: square"/>
   </g>
   <g id="patch_9">
    <path d="M 24.1625 128.658982 
L 24.1625 84.513048 
" style="fill: none; stroke: #000000; stroke-width: 0.8; stroke-linejoin: miter; stroke-linecap: square"/>
   </g>
   <g id="patch_10">
    <path d="M 450 128.658982 
L 450 84.513048 
" style="fill: none; stroke: #000000; stroke-width: 0.8; stroke-linejoin: miter; stroke-linecap: square"/>
   </g>
   <g id="patch_11">
    <path d="M 24.1625 128.658982 
L 450 128.658982 
" style="fill: none; stroke: #000000; stroke-width: 0.8; stroke-linejoin: miter; stroke-linecap: square"/>
   </g>
   <g id="patch_12">
    <path d="M 24.1625 84.513048 
L 450 84.513048 
" style="fill: none; stroke: #000000; stroke-width: 0.8; stroke-linejoin: miter; stroke-linecap: square"/>
   </g>
   <g id="legend_2">
    <g id="patch_13">
     <path d="M 376.434375 107.191173 
L 443 107.191173 
Q 445 107.191173 445 105.191173 
L 445 91.513048 
Q 445 89.513048 443 89.513048 
L 376.434375 89.513048 
Q 374.434375 89.513048 374.434375 91.513048 
L 374.434375 105.191173 
Q 374.434375 107.191173 376.434375 107.191173 
z
" style="fill: #ffffff; opacity: 0.8; stroke: #cccccc; stroke-linejoin: miter"/>
    </g>
    <g id="line2d_20">
     <path d="M 378.434375 97.611485 
L 388.434375 97.611485 
L 398.434375 97.611485 
" style="fill: none; stroke: #1f77b4; stroke-width: 1.5; stroke-linecap: square"/>
    </g>
    <g id="text_7">
     <!-- t=0.25 -->
     <g transform="translate(406.434375 101.111485) scale(0.1 -0.1)">
      <defs>
       <path id="DejaVuSans-32" d="M 1228 531 
L 3431 531 
L 3431 0 
L 469 0 
L 469 531 
Q 828 903 1448 1529 
Q 2069 2156 2228 2338 
Q 2531 2678 2651 2914 
Q 2772 3150 2772 3378 
Q 2772 3750 2511 3984 
Q 2250 4219 1831 4219 
Q 1534 4219 1204 4116 
Q 875 4013 500 3803 
L 500 4441 
Q 881 4594 1212 4672 
Q 1544 4750 1819 4750 
Q 2544 4750 2975 4387 
Q 3406 4025 3406 3419 
Q 3406 3131 3298 2873 
Q 3191 2616 2906 2266 
Q 2828 2175 2409 1742 
Q 1991 1309 1228 531 
z
" transform="scale(0.015625)"/>
       <path id="DejaVuSans-35" d="M 691 4666 
L 3169 4666 
L 3169 4134 
L 1269 4134 
L 1269 2991 
Q 1406 3038 1543 3061 
Q 1681 3084 1819 3084 
Q 2600 3084 3056 2656 
Q 3513 2228 3513 1497 
Q 3513 744 3044 326 
Q 2575 -91 1722 -91 
Q 1428 -91 1123 -41 
Q 819 9 494 109 
L 494 744 
Q 775 591 1075 516 
Q 1375 441 1709 441 
Q 2250 441 2565 725 
Q 2881 1009 2881 1497 
Q 2881 1984 2565 2268 
Q 2250 2553 1709 2553 
Q 1456 2553 1204 2497 
Q 953 2441 691 2322 
L 691 4666 
z
" transform="scale(0.015625)"/>
      </defs>
      <use xlink:href="#DejaVuSans-74"/>
      <use xlink:href="#DejaVuSans-3d" x="39.208984"/>
      <use xlink:href="#DejaVuSans-30" x="122.998047"/>
      <use xlink:href="#DejaVuSans-2e" x="186.621094"/>
      <use xlink:href="#DejaVuSans-32" x="218.408203"/>
      <use xlink:href="#DejaVuSans-35" x="282.03125"/>
     </g>
    </g>
   </g>
  </g>
  <g id="axes_3">
   <g id="patch_14">
    <path d="M 24.1625 187.253904 
L 450 187.253904 
L 450 143.107971 
L 24.1625 143.107971 
z
" style="fill: #ffffff"/>
   </g>
   <g id="matplotlib.axis_5">
    <g id="xtick_13">
     <g id="line2d_21">
      <g>
       <use xlink:href="#m954026f037" x="59.648958" y="187.253904" style="stroke: #000000; stroke-width: 0.8"/>
      </g>
     </g>
    </g>
    <g id="xtick_14">
     <g id="line2d_22">
      <g>
       <use xlink:href="#m954026f037" x="130.621875" y="187.253904" style="stroke: #000000; stroke-width: 0.8"/>
      </g>
     </g>
    </g>
    <g id="xtick_15">
     <g id="line2d_23">
      <g>
       <use xlink:href="#m954026f037" x="201.594792" y="187.253904" style="stroke: #000000; stroke-width: 0.8"/>
      </g>
     </g>
    </g>
    <g id="xtick_16">
     <g id="line2d_24">
      <g>
       <use xlink:href="#m954026f037" x="272.567708" y="187.253904" style="stroke: #000000; stroke-width: 0.8"/>
      </g>
     </g>
    </g>
    <g id="xtick_17">
     <g id="line2d_25">
      <g>
       <use xlink:href="#m954026f037" x="343.540625" y="187.253904" style="stroke: #000000; stroke-width: 0.8"/>
      </g>
     </g>
    </g>
    <g id="xtick_18">
     <g id="line2d_26">
      <g>
       <use xlink:href="#m954026f037" x="414.513542" y="187.253904" style="stroke: #000000; stroke-width: 0.8"/>
      </g>
     </g>
    </g>
   </g>
   <g id="matplotlib.axis_6">
    <g id="ytick_5">
     <g id="line2d_27">
      <g>
       <use xlink:href="#m75599e1149" x="24.1625" y="183.575077" style="stroke: #000000; stroke-width: 0.8"/>
      </g>
     </g>
     <g id="text_8">
      <!-- 0 -->
      <g transform="translate(10.8 187.374295) scale(0.1 -0.1)">
       <use xlink:href="#DejaVuSans-30"/>
      </g>
     </g>
    </g>
    <g id="ytick_6">
     <g id="line2d_28">
      <g>
       <use xlink:href="#m75599e1149" x="24.1625" y="146.786798" style="stroke: #000000; stroke-width: 0.8"/>
      </g>
     </g>
     <g id="text_9">
      <!-- 1 -->
      <g transform="translate(10.8 150.586017) scale(0.1 -0.1)">
       <use xlink:href="#DejaVuSans-31"/>
      </g>
     </g>
    </g>
   </g>
   <g id="line2d_29">
    <path d="M 59.648958 165.180937 
L 63.197604 164.813422 
L 66.74625 164.445907 
L 70.294896 164.078392 
L 73.843542 163.710876 
L 77.392187 163.343361 
L 80.940833 162.975846 
L 84.489479 162.608331 
L 88.038125 162.240815 
L 91.586771 161.8733 
L 95.135417 161.505785 
L 98.684062 161.13827 
L 102.232708 160.770754 
L 105.781354 160.403239 
L 109.33 160.035724 
L 112.878646 159.668208 
L 116.427292 159.300693 
L 119.975937 158.933178 
L 123.524583 158.565663 
L 127.073229 158.198147 
L 130.621875 157.830632 
L 134.170521 157.463117 
L 137.719167 157.095602 
L 141.267812 156.728086 
L 144.816458 156.360571 
L 148.365104 155.993056 
L 151.91375 155.625541 
L 155.462396 155.258025 
L 159.011042 154.89051 
L 162.559687 154.522995 
L 166.108333 154.155479 
L 169.656979 153.787964 
L 173.205625 153.420449 
L 176.754271 153.052934 
L 180.302917 152.685418 
L 183.851562 152.317903 
L 187.400208 151.950388 
L 190.948854 151.582873 
L 194.4975 151.215357 
L 198.046146 150.847842 
L 201.594792 150.480327 
L 205.143437 150.112812 
L 208.692083 149.745296 
L 212.240729 149.377781 
L 215.789375 149.010266 
L 219.338021 148.64275 
L 222.886667 148.275235 
L 226.435312 147.90772 
L 229.983958 147.540205 
L 233.532604 147.172689 
L 237.08125 146.805174 
L 240.629896 183.225937 
L 244.178542 182.858422 
L 247.727187 182.490907 
L 251.275833 182.123391 
L 254.824479 181.755876 
L 258.373125 181.388361 
L 261.921771 181.020846 
L 265.470417 180.65333 
L 269.019062 180.285815 
L 272.567708 179.9183 
L 276.116354 179.550784 
L 279.665 179.183269 
L 283.213646 178.815754 
L 286.762292 178.448239 
L 290.310937 178.080723 
L 293.859583 177.713208 
L 297.408229 177.345693 
L 300.956875 176.978178 
L 304.505521 176.610662 
L 308.054167 176.243147 
L 311.602812 175.875632 
L 315.151458 175.508117 
L 318.700104 175.140601 
L 322.24875 174.773086 
L 325.797396 174.405571 
L 329.346042 174.038055 
L 332.894687 173.67054 
L 336.443333 173.303025 
L 339.991979 172.93551 
L 343.540625 172.567994 
L 347.089271 172.200479 
L 350.637917 171.832964 
L 354.186562 171.465449 
L 357.735208 171.097933 
L 361.283854 170.730418 
L 364.8325 170.362903 
L 368.381146 169.995388 
L 371.929792 169.627872 
L 375.478437 169.260357 
L 379.027083 168.892842 
L 382.575729 168.525326 
L 386.124375 168.157811 
L 389.673021 167.790296 
L 393.221667 167.422781 
L 396.770312 167.055265 
L 400.318958 166.68775 
L 403.867604 166.320235 
L 407.41625 165.95272 
L 410.964896 165.585204 
L 414.513542 165.217689 
" clip-path="url(#p02b6261ca9)" style="fill: none; stroke: #1f77b4; stroke-width: 1.5; stroke-linecap: square"/>
   </g>
   <g id="patch_15">
    <path d="M 24.1625 187.253904 
L 24.1625 143.107971 
" style="fill: none; stroke: #000000; stroke-width: 0.8; stroke-linejoin: miter; stroke-linecap: square"/>
   </g>
   <g id="patch_16">
    <path d="M 450 187.253904 
L 450 143.107971 
" style="fill: none; stroke: #000000; stroke-width: 0.8; stroke-linejoin: miter; stroke-linecap: square"/>
   </g>
   <g id="patch_17">
    <path d="M 24.1625 187.253904 
L 450 187.253904 
" style="fill: none; stroke: #000000; stroke-width: 0.8; stroke-linejoin: miter; stroke-linecap: square"/>
   </g>
   <g id="patch_18">
    <path d="M 24.1625 143.107971 
L 450 143.107971 
" style="fill: none; stroke: #000000; stroke-width: 0.8; stroke-linejoin: miter; stroke-linecap: square"/>
   </g>
   <g id="legend_3">
    <g id="patch_19">
     <path d="M 376.434375 165.786096 
L 443 165.786096 
Q 445 165.786096 445 163.786096 
L 445 150.107971 
Q 445 148.107971 443 148.107971 
L 376.434375 148.107971 
Q 374.434375 148.107971 374.434375 150.107971 
L 374.434375 163.786096 
Q 374.434375 165.786096 376.434375 165.786096 
z
" style="fill: #ffffff; opacity: 0.8; stroke: #cccccc; stroke-linejoin: miter"/>
    </g>
    <g id="line2d_30">
     <path d="M 378.434375 156.206408 
L 388.434375 156.206408 
L 398.434375 156.206408 
" style="fill: none; stroke: #1f77b4; stroke-width: 1.5; stroke-linecap: square"/>
    </g>
    <g id="text_10">
     <!-- t=0.50 -->
     <g transform="translate(406.434375 159.706408) scale(0.1 -0.1)">
      <use xlink:href="#DejaVuSans-74"/>
      <use xlink:href="#DejaVuSans-3d" x="39.208984"/>
      <use xlink:href="#DejaVuSans-30" x="122.998047"/>
      <use xlink:href="#DejaVuSans-2e" x="186.621094"/>
      <use xlink:href="#DejaVuSans-35" x="218.408203"/>
      <use xlink:href="#DejaVuSans-30" x="282.03125"/>
     </g>
    </g>
   </g>
  </g>
  <g id="axes_4">
   <g id="patch_20">
    <path d="M 24.1625 245.848827 
L 450 245.848827 
L 450 201.702893 
L 24.1625 201.702893 
z
" style="fill: #ffffff"/>
   </g>
   <g id="matplotlib.axis_7">
    <g id="xtick_19">
     <g id="line2d_31">
      <g>
       <use xlink:href="#m954026f037" x="59.648958" y="245.848827" style="stroke: #000000; stroke-width: 0.8"/>
      </g>
     </g>
    </g>
    <g id="xtick_20">
     <g id="line2d_32">
      <g>
       <use xlink:href="#m954026f037" x="130.621875" y="245.848827" style="stroke: #000000; stroke-width: 0.8"/>
      </g>
     </g>
    </g>
    <g id="xtick_21">
     <g id="line2d_33">
      <g>
       <use xlink:href="#m954026f037" x="201.594792" y="245.848827" style="stroke: #000000; stroke-width: 0.8"/>
      </g>
     </g>
    </g>
    <g id="xtick_22">
     <g id="line2d_34">
      <g>
       <use xlink:href="#m954026f037" x="272.567708" y="245.848827" style="stroke: #000000; stroke-width: 0.8"/>
      </g>
     </g>
    </g>
    <g id="xtick_23">
     <g id="line2d_35">
      <g>
       <use xlink:href="#m954026f037" x="343.540625" y="245.848827" style="stroke: #000000; stroke-width: 0.8"/>
      </g>
     </g>
    </g>
    <g id="xtick_24">
     <g id="line2d_36">
      <g>
       <use xlink:href="#m954026f037" x="414.513542" y="245.848827" style="stroke: #000000; stroke-width: 0.8"/>
      </g>
     </g>
    </g>
   </g>
   <g id="matplotlib.axis_8">
    <g id="ytick_7">
     <g id="line2d_37">
      <g>
       <use xlink:href="#m75599e1149" x="24.1625" y="242.169999" style="stroke: #000000; stroke-width: 0.8"/>
      </g>
     </g>
     <g id="text_11">
      <!-- 0 -->
      <g transform="translate(10.8 245.969218) scale(0.1 -0.1)">
       <use xlink:href="#DejaVuSans-30"/>
      </g>
     </g>
    </g>
    <g id="ytick_8">
     <g id="line2d_38">
      <g>
       <use xlink:href="#m75599e1149" x="24.1625" y="205.381721" style="stroke: #000000; stroke-width: 0.8"/>
      </g>
     </g>
     <g id="text_12">
      <!-- 1 -->
      <g transform="translate(10.8 209.18094) scale(0.1 -0.1)">
       <use xlink:href="#DejaVuSans-31"/>
      </g>
     </g>
    </g>
   </g>
   <g id="line2d_39">
    <path d="M 59.648958 232.97293 
L 63.197604 232.605415 
L 66.74625 232.237899 
L 70.294896 231.870384 
L 73.843542 231.502869 
L 77.392187 231.135354 
L 80.940833 230.767838 
L 84.489479 230.400323 
L 88.038125 230.032808 
L 91.586771 229.665292 
L 95.135417 229.297777 
L 98.684062 228.930262 
L 102.232708 228.562747 
L 105.781354 228.195231 
L 109.33 227.827716 
L 112.878646 227.460201 
L 116.427292 227.092686 
L 119.975937 226.72517 
L 123.524583 226.357655 
L 127.073229 225.99014 
L 130.621875 225.622624 
L 134.170521 225.255109 
L 137.719167 224.887594 
L 141.267812 224.520079 
L 144.816458 224.152563 
L 148.365104 223.785048 
L 151.91375 223.417533 
L 155.462396 223.050018 
L 159.011042 222.682502 
L 162.559687 222.314987 
L 166.108333 221.947472 
L 169.656979 221.579957 
L 173.205625 221.212441 
L 176.754271 220.844926 
L 180.302917 220.477411 
L 183.851562 220.109895 
L 187.400208 219.74238 
L 190.948854 219.374865 
L 194.4975 219.00735 
L 198.046146 218.639834 
L 201.594792 218.272319 
L 205.143437 217.904804 
L 208.692083 217.537289 
L 212.240729 217.169773 
L 215.789375 216.802258 
L 219.338021 216.434743 
L 222.886667 216.067228 
L 226.435312 215.699712 
L 229.983958 215.332197 
L 233.532604 214.964682 
L 237.08125 214.597166 
L 240.629896 214.229651 
L 244.178542 213.862136 
L 247.727187 213.494621 
L 251.275833 213.127105 
L 254.824479 212.75959 
L 258.373125 212.392075 
L 261.921771 212.02456 
L 265.470417 211.657044 
L 269.019062 211.289529 
L 272.567708 210.922014 
L 276.116354 210.554499 
L 279.665 210.186983 
L 283.213646 209.819468 
L 286.762292 209.451953 
L 290.310937 209.084437 
L 293.859583 208.716922 
L 297.408229 208.349407 
L 300.956875 207.981892 
L 304.505521 207.614376 
L 308.054167 207.246861 
L 311.602812 206.879346 
L 315.151458 206.511831 
L 318.700104 206.144315 
L 322.24875 205.7768 
L 325.797396 205.409285 
L 329.346042 241.830048 
L 332.894687 241.462533 
L 336.443333 241.095017 
L 339.991979 240.727502 
L 343.540625 240.359987 
L 347.089271 239.992471 
L 350.637917 239.624956 
L 354.186562 239.257441 
L 357.735208 238.889926 
L 361.283854 238.52241 
L 364.8325 238.154895 
L 368.381146 237.78738 
L 371.929792 237.419865 
L 375.478437 237.052349 
L 379.027083 236.684834 
L 382.575729 236.317319 
L 386.124375 235.949804 
L 389.673021 235.582288 
L 393.221667 235.214773 
L 396.770312 234.847258 
L 400.318958 234.479742 
L 403.867604 234.112227 
L 407.41625 233.744712 
L 410.964896 233.377197 
L 414.513542 233.009681 
" clip-path="url(#p8adf560e20)" style="fill: none; stroke: #1f77b4; stroke-width: 1.5; stroke-linecap: square"/>
   </g>
   <g id="patch_21">
    <path d="M 24.1625 245.848827 
L 24.1625 201.702893 
" style="fill: none; stroke: #000000; stroke-width: 0.8; stroke-linejoin: miter; stroke-linecap: square"/>
   </g>
   <g id="patch_22">
    <path d="M 450 245.848827 
L 450 201.702893 
" style="fill: none; stroke: #000000; stroke-width: 0.8; stroke-linejoin: miter; stroke-linecap: square"/>
   </g>
   <g id="patch_23">
    <path d="M 24.1625 245.848827 
L 450 245.848827 
" style="fill: none; stroke: #000000; stroke-width: 0.8; stroke-linejoin: miter; stroke-linecap: square"/>
   </g>
   <g id="patch_24">
    <path d="M 24.1625 201.702893 
L 450 201.702893 
" style="fill: none; stroke: #000000; stroke-width: 0.8; stroke-linejoin: miter; stroke-linecap: square"/>
   </g>
   <g id="legend_4">
    <g id="patch_25">
     <path d="M 376.434375 224.381018 
L 443 224.381018 
Q 445 224.381018 445 222.381018 
L 445 208.702893 
Q 445 206.702893 443 206.702893 
L 376.434375 206.702893 
Q 374.434375 206.702893 374.434375 208.702893 
L 374.434375 222.381018 
Q 374.434375 224.381018 376.434375 224.381018 
z
" style="fill: #ffffff; opacity: 0.8; stroke: #cccccc; stroke-linejoin: miter"/>
    </g>
    <g id="line2d_40">
     <path d="M 378.434375 214.801331 
L 388.434375 214.801331 
L 398.434375 214.801331 
" style="fill: none; stroke: #1f77b4; stroke-width: 1.5; stroke-linecap: square"/>
    </g>
    <g id="text_13">
     <!-- t=0.75 -->
     <g transform="translate(406.434375 218.301331) scale(0.1 -0.1)">
      <defs>
       <path id="DejaVuSans-37" d="M 525 4666 
L 3525 4666 
L 3525 4397 
L 1831 0 
L 1172 0 
L 2766 4134 
L 525 4134 
L 525 4666 
z
" transform="scale(0.015625)"/>
      </defs>
      <use xlink:href="#DejaVuSans-74"/>
      <use xlink:href="#DejaVuSans-3d" x="39.208984"/>
      <use xlink:href="#DejaVuSans-30" x="122.998047"/>
      <use xlink:href="#DejaVuSans-2e" x="186.621094"/>
      <use xlink:href="#DejaVuSans-37" x="218.408203"/>
      <use xlink:href="#DejaVuSans-35" x="282.03125"/>
     </g>
    </g>
   </g>
  </g>
  <g id="axes_5">
   <g id="patch_26">
    <path d="M 24.1625 304.44375 
L 450 304.44375 
L 450 260.297816 
L 24.1625 260.297816 
z
" style="fill: #ffffff"/>
   </g>
   <g id="matplotlib.axis_9">
    <g id="xtick_25">
     <g id="line2d_41">
      <g>
       <use xlink:href="#m954026f037" x="59.648958" y="304.44375" style="stroke: #000000; stroke-width: 0.8"/>
      </g>
     </g>
     <g id="text_14">
      <!-- 0.0 -->
      <g transform="translate(51.697396 319.042187) scale(0.1 -0.1)">
       <use xlink:href="#DejaVuSans-30"/>
       <use xlink:href="#DejaVuSans-2e" x="63.623047"/>
       <use xlink:href="#DejaVuSans-30" x="95.410156"/>
      </g>
     </g>
    </g>
    <g id="xtick_26">
     <g id="line2d_42">
      <g>
       <use xlink:href="#m954026f037" x="130.621875" y="304.44375" style="stroke: #000000; stroke-width: 0.8"/>
      </g>
     </g>
     <g id="text_15">
      <!-- 0.2 -->
      <g transform="translate(122.670312 319.042187) scale(0.1 -0.1)">
       <use xlink:href="#DejaVuSans-30"/>
       <use xlink:href="#DejaVuSans-2e" x="63.623047"/>
       <use xlink:href="#DejaVuSans-32" x="95.410156"/>
      </g>
     </g>
    </g>
    <g id="xtick_27">
     <g id="line2d_43">
      <g>
       <use xlink:href="#m954026f037" x="201.594792" y="304.44375" style="stroke: #000000; stroke-width: 0.8"/>
      </g>
     </g>
     <g id="text_16">
      <!-- 0.4 -->
      <g transform="translate(193.643229 319.042187) scale(0.1 -0.1)">
       <defs>
        <path id="DejaVuSans-34" d="M 2419 4116 
L 825 1625 
L 2419 1625 
L 2419 4116 
z
M 2253 4666 
L 3047 4666 
L 3047 1625 
L 3713 1625 
L 3713 1100 
L 3047 1100 
L 3047 0 
L 2419 0 
L 2419 1100 
L 313 1100 
L 313 1709 
L 2253 4666 
z
" transform="scale(0.015625)"/>
       </defs>
       <use xlink:href="#DejaVuSans-30"/>
       <use xlink:href="#DejaVuSans-2e" x="63.623047"/>
       <use xlink:href="#DejaVuSans-34" x="95.410156"/>
      </g>
     </g>
    </g>
    <g id="xtick_28">
     <g id="line2d_44">
      <g>
       <use xlink:href="#m954026f037" x="272.567708" y="304.44375" style="stroke: #000000; stroke-width: 0.8"/>
      </g>
     </g>
     <g id="text_17">
      <!-- 0.6 -->
      <g transform="translate(264.616146 319.042187) scale(0.1 -0.1)">
       <defs>
        <path id="DejaVuSans-36" d="M 2113 2584 
Q 1688 2584 1439 2293 
Q 1191 2003 1191 1497 
Q 1191 994 1439 701 
Q 1688 409 2113 409 
Q 2538 409 2786 701 
Q 3034 994 3034 1497 
Q 3034 2003 2786 2293 
Q 2538 2584 2113 2584 
z
M 3366 4563 
L 3366 3988 
Q 3128 4100 2886 4159 
Q 2644 4219 2406 4219 
Q 1781 4219 1451 3797 
Q 1122 3375 1075 2522 
Q 1259 2794 1537 2939 
Q 1816 3084 2150 3084 
Q 2853 3084 3261 2657 
Q 3669 2231 3669 1497 
Q 3669 778 3244 343 
Q 2819 -91 2113 -91 
Q 1303 -91 875 529 
Q 447 1150 447 2328 
Q 447 3434 972 4092 
Q 1497 4750 2381 4750 
Q 2619 4750 2861 4703 
Q 3103 4656 3366 4563 
z
" transform="scale(0.015625)"/>
       </defs>
       <use xlink:href="#DejaVuSans-30"/>
       <use xlink:href="#DejaVuSans-2e" x="63.623047"/>
       <use xlink:href="#DejaVuSans-36" x="95.410156"/>
      </g>
     </g>
    </g>
    <g id="xtick_29">
     <g id="line2d_45">
      <g>
       <use xlink:href="#m954026f037" x="343.540625" y="304.44375" style="stroke: #000000; stroke-width: 0.8"/>
      </g>
     </g>
     <g id="text_18">
      <!-- 0.8 -->
      <g transform="translate(335.589062 319.042187) scale(0.1 -0.1)">
       <defs>
        <path id="DejaVuSans-38" d="M 2034 2216 
Q 1584 2216 1326 1975 
Q 1069 1734 1069 1313 
Q 1069 891 1326 650 
Q 1584 409 2034 409 
Q 2484 409 2743 651 
Q 3003 894 3003 1313 
Q 3003 1734 2745 1975 
Q 2488 2216 2034 2216 
z
M 1403 2484 
Q 997 2584 770 2862 
Q 544 3141 544 3541 
Q 544 4100 942 4425 
Q 1341 4750 2034 4750 
Q 2731 4750 3128 4425 
Q 3525 4100 3525 3541 
Q 3525 3141 3298 2862 
Q 3072 2584 2669 2484 
Q 3125 2378 3379 2068 
Q 3634 1759 3634 1313 
Q 3634 634 3220 271 
Q 2806 -91 2034 -91 
Q 1263 -91 848 271 
Q 434 634 434 1313 
Q 434 1759 690 2068 
Q 947 2378 1403 2484 
z
M 1172 3481 
Q 1172 3119 1398 2916 
Q 1625 2713 2034 2713 
Q 2441 2713 2670 2916 
Q 2900 3119 2900 3481 
Q 2900 3844 2670 4047 
Q 2441 4250 2034 4250 
Q 1625 4250 1398 4047 
Q 1172 3844 1172 3481 
z
" transform="scale(0.015625)"/>
       </defs>
       <use xlink:href="#DejaVuSans-30"/>
       <use xlink:href="#DejaVuSans-2e" x="63.623047"/>
       <use xlink:href="#DejaVuSans-38" x="95.410156"/>
      </g>
     </g>
    </g>
    <g id="xtick_30">
     <g id="line2d_46">
      <g>
       <use xlink:href="#m954026f037" x="414.513542" y="304.44375" style="stroke: #000000; stroke-width: 0.8"/>
      </g>
     </g>
     <g id="text_19">
      <!-- 1.0 -->
      <g transform="translate(406.561979 319.042187) scale(0.1 -0.1)">
       <use xlink:href="#DejaVuSans-31"/>
       <use xlink:href="#DejaVuSans-2e" x="63.623047"/>
       <use xlink:href="#DejaVuSans-30" x="95.410156"/>
      </g>
     </g>
    </g>
    <g id="text_20">
     <!-- position -->
     <g transform="translate(217.276562 332.720312) scale(0.1 -0.1)">
      <defs>
       <path id="DejaVuSans-70" d="M 1159 525 
L 1159 -1331 
L 581 -1331 
L 581 3500 
L 1159 3500 
L 1159 2969 
Q 1341 3281 1617 3432 
Q 1894 3584 2278 3584 
Q 2916 3584 3314 3078 
Q 3713 2572 3713 1747 
Q 3713 922 3314 415 
Q 2916 -91 2278 -91 
Q 1894 -91 1617 61 
Q 1341 213 1159 525 
z
M 3116 1747 
Q 3116 2381 2855 2742 
Q 2594 3103 2138 3103 
Q 1681 3103 1420 2742 
Q 1159 2381 1159 1747 
Q 1159 1113 1420 752 
Q 1681 391 2138 391 
Q 2594 391 2855 752 
Q 3116 1113 3116 1747 
z
" transform="scale(0.015625)"/>
       <path id="DejaVuSans-6f" d="M 1959 3097 
Q 1497 3097 1228 2736 
Q 959 2375 959 1747 
Q 959 1119 1226 758 
Q 1494 397 1959 397 
Q 2419 397 2687 759 
Q 2956 1122 2956 1747 
Q 2956 2369 2687 2733 
Q 2419 3097 1959 3097 
z
M 1959 3584 
Q 2709 3584 3137 3096 
Q 3566 2609 3566 1747 
Q 3566 888 3137 398 
Q 2709 -91 1959 -91 
Q 1206 -91 779 398 
Q 353 888 353 1747 
Q 353 2609 779 3096 
Q 1206 3584 1959 3584 
z
" transform="scale(0.015625)"/>
       <path id="DejaVuSans-69" d="M 603 3500 
L 1178 3500 
L 1178 0 
L 603 0 
L 603 3500 
z
M 603 4863 
L 1178 4863 
L 1178 4134 
L 603 4134 
L 603 4863 
z
" transform="scale(0.015625)"/>
       <path id="DejaVuSans-6e" d="M 3513 2113 
L 3513 0 
L 2938 0 
L 2938 2094 
Q 2938 2591 2744 2837 
Q 2550 3084 2163 3084 
Q 1697 3084 1428 2787 
Q 1159 2491 1159 1978 
L 1159 0 
L 581 0 
L 581 3500 
L 1159 3500 
L 1159 2956 
Q 1366 3272 1645 3428 
Q 1925 3584 2291 3584 
Q 2894 3584 3203 3211 
Q 3513 2838 3513 2113 
z
" transform="scale(0.015625)"/>
      </defs>
      <use xlink:href="#DejaVuSans-70"/>
      <use xlink:href="#DejaVuSans-6f" x="63.476562"/>
      <use xlink:href="#DejaVuSans-73" x="124.658203"/>
      <use xlink:href="#DejaVuSans-69" x="176.757812"/>
      <use xlink:href="#DejaVuSans-74" x="204.541016"/>
      <use xlink:href="#DejaVuSans-69" x="243.75"/>
      <use xlink:href="#DejaVuSans-6f" x="271.533203"/>
      <use xlink:href="#DejaVuSans-6e" x="332.714844"/>
     </g>
    </g>
   </g>
   <g id="matplotlib.axis_10">
    <g id="ytick_9">
     <g id="line2d_47">
      <g>
       <use xlink:href="#m75599e1149" x="24.1625" y="300.764922" style="stroke: #000000; stroke-width: 0.8"/>
      </g>
     </g>
     <g id="text_21">
      <!-- 0 -->
      <g transform="translate(10.8 304.564141) scale(0.1 -0.1)">
       <use xlink:href="#DejaVuSans-30"/>
      </g>
     </g>
    </g>
    <g id="ytick_10">
     <g id="line2d_48">
      <g>
       <use xlink:href="#m75599e1149" x="24.1625" y="263.976644" style="stroke: #000000; stroke-width: 0.8"/>
      </g>
     </g>
     <g id="text_22">
      <!-- 1 -->
      <g transform="translate(10.8 267.775863) scale(0.1 -0.1)">
       <use xlink:href="#DejaVuSans-31"/>
      </g>
     </g>
    </g>
   </g>
   <g id="line2d_49">
    <path d="M 59.648958 300.764922 
L 63.197604 300.397407 
L 66.74625 300.029892 
L 70.294896 299.662376 
L 73.843542 299.294861 
L 77.392187 298.927346 
L 80.940833 298.559831 
L 84.489479 298.192315 
L 88.038125 297.8248 
L 91.586771 297.457285 
L 95.135417 297.08977 
L 98.684062 296.722254 
L 102.232708 296.354739 
L 105.781354 295.987224 
L 109.33 295.619708 
L 112.878646 295.252193 
L 116.427292 294.884678 
L 119.975937 294.517163 
L 123.524583 294.149647 
L 127.073229 293.782132 
L 130.621875 293.414617 
L 134.170521 293.047102 
L 137.719167 292.679586 
L 141.267812 292.312071 
L 144.816458 291.944556 
L 148.365104 291.57704 
L 151.91375 291.209525 
L 155.462396 290.84201 
L 159.011042 290.474495 
L 162.559687 290.106979 
L 166.108333 289.739464 
L 169.656979 289.371949 
L 173.205625 289.004434 
L 176.754271 288.636918 
L 180.302917 288.269403 
L 183.851562 287.901888 
L 187.400208 287.534373 
L 190.948854 287.166857 
L 194.4975 286.799342 
L 198.046146 286.431827 
L 201.594792 286.064311 
L 205.143437 285.696796 
L 208.692083 285.329281 
L 212.240729 284.961766 
L 215.789375 284.59425 
L 219.338021 284.226735 
L 222.886667 283.85922 
L 226.435312 283.491705 
L 229.983958 283.124189 
L 233.532604 282.756674 
L 237.08125 282.389159 
L 240.629896 282.021644 
L 244.178542 281.654128 
L 247.727187 281.286613 
L 251.275833 280.919098 
L 254.824479 280.551582 
L 258.373125 280.184067 
L 261.921771 279.816552 
L 265.470417 279.449037 
L 269.019062 279.081521 
L 272.567708 278.714006 
L 276.116354 278.346491 
L 279.665 277.978976 
L 283.213646 277.61146 
L 286.762292 277.243945 
L 290.310937 276.87643 
L 293.859583 276.508915 
L 297.408229 276.141399 
L 300.956875 275.773884 
L 304.505521 275.406369 
L 308.054167 275.038853 
L 311.602812 274.671338 
L 315.151458 274.303823 
L 318.700104 273.936308 
L 322.24875 273.568792 
L 325.797396 273.201277 
L 329.346042 272.833762 
L 332.894687 272.466247 
L 336.443333 272.098731 
L 339.991979 271.731216 
L 343.540625 271.363701 
L 347.089271 270.996186 
L 350.637917 270.62867 
L 354.186562 270.261155 
L 357.735208 269.89364 
L 361.283854 269.526124 
L 364.8325 269.158609 
L 368.381146 268.791094 
L 371.929792 268.423579 
L 375.478437 268.056063 
L 379.027083 267.688548 
L 382.575729 267.321033 
L 386.124375 266.953518 
L 389.673021 266.586002 
L 393.221667 266.218487 
L 396.770312 265.850972 
L 400.318958 265.483457 
L 403.867604 265.115941 
L 407.41625 264.748426 
L 410.964896 264.380911 
L 414.513542 264.013395 
" clip-path="url(#pb11693a063)" style="fill: none; stroke: #1f77b4; stroke-width: 1.5; stroke-linecap: square"/>
   </g>
   <g id="patch_27">
    <path d="M 24.1625 304.44375 
L 24.1625 260.297816 
" style="fill: none; stroke: #000000; stroke-width: 0.8; stroke-linejoin: miter; stroke-linecap: square"/>
   </g>
   <g id="patch_28">
    <path d="M 450 304.44375 
L 450 260.297816 
" style="fill: none; stroke: #000000; stroke-width: 0.8; stroke-linejoin: miter; stroke-linecap: square"/>
   </g>
   <g id="patch_29">
    <path d="M 24.1625 304.44375 
L 450 304.44375 
" style="fill: none; stroke: #000000; stroke-width: 0.8; stroke-linejoin: miter; stroke-linecap: square"/>
   </g>
   <g id="patch_30">
    <path d="M 24.1625 260.297816 
L 450 260.297816 
" style="fill: none; stroke: #000000; stroke-width: 0.8; stroke-linejoin: miter; stroke-linecap: square"/>
   </g>
   <g id="legend_5">
    <g id="patch_31">
     <path d="M 376.434375 282.975941 
L 443 282.975941 
Q 445 282.975941 445 280.975941 
L 445 267.297816 
Q 445 265.297816 443 265.297816 
L 376.434375 265.297816 
Q 374.434375 265.297816 374.434375 267.297816 
L 374.434375 280.975941 
Q 374.434375 282.975941 376.434375 282.975941 
z
" style="fill: #ffffff; opacity: 0.8; stroke: #cccccc; stroke-linejoin: miter"/>
    </g>
    <g id="line2d_50">
     <path d="M 378.434375 273.396254 
L 388.434375 273.396254 
L 398.434375 273.396254 
" style="fill: none; stroke: #1f77b4; stroke-width: 1.5; stroke-linecap: square"/>
    </g>
    <g id="text_23">
     <!-- t=1.00 -->
     <g transform="translate(406.434375 276.896254) scale(0.1 -0.1)">
      <use xlink:href="#DejaVuSans-74"/>
      <use xlink:href="#DejaVuSans-3d" x="39.208984"/>
      <use xlink:href="#DejaVuSans-31" x="122.998047"/>
      <use xlink:href="#DejaVuSans-2e" x="186.621094"/>
      <use xlink:href="#DejaVuSans-30" x="218.408203"/>
      <use xlink:href="#DejaVuSans-30" x="282.03125"/>
     </g>
    </g>
   </g>
  </g>
 </g>
 <defs>
  <clipPath id="p1878404a37">
   <rect x="24.1625" y="25.918125" width="425.8375" height="44.145934"/>
  </clipPath>
  <clipPath id="p38c624aaed">
   <rect x="24.1625" y="84.513048" width="425.8375" height="44.145934"/>
  </clipPath>
  <clipPath id="p02b6261ca9">
   <rect x="24.1625" y="143.107971" width="425.8375" height="44.145934"/>
  </clipPath>
  <clipPath id="p8adf560e20">
   <rect x="24.1625" y="201.702893" width="425.8375" height="44.145934"/>
  </clipPath>
  <clipPath id="pb11693a063">
   <rect x="24.1625" y="260.297816" width="425.8375" height="44.145934"/>
  </clipPath>
 </defs>
</svg>
