<?xml version="1.0" encoding="utf-8" standalone="no"?>
<!DOCTYPE svg PUBLIC "-//W3C//DTD SVG 1.1//EN"
  "http://www.w3.org/Graphics/SVG/1.1/DTD/svg11.dtd">
<svg xmlns:xlink="http://www.w3.org/1999/xlink" width="460.8pt" height="345.6pt" viewBox="0 0 460.8 345.6" xmlns="http://www.w3.org/2000/svg" version="1.1">
 <metadata>
  <rdf:RDF xmlns:dc="http://purl.org/dc/elements/1.1/" xmlns:cc="http://creativecommons.org/ns#" xmlns:rdf="http://www.w3.org/1999/02/22-rdf-syntax-ns#">
   <cc:Work>
    <dc:type rdf:resource="http://purl.org/dc/dcmitype/StillImage"/>
    <dc:date>2025-03-18T20:35:08.837564</dc:date>
    <dc:format>image/svg+xml</dc:format>
    <dc:creator>
     <cc:Agent>
      <dc:title>Matplotlib v3.8.4, https://matplotlib.org/</dc:title>
     </cc:Agent>
    </dc:creator>
   </cc:Work>
  </rdf:RDF>
 </metadata>
 <defs>
  <style type="text/css">*{stroke-linejoin: round; stroke-linecap: butt}</style>
 </defs>
 <g id="figure_1">
  <g id="patch_1">
   <path d="M 0 345.6 
L 460.8 345.6 
L 460.8 0 
L 0 0 
z
" style="fill: #ffffff"/>
  </g>
  <g id="axes_1">
   <g id="patch_2">
    <path d="M 24.1625 70.064059 
L 450 70.064059 
L 450 25.918125 
L 24.1625 25.918125 
z
" style="fill: #ffffff"/>
   </g>
   <g id="matplotlib.axis_1">
    <g id="xtick_1">
     <g id="line2d_1">
      <defs>
       <path id="mabd62791b7" d="M 0 0 
L 0 3.5 
" style="stroke: #000000; stroke-width: 0.8"/>
      </defs>
      <g>
       <use xlink:href="#mabd62791b7" x="59.648958" y="70.064059" style="stroke: #000000; stroke-width: 0.8"/>
      </g>
     </g>
    </g>
    <g id="xtick_2">
     <g id="line2d_2">
      <g>
       <use xlink:href="#mabd62791b7" x="130.621875" y="70.064059" style="stroke: #000000; stroke-width: 0.8"/>
      </g>
     </g>
    </g>
    <g id="xtick_3">
     <g id="line2d_3">
      <g>
       <use xlink:href="#mabd62791b7" x="201.594792" y="70.064059" style="stroke: #000000; stroke-width: 0.8"/>
      </g>
     </g>
    </g>
    <g id="xtick_4">
     <g id="line2d_4">
      <g>
       <use xlink:href="#mabd62791b7" x="272.567708" y="70.064059" style="stroke: #000000; stroke-width: 0.8"/>
      </g>
     </g>
    </g>
    <g id="xtick_5">
     <g id="line2d_5">
      <g>
       <use xlink:href="#mabd62791b7" x="343.540625" y="70.064059" style="stroke: #000000; stroke-width: 0.8"/>
      </g>
     </g>
    </g>
    <g id="xtick_6">
     <g id="line2d_6">
      <g>
       <use xlink:href="#mabd62791b7" x="414.513542" y="70.064059" style="stroke: #000000; stroke-width: 0.8"/>
      </g>
     </g>
    </g>
   </g>
   <g id="matplotlib.axis_2">
    <g id="ytick_1">
     <g id="line2d_7">
      <defs>
       <path id="mae5f3a981a" d="M 0 0 
L -3.5 0 
" style="stroke: #000000; stroke-width: 0.8"/>
      </defs>
      <g>
       <use xlink:href="#mae5f3a981a" x="24.1625" y="66.385231" style="stroke: #000000; stroke-width: 0.8"/>
      </g>
     </g>
     <g id="text_1">
      <!-- 0 -->
      <g transform="translate(10.8 70.18445) scale(0.1 -0.1)">
       <defs>
        <path id="DejaVuSans-30" d="M 2034 4250 
Q 1547 4250 1301 3770 
Q 1056 3291 1056 2328 
Q 1056 1369 1301 889 
Q 1547 409 2034 409 
Q 2525 409 2770 889 
Q 3016 1369 3016 2328 
Q 3016 3291 2770 3770 
Q 2525 4250 2034 4250 
z
M 2034 4750 
Q 2819 4750 3233 4129 
Q 3647 3509 3647 2328 
Q 3647 1150 3233 529 
Q 2819 -91 2034 -91 
Q 1250 -91 836 529 
Q 422 1150 422 2328 
Q 422 3509 836 4129 
Q 1250 4750 2034 4750 
z
" transform="scale(0.015625)"/>
       </defs>
       <use xlink:href="#DejaVuSans-30"/>
      </g>
     </g>
    </g>
    <g id="ytick_2">
     <g id="line2d_8">
      <g>
       <use xlink:href="#mae5f3a981a" x="24.1625" y="29.596953" style="stroke: #000000; stroke-width: 0.8"/>
      </g>
     </g>
     <g id="text_2">
      <!-- 1 -->
      <g transform="translate(10.8 33.396172) scale(0.1 -0.1)">
       <defs>
        <path id="DejaVuSans-31" d="M 794 531 
L 1825 531 
L 1825 4091 
L 703 3866 
L 703 4441 
L 1819 4666 
L 2450 4666 
L 2450 531 
L 3481 531 
L 3481 0 
L 794 0 
L 794 531 
z
" transform="scale(0.015625)"/>
       </defs>
       <use xlink:href="#DejaVuSans-31"/>
      </g>
     </g>
    </g>
   </g>
   <g id="line2d_9">
    <path d="M 59.648958 47.991092 
L 63.197604 49.14607 
L 66.74625 50.296489 
L 70.294896 51.43781 
L 73.843542 52.565528 
L 77.392187 53.675194 
L 80.940833 54.762426 
L 84.489479 55.822935 
L 88.038125 56.852536 
L 91.586771 57.847165 
L 95.135417 58.802896 
L 98.684062 59.715958 
L 102.232708 60.582747 
L 105.781354 61.399842 
L 109.33 62.16402 
L 112.878646 62.872263 
L 116.427292 63.521777 
L 119.975937 64.109999 
L 123.524583 64.634607 
L 127.073229 65.09353 
L 130.621875 65.484958 
L 134.170521 65.807345 
L 137.719167 66.05942 
L 141.267812 66.240188 
L 144.816458 66.348934 
L 148.365104 66.385231 
L 151.91375 66.348934 
L 155.462396 66.240188 
L 159.011042 66.05942 
L 162.559687 65.807345 
L 166.108333 65.484958 
L 169.656979 65.09353 
L 173.205625 64.634607 
L 176.754271 64.109999 
L 180.302917 63.521777 
L 183.851562 62.872263 
L 187.400208 62.16402 
L 190.948854 61.399842 
L 194.4975 60.582747 
L 198.046146 59.715958 
L 201.594792 58.802896 
L 205.143437 57.847165 
L 208.692083 56.852536 
L 212.240729 55.822935 
L 215.789375 54.762426 
L 219.338021 53.675194 
L 222.886667 52.565528 
L 226.435312 51.43781 
L 229.983958 50.296489 
L 233.532604 49.14607 
L 237.08125 47.991092 
L 240.629896 46.836114 
L 244.178542 45.685695 
L 247.727187 44.544374 
L 251.275833 43.416656 
L 254.824479 42.30699 
L 258.373125 41.219758 
L 261.921771 40.159248 
L 265.470417 39.129648 
L 269.019062 38.135019 
L 272.567708 37.179288 
L 276.116354 36.266226 
L 279.665 35.399437 
L 283.213646 34.582342 
L 286.762292 33.818164 
L 290.310937 33.109921 
L 293.859583 32.460407 
L 297.408229 31.872185 
L 300.956875 31.347577 
L 304.505521 30.888654 
L 308.054167 30.497226 
L 311.602812 30.174839 
L 315.151458 29.922764 
L 318.700104 29.741996 
L 322.24875 29.633249 
L 325.797396 29.596953 
L 329.346042 29.633249 
L 332.894687 29.741996 
L 336.443333 29.922764 
L 339.991979 30.174839 
L 343.540625 30.497226 
L 347.089271 30.888654 
L 350.637917 31.347577 
L 354.186562 31.872185 
L 357.735208 32.460407 
L 361.283854 33.109921 
L 364.8325 33.818164 
L 368.381146 34.582342 
L 371.929792 35.399437 
L 375.478437 36.266226 
L 379.027083 37.179288 
L 382.575729 38.135019 
L 386.124375 39.129648 
L 389.673021 40.159248 
L 393.221667 41.219758 
L 396.770312 42.30699 
L 400.318958 43.416656 
L 403.867604 44.544374 
L 407.41625 45.685695 
L 410.964896 46.836114 
L 414.513542 47.991092 
" clip-path="url(#p38756fe0a1)" style="fill: none; stroke: #1f77b4; stroke-width: 1.5; stroke-linecap: square"/>
   </g>
   <g id="patch_3">
    <path d="M 24.1625 70.064059 
L 24.1625 25.918125 
" style="fill: none; stroke: #000000; stroke-width: 0.8; stroke-linejoin: miter; stroke-linecap: square"/>
   </g>
   <g id="patch_4">
    <path d="M 450 70.064059 
L 450 25.918125 
" style="fill: none; stroke: #000000; stroke-width: 0.8; stroke-linejoin: miter; stroke-linecap: square"/>
   </g>
   <g id="patch_5">
    <path d="M 24.1625 70.064059 
L 450 70.064059 
" style="fill: none; stroke: #000000; stroke-width: 0.8; stroke-linejoin: miter; stroke-linecap: square"/>
   </g>
   <g id="patch_6">
    <path d="M 24.1625 25.918125 
L 450 25.918125 
" style="fill: none; stroke: #000000; stroke-width: 0.8; stroke-linejoin: miter; stroke-linecap: square"/>
   </g>
   <g id="text_3">
    <!-- sin -->
    <g transform="translate(228.48625 19.918125) scale(0.12 -0.12)">
     <defs>
      <path id="DejaVuSans-73" d="M 2834 3397 
L 2834 2853 
Q 2591 2978 2328 3040 
Q 2066 3103 1784 3103 
Q 1356 3103 1142 2972 
Q 928 2841 928 2578 
Q 928 2378 1081 2264 
Q 1234 2150 1697 2047 
L 1894 2003 
Q 2506 1872 2764 1633 
Q 3022 1394 3022 966 
Q 3022 478 2636 193 
Q 2250 -91 1575 -91 
Q 1294 -91 989 -36 
Q 684 19 347 128 
L 347 722 
Q 666 556 975 473 
Q 1284 391 1588 391 
Q 1994 391 2212 530 
Q 2431 669 2431 922 
Q 2431 1156 2273 1281 
Q 2116 1406 1581 1522 
L 1381 1569 
Q 847 1681 609 1914 
Q 372 2147 372 2553 
Q 372 3047 722 3315 
Q 1072 3584 1716 3584 
Q 2034 3584 2315 3537 
Q 2597 3491 2834 3397 
z
" transform="scale(0.015625)"/>
      <path id="DejaVuSans-69" d="M 603 3500 
L 1178 3500 
L 1178 0 
L 603 0 
L 603 3500 
z
M 603 4863 
L 1178 4863 
L 1178 4134 
L 603 4134 
L 603 4863 
z
" transform="scale(0.015625)"/>
      <path id="DejaVuSans-6e" d="M 3513 2113 
L 3513 0 
L 2938 0 
L 2938 2094 
Q 2938 2591 2744 2837 
Q 2550 3084 2163 3084 
Q 1697 3084 1428 2787 
Q 1159 2491 1159 1978 
L 1159 0 
L 581 0 
L 581 3500 
L 1159 3500 
L 1159 2956 
Q 1366 3272 1645 3428 
Q 1925 3584 2291 3584 
Q 2894 3584 3203 3211 
Q 3513 2838 3513 2113 
z
" transform="scale(0.015625)"/>
     </defs>
     <use xlink:href="#DejaVuSans-73"/>
     <use xlink:href="#DejaVuSans-69" x="52.099609"/>
     <use xlink:href="#DejaVuSans-6e" x="79.882812"/>
    </g>
   </g>
   <g id="legend_1">
    <g id="patch_7">
     <path d="M 376.434375 48.59625 
L 443 48.59625 
Q 445 48.59625 445 46.59625 
L 445 32.918125 
Q 445 30.918125 443 30.918125 
L 376.434375 30.918125 
Q 374.434375 30.918125 374.434375 32.918125 
L 374.434375 46.59625 
Q 374.434375 48.59625 376.434375 48.59625 
z
" style="fill: #ffffff; opacity: 0.8; stroke: #cccccc; stroke-linejoin: miter"/>
    </g>
    <g id="line2d_10">
     <path d="M 378.434375 39.016563 
L 388.434375 39.016563 
L 398.434375 39.016563 
" style="fill: none; stroke: #1f77b4; stroke-width: 1.5; stroke-linecap: square"/>
    </g>
    <g id="text_4">
     <!-- t=0.00 -->
     <g transform="translate(406.434375 42.516563) scale(0.1 -0.1)">
      <defs>
       <path id="DejaVuSans-74" d="M 1172 4494 
L 1172 3500 
L 2356 3500 
L 2356 3053 
L 1172 3053 
L 1172 1153 
Q 1172 725 1289 603 
Q 1406 481 1766 481 
L 2356 481 
L 2356 0 
L 1766 0 
Q 1100 0 847 248 
Q 594 497 594 1153 
L 594 3053 
L 172 3053 
L 172 3500 
L 594 3500 
L 594 4494 
L 1172 4494 
z
" transform="scale(0.015625)"/>
       <path id="DejaVuSans-3d" d="M 678 2906 
L 4684 2906 
L 4684 2381 
L 678 2381 
L 678 2906 
z
M 678 1631 
L 4684 1631 
L 4684 1100 
L 678 1100 
L 678 1631 
z
" transform="scale(0.015625)"/>
       <path id="DejaVuSans-2e" d="M 684 794 
L 1344 794 
L 1344 0 
L 684 0 
L 684 794 
z
" transform="scale(0.015625)"/>
      </defs>
      <use xlink:href="#DejaVuSans-74"/>
      <use xlink:href="#DejaVuSans-3d" x="39.208984"/>
      <use xlink:href="#DejaVuSans-30" x="122.998047"/>
      <use xlink:href="#DejaVuSans-2e" x="186.621094"/>
      <use xlink:href="#DejaVuSans-30" x="218.408203"/>
      <use xlink:href="#DejaVuSans-30" x="282.03125"/>
     </g>
    </g>
   </g>
  </g>
  <g id="axes_2">
   <g id="patch_8">
    <path d="M 24.1625 128.658982 
L 450 128.658982 
L 450 84.513048 
L 24.1625 84.513048 
z
" style="fill: #ffffff"/>
   </g>
   <g id="matplotlib.axis_3">
    <g id="xtick_7">
     <g id="line2d_11">
      <g>
       <use xlink:href="#mabd62791b7" x="59.648958" y="128.658982" style="stroke: #000000; stroke-width: 0.8"/>
      </g>
     </g>
    </g>
    <g id="xtick_8">
     <g id="line2d_12">
      <g>
       <use xlink:href="#mabd62791b7" x="130.621875" y="128.658982" style="stroke: #000000; stroke-width: 0.8"/>
      </g>
     </g>
    </g>
    <g id="xtick_9">
     <g id="line2d_13">
      <g>
       <use xlink:href="#mabd62791b7" x="201.594792" y="128.658982" style="stroke: #000000; stroke-width: 0.8"/>
      </g>
     </g>
    </g>
    <g id="xtick_10">
     <g id="line2d_14">
      <g>
       <use xlink:href="#mabd62791b7" x="272.567708" y="128.658982" style="stroke: #000000; stroke-width: 0.8"/>
      </g>
     </g>
    </g>
    <g id="xtick_11">
     <g id="line2d_15">
      <g>
       <use xlink:href="#mabd62791b7" x="343.540625" y="128.658982" style="stroke: #000000; stroke-width: 0.8"/>
      </g>
     </g>
    </g>
    <g id="xtick_12">
     <g id="line2d_16">
      <g>
       <use xlink:href="#mabd62791b7" x="414.513542" y="128.658982" style="stroke: #000000; stroke-width: 0.8"/>
      </g>
     </g>
    </g>
   </g>
   <g id="matplotlib.axis_4">
    <g id="ytick_3">
     <g id="line2d_17">
      <g>
       <use xlink:href="#mae5f3a981a" x="24.1625" y="124.980154" style="stroke: #000000; stroke-width: 0.8"/>
      </g>
     </g>
     <g id="text_5">
      <!-- 0 -->
      <g transform="translate(10.8 128.779373) scale(0.1 -0.1)">
       <use xlink:href="#DejaVuSans-30"/>
      </g>
     </g>
    </g>
    <g id="ytick_4">
     <g id="line2d_18">
      <g>
       <use xlink:href="#mae5f3a981a" x="24.1625" y="88.191876" style="stroke: #000000; stroke-width: 0.8"/>
      </g>
     </g>
     <g id="text_6">
      <!-- 1 -->
      <g transform="translate(10.8 91.991094) scale(0.1 -0.1)">
       <use xlink:href="#DejaVuSans-31"/>
      </g>
     </g>
    </g>
   </g>
   <g id="line2d_19">
    <path d="M 59.648958 88.191876 
L 63.197604 88.228172 
L 66.74625 88.336919 
L 70.294896 88.517686 
L 73.843542 88.769761 
L 77.392187 89.092149 
L 80.940833 89.483577 
L 84.489479 89.9425 
L 88.038125 90.467108 
L 91.586771 91.055329 
L 95.135417 91.704844 
L 98.684062 92.413087 
L 102.232708 93.177264 
L 105.781354 93.99436 
L 109.33 94.861149 
L 112.878646 95.774211 
L 116.427292 96.729942 
L 119.975937 97.724571 
L 123.524583 98.754171 
L 127.073229 99.81468 
L 130.621875 100.901913 
L 134.170521 102.011578 
L 137.719167 103.139297 
L 141.267812 104.280618 
L 144.816458 105.431037 
L 148.365104 106.586015 
L 151.91375 107.740992 
L 155.462396 108.891412 
L 159.011042 110.032733 
L 162.559687 111.160451 
L 166.108333 112.270116 
L 169.656979 113.357349 
L 173.205625 114.417858 
L 176.754271 115.447459 
L 180.302917 116.442087 
L 183.851562 117.397818 
L 187.400208 118.31088 
L 190.948854 119.177669 
L 194.4975 119.994765 
L 198.046146 120.758943 
L 201.594792 121.467186 
L 205.143437 122.1167 
L 208.692083 122.704922 
L 212.240729 123.229529 
L 215.789375 123.688453 
L 219.338021 124.079881 
L 222.886667 124.402268 
L 226.435312 124.654343 
L 229.983958 124.835111 
L 233.532604 124.943857 
L 237.08125 124.980154 
L 240.629896 124.943857 
L 244.178542 124.835111 
L 247.727187 124.654343 
L 251.275833 124.402268 
L 254.824479 124.079881 
L 258.373125 123.688453 
L 261.921771 123.229529 
L 265.470417 122.704922 
L 269.019062 122.1167 
L 272.567708 121.467186 
L 276.116354 120.758943 
L 279.665 119.994765 
L 283.213646 119.177669 
L 286.762292 118.31088 
L 290.310937 117.397818 
L 293.859583 116.442087 
L 297.408229 115.447459 
L 300.956875 114.417858 
L 304.505521 113.357349 
L 308.054167 112.270116 
L 311.602812 111.160451 
L 315.151458 110.032733 
L 318.700104 108.891412 
L 322.24875 107.740992 
L 325.797396 106.586015 
L 329.346042 105.431037 
L 332.894687 104.280618 
L 336.443333 103.139297 
L 339.991979 102.011578 
L 343.540625 100.901913 
L 347.089271 99.81468 
L 350.637917 98.754171 
L 354.186562 97.724571 
L 357.735208 96.729942 
L 361.283854 95.774211 
L 364.8325 94.861149 
L 368.381146 93.99436 
L 371.929792 93.177264 
L 375.478437 92.413087 
L 379.027083 91.704844 
L 382.575729 91.055329 
L 386.124375 90.467108 
L 389.673021 89.9425 
L 393.221667 89.483577 
L 396.770312 89.092149 
L 400.318958 88.769761 
L 403.867604 88.517686 
L 407.41625 88.336919 
L 410.964896 88.228172 
L 414.513542 88.191876 
" clip-path="url(#pbdc4a1b0df)" style="fill: none; stroke: #1f77b4; stroke-width: 1.5; stroke-linecap: square"/>
   </g>
   <g id="patch_9">
    <path d="M 24.1625 128.658982 
L 24.1625 84.513048 
" style="fill: none; stroke: #000000; stroke-width: 0.8; stroke-linejoin: miter; stroke-linecap: square"/>
   </g>
   <g id="patch_10">
    <path d="M 450 128.658982 
L 450 84.513048 
" style="fill: none; stroke: #000000; stroke-width: 0.8; stroke-linejoin: miter; stroke-linecap: square"/>
   </g>
   <g id="patch_11">
    <path d="M 24.1625 128.658982 
L 450 128.658982 
" style="fill: none; stroke: #000000; stroke-width: 0.8; stroke-linejoin: miter; stroke-linecap: square"/>
   </g>
   <g id="patch_12">
    <path d="M 24.1625 84.513048 
L 450 84.513048 
" style="fill: none; stroke: #000000; stroke-width: 0.8; stroke-linejoin: miter; stroke-linecap: square"/>
   </g>
   <g id="legend_2">
    <g id="patch_13">
     <path d="M 376.434375 107.191173 
L 443 107.191173 
Q 445 107.191173 445 105.191173 
L 445 91.513048 
Q 445 89.513048 443 89.513048 
L 376.434375 89.513048 
Q 374.434375 89.513048 374.434375 91.513048 
L 374.434375 105.191173 
Q 374.434375 107.191173 376.434375 107.191173 
z
" style="fill: #ffffff; opacity: 0.8; stroke: #cccccc; stroke-linejoin: miter"/>
    </g>
    <g id="line2d_20">
     <path d="M 378.434375 97.611485 
L 388.434375 97.611485 
L 398.434375 97.611485 
" style="fill: none; stroke: #1f77b4; stroke-width: 1.5; stroke-linecap: square"/>
    </g>
    <g id="text_7">
     <!-- t=0.25 -->
     <g transform="translate(406.434375 101.111485) scale(0.1 -0.1)">
      <defs>
       <path id="DejaVuSans-32" d="M 1228 531 
L 3431 531 
L 3431 0 
L 469 0 
L 469 531 
Q 828 903 1448 1529 
Q 2069 2156 2228 2338 
Q 2531 2678 2651 2914 
Q 2772 3150 2772 3378 
Q 2772 3750 2511 3984 
Q 2250 4219 1831 4219 
Q 1534 4219 1204 4116 
Q 875 4013 500 3803 
L 500 4441 
Q 881 4594 1212 4672 
Q 1544 4750 1819 4750 
Q 2544 4750 2975 4387 
Q 3406 4025 3406 3419 
Q 3406 3131 3298 2873 
Q 3191 2616 2906 2266 
Q 2828 2175 2409 1742 
Q 1991 1309 1228 531 
z
" transform="scale(0.015625)"/>
       <path id="DejaVuSans-35" d="M 691 4666 
L 3169 4666 
L 3169 4134 
L 1269 4134 
L 1269 2991 
Q 1406 3038 1543 3061 
Q 1681 3084 1819 3084 
Q 2600 3084 3056 2656 
Q 3513 2228 3513 1497 
Q 3513 744 3044 326 
Q 2575 -91 1722 -91 
Q 1428 -91 1123 -41 
Q 819 9 494 109 
L 494 744 
Q 775 591 1075 516 
Q 1375 441 1709 441 
Q 2250 441 2565 725 
Q 2881 1009 2881 1497 
Q 2881 1984 2565 2268 
Q 2250 2553 1709 2553 
Q 1456 2553 1204 2497 
Q 953 2441 691 2322 
L 691 4666 
z
" transform="scale(0.015625)"/>
      </defs>
      <use xlink:href="#DejaVuSans-74"/>
      <use xlink:href="#DejaVuSans-3d" x="39.208984"/>
      <use xlink:href="#DejaVuSans-30" x="122.998047"/>
      <use xlink:href="#DejaVuSans-2e" x="186.621094"/>
      <use xlink:href="#DejaVuSans-32" x="218.408203"/>
      <use xlink:href="#DejaVuSans-35" x="282.03125"/>
     </g>
    </g>
   </g>
  </g>
  <g id="axes_3">
   <g id="patch_14">
    <path d="M 24.1625 187.253904 
L 450 187.253904 
L 450 143.107971 
L 24.1625 143.107971 
z
" style="fill: #ffffff"/>
   </g>
   <g id="matplotlib.axis_5">
    <g id="xtick_13">
     <g id="line2d_21">
      <g>
       <use xlink:href="#mabd62791b7" x="59.648958" y="187.253904" style="stroke: #000000; stroke-width: 0.8"/>
      </g>
     </g>
    </g>
    <g id="xtick_14">
     <g id="line2d_22">
      <g>
       <use xlink:href="#mabd62791b7" x="130.621875" y="187.253904" style="stroke: #000000; stroke-width: 0.8"/>
      </g>
     </g>
    </g>
    <g id="xtick_15">
     <g id="line2d_23">
      <g>
       <use xlink:href="#mabd62791b7" x="201.594792" y="187.253904" style="stroke: #000000; stroke-width: 0.8"/>
      </g>
     </g>
    </g>
    <g id="xtick_16">
     <g id="line2d_24">
      <g>
       <use xlink:href="#mabd62791b7" x="272.567708" y="187.253904" style="stroke: #000000; stroke-width: 0.8"/>
      </g>
     </g>
    </g>
    <g id="xtick_17">
     <g id="line2d_25">
      <g>
       <use xlink:href="#mabd62791b7" x="343.540625" y="187.253904" style="stroke: #000000; stroke-width: 0.8"/>
      </g>
     </g>
    </g>
    <g id="xtick_18">
     <g id="line2d_26">
      <g>
       <use xlink:href="#mabd62791b7" x="414.513542" y="187.253904" style="stroke: #000000; stroke-width: 0.8"/>
      </g>
     </g>
    </g>
   </g>
   <g id="matplotlib.axis_6">
    <g id="ytick_5">
     <g id="line2d_27">
      <g>
       <use xlink:href="#mae5f3a981a" x="24.1625" y="183.575077" style="stroke: #000000; stroke-width: 0.8"/>
      </g>
     </g>
     <g id="text_8">
      <!-- 0 -->
      <g transform="translate(10.8 187.374295) scale(0.1 -0.1)">
       <use xlink:href="#DejaVuSans-30"/>
      </g>
     </g>
    </g>
    <g id="ytick_6">
     <g id="line2d_28">
      <g>
       <use xlink:href="#mae5f3a981a" x="24.1625" y="146.786798" style="stroke: #000000; stroke-width: 0.8"/>
      </g>
     </g>
     <g id="text_9">
      <!-- 1 -->
      <g transform="translate(10.8 150.586017) scale(0.1 -0.1)">
       <use xlink:href="#DejaVuSans-31"/>
      </g>
     </g>
    </g>
   </g>
   <g id="line2d_29">
    <path d="M 59.648958 165.180937 
L 63.197604 164.02596 
L 66.74625 162.875541 
L 70.294896 161.73422 
L 73.843542 160.606501 
L 77.392187 159.496836 
L 80.940833 158.409603 
L 84.489479 157.349094 
L 88.038125 156.319493 
L 91.586771 155.324865 
L 95.135417 154.369134 
L 98.684062 153.456072 
L 102.232708 152.589283 
L 105.781354 151.772187 
L 109.33 151.00801 
L 112.878646 150.299766 
L 116.427292 149.650252 
L 119.975937 149.062031 
L 123.524583 148.537423 
L 127.073229 148.078499 
L 130.621875 147.687072 
L 134.170521 147.364684 
L 137.719167 147.112609 
L 141.267812 146.931842 
L 144.816458 146.823095 
L 148.365104 146.786798 
L 151.91375 146.823095 
L 155.462396 146.931842 
L 159.011042 147.112609 
L 162.559687 147.364684 
L 166.108333 147.687072 
L 169.656979 148.078499 
L 173.205625 148.537423 
L 176.754271 149.062031 
L 180.302917 149.650252 
L 183.851562 150.299766 
L 187.400208 151.00801 
L 190.948854 151.772187 
L 194.4975 152.589283 
L 198.046146 153.456072 
L 201.594792 154.369134 
L 205.143437 155.324865 
L 208.692083 156.319493 
L 212.240729 157.349094 
L 215.789375 158.409603 
L 219.338021 159.496836 
L 222.886667 160.606501 
L 226.435312 161.73422 
L 229.983958 162.875541 
L 233.532604 164.02596 
L 237.08125 165.180937 
L 240.629896 166.335915 
L 244.178542 167.486334 
L 247.727187 168.627655 
L 251.275833 169.755374 
L 254.824479 170.865039 
L 258.373125 171.952272 
L 261.921771 173.012781 
L 265.470417 174.042382 
L 269.019062 175.03701 
L 272.567708 175.992741 
L 276.116354 176.905803 
L 279.665 177.772592 
L 283.213646 178.589688 
L 286.762292 179.353865 
L 290.310937 180.062109 
L 293.859583 180.711623 
L 297.408229 181.299844 
L 300.956875 181.824452 
L 304.505521 182.283376 
L 308.054167 182.674803 
L 311.602812 182.997191 
L 315.151458 183.249266 
L 318.700104 183.430033 
L 322.24875 183.53878 
L 325.797396 183.575077 
L 329.346042 183.53878 
L 332.894687 183.430033 
L 336.443333 183.249266 
L 339.991979 182.997191 
L 343.540625 182.674803 
L 347.089271 182.283376 
L 350.637917 181.824452 
L 354.186562 181.299844 
L 357.735208 180.711623 
L 361.283854 180.062109 
L 364.8325 179.353865 
L 368.381146 178.589688 
L 371.929792 177.772592 
L 375.478437 176.905803 
L 379.027083 175.992741 
L 382.575729 175.03701 
L 386.124375 174.042382 
L 389.673021 173.012781 
L 393.221667 171.952272 
L 396.770312 170.865039 
L 400.318958 169.755374 
L 403.867604 168.627655 
L 407.41625 167.486334 
L 410.964896 166.335915 
L 414.513542 165.180937 
" clip-path="url(#p48746e48b9)" style="fill: none; stroke: #1f77b4; stroke-width: 1.5; stroke-linecap: square"/>
   </g>
   <g id="patch_15">
    <path d="M 24.1625 187.253904 
L 24.1625 143.107971 
" style="fill: none; stroke: #000000; stroke-width: 0.8; stroke-linejoin: miter; stroke-linecap: square"/>
   </g>
   <g id="patch_16">
    <path d="M 450 187.253904 
L 450 143.107971 
" style="fill: none; stroke: #000000; stroke-width: 0.8; stroke-linejoin: miter; stroke-linecap: square"/>
   </g>
   <g id="patch_17">
    <path d="M 24.1625 187.253904 
L 450 187.253904 
" style="fill: none; stroke: #000000; stroke-width: 0.8; stroke-linejoin: miter; stroke-linecap: square"/>
   </g>
   <g id="patch_18">
    <path d="M 24.1625 143.107971 
L 450 143.107971 
" style="fill: none; stroke: #000000; stroke-width: 0.8; stroke-linejoin: miter; stroke-linecap: square"/>
   </g>
   <g id="legend_3">
    <g id="patch_19">
     <path d="M 376.434375 165.786096 
L 443 165.786096 
Q 445 165.786096 445 163.786096 
L 445 150.107971 
Q 445 148.107971 443 148.107971 
L 376.434375 148.107971 
Q 374.434375 148.107971 374.434375 150.107971 
L 374.434375 163.786096 
Q 374.434375 165.786096 376.434375 165.786096 
z
" style="fill: #ffffff; opacity: 0.8; stroke: #cccccc; stroke-linejoin: miter"/>
    </g>
    <g id="line2d_30">
     <path d="M 378.434375 156.206408 
L 388.434375 156.206408 
L 398.434375 156.206408 
" style="fill: none; stroke: #1f77b4; stroke-width: 1.5; stroke-linecap: square"/>
    </g>
    <g id="text_10">
     <!-- t=0.50 -->
     <g transform="translate(406.434375 159.706408) scale(0.1 -0.1)">
      <use xlink:href="#DejaVuSans-74"/>
      <use xlink:href="#DejaVuSans-3d" x="39.208984"/>
      <use xlink:href="#DejaVuSans-30" x="122.998047"/>
      <use xlink:href="#DejaVuSans-2e" x="186.621094"/>
      <use xlink:href="#DejaVuSans-35" x="218.408203"/>
      <use xlink:href="#DejaVuSans-30" x="282.03125"/>
     </g>
    </g>
   </g>
  </g>
  <g id="axes_4">
   <g id="patch_20">
    <path d="M 24.1625 245.848827 
L 450 245.848827 
L 450 201.702893 
L 24.1625 201.702893 
z
" style="fill: #ffffff"/>
   </g>
   <g id="matplotlib.axis_7">
    <g id="xtick_19">
     <g id="line2d_31">
      <g>
       <use xlink:href="#mabd62791b7" x="59.648958" y="245.848827" style="stroke: #000000; stroke-width: 0.8"/>
      </g>
     </g>
    </g>
    <g id="xtick_20">
     <g id="line2d_32">
      <g>
       <use xlink:href="#mabd62791b7" x="130.621875" y="245.848827" style="stroke: #000000; stroke-width: 0.8"/>
      </g>
     </g>
    </g>
    <g id="xtick_21">
     <g id="line2d_33">
      <g>
       <use xlink:href="#mabd62791b7" x="201.594792" y="245.848827" style="stroke: #000000; stroke-width: 0.8"/>
      </g>
     </g>
    </g>
    <g id="xtick_22">
     <g id="line2d_34">
      <g>
       <use xlink:href="#mabd62791b7" x="272.567708" y="245.848827" style="stroke: #000000; stroke-width: 0.8"/>
      </g>
     </g>
    </g>
    <g id="xtick_23">
     <g id="line2d_35">
      <g>
       <use xlink:href="#mabd62791b7" x="343.540625" y="245.848827" style="stroke: #000000; stroke-width: 0.8"/>
      </g>
     </g>
    </g>
    <g id="xtick_24">
     <g id="line2d_36">
      <g>
       <use xlink:href="#mabd62791b7" x="414.513542" y="245.848827" style="stroke: #000000; stroke-width: 0.8"/>
      </g>
     </g>
    </g>
   </g>
   <g id="matplotlib.axis_8">
    <g id="ytick_7">
     <g id="line2d_37">
      <g>
       <use xlink:href="#mae5f3a981a" x="24.1625" y="242.169999" style="stroke: #000000; stroke-width: 0.8"/>
      </g>
     </g>
     <g id="text_11">
      <!-- 0 -->
      <g transform="translate(10.8 245.969218) scale(0.1 -0.1)">
       <use xlink:href="#DejaVuSans-30"/>
      </g>
     </g>
    </g>
    <g id="ytick_8">
     <g id="line2d_38">
      <g>
       <use xlink:href="#mae5f3a981a" x="24.1625" y="205.381721" style="stroke: #000000; stroke-width: 0.8"/>
      </g>
     </g>
     <g id="text_12">
      <!-- 1 -->
      <g transform="translate(10.8 209.18094) scale(0.1 -0.1)">
       <use xlink:href="#DejaVuSans-31"/>
      </g>
     </g>
    </g>
   </g>
   <g id="line2d_39">
    <path d="M 59.648958 242.169999 
L 63.197604 242.133703 
L 66.74625 242.024956 
L 70.294896 241.844189 
L 73.843542 241.592114 
L 77.392187 241.269726 
L 80.940833 240.878298 
L 84.489479 240.419375 
L 88.038125 239.894767 
L 91.586771 239.306546 
L 95.135417 238.657031 
L 98.684062 237.948788 
L 102.232708 237.184611 
L 105.781354 236.367515 
L 109.33 235.500726 
L 112.878646 234.587664 
L 116.427292 233.631933 
L 119.975937 232.637304 
L 123.524583 231.607704 
L 127.073229 230.547195 
L 130.621875 229.459962 
L 134.170521 228.350297 
L 137.719167 227.222578 
L 141.267812 226.081257 
L 144.816458 224.930838 
L 148.365104 223.77586 
L 151.91375 222.620883 
L 155.462396 221.470463 
L 159.011042 220.329142 
L 162.559687 219.201424 
L 166.108333 218.091759 
L 169.656979 217.004526 
L 173.205625 215.944017 
L 176.754271 214.914416 
L 180.302917 213.919788 
L 183.851562 212.964057 
L 187.400208 212.050995 
L 190.948854 211.184206 
L 194.4975 210.36711 
L 198.046146 209.602932 
L 201.594792 208.894689 
L 205.143437 208.245175 
L 208.692083 207.656953 
L 212.240729 207.132346 
L 215.789375 206.673422 
L 219.338021 206.281994 
L 222.886667 205.959607 
L 226.435312 205.707532 
L 229.983958 205.526764 
L 233.532604 205.418018 
L 237.08125 205.381721 
L 240.629896 205.418018 
L 244.178542 205.526764 
L 247.727187 205.707532 
L 251.275833 205.959607 
L 254.824479 206.281994 
L 258.373125 206.673422 
L 261.921771 207.132346 
L 265.470417 207.656953 
L 269.019062 208.245175 
L 272.567708 208.894689 
L 276.116354 209.602932 
L 279.665 210.36711 
L 283.213646 211.184206 
L 286.762292 212.050995 
L 290.310937 212.964057 
L 293.859583 213.919788 
L 297.408229 214.914416 
L 300.956875 215.944017 
L 304.505521 217.004526 
L 308.054167 218.091759 
L 311.602812 219.201424 
L 315.151458 220.329142 
L 318.700104 221.470463 
L 322.24875 222.620883 
L 325.797396 223.77586 
L 329.346042 224.930838 
L 332.894687 226.081257 
L 336.443333 227.222578 
L 339.991979 228.350297 
L 343.540625 229.459962 
L 347.089271 230.547195 
L 350.637917 231.607704 
L 354.186562 232.637304 
L 357.735208 233.631933 
L 361.283854 234.587664 
L 364.8325 235.500726 
L 368.381146 236.367515 
L 371.929792 237.184611 
L 375.478437 237.948788 
L 379.027083 238.657031 
L 382.575729 239.306546 
L 386.124375 239.894767 
L 389.673021 240.419375 
L 393.221667 240.878298 
L 396.770312 241.269726 
L 400.318958 241.592114 
L 403.867604 241.844189 
L 407.41625 242.024956 
L 410.964896 242.133703 
L 414.513542 242.169999 
" clip-path="url(#p9e8a6dbfa8)" style="fill: none; stroke: #1f77b4; stroke-width: 1.5; stroke-linecap: square"/>
   </g>
   <g id="patch_21">
    <path d="M 24.1625 245.848827 
L 24.1625 201.702893 
" style="fill: none; stroke: #000000; stroke-width: 0.8; stroke-linejoin: miter; stroke-linecap: square"/>
   </g>
   <g id="patch_22">
    <path d="M 450 245.848827 
L 450 201.702893 
" style="fill: none; stroke: #000000; stroke-width: 0.8; stroke-linejoin: miter; stroke-linecap: square"/>
   </g>
   <g id="patch_23">
    <path d="M 24.1625 245.848827 
L 450 245.848827 
" style="fill: none; stroke: #000000; stroke-width: 0.8; stroke-linejoin: miter; stroke-linecap: square"/>
   </g>
   <g id="patch_24">
    <path d="M 24.1625 201.702893 
L 450 201.702893 
" style="fill: none; stroke: #000000; stroke-width: 0.8; stroke-linejoin: miter; stroke-linecap: square"/>
   </g>
   <g id="legend_4">
    <g id="patch_25">
     <path d="M 376.434375 224.381018 
L 443 224.381018 
Q 445 224.381018 445 222.381018 
L 445 208.702893 
Q 445 206.702893 443 206.702893 
L 376.434375 206.702893 
Q 374.434375 206.702893 374.434375 208.702893 
L 374.434375 222.381018 
Q 374.434375 224.381018 376.434375 224.381018 
z
" style="fill: #ffffff; opacity: 0.8; stroke: #cccccc; stroke-linejoin: miter"/>
    </g>
    <g id="line2d_40">
     <path d="M 378.434375 214.801331 
L 388.434375 214.801331 
L 398.434375 214.801331 
" style="fill: none; stroke: #1f77b4; stroke-width: 1.5; stroke-linecap: square"/>
    </g>
    <g id="text_13">
     <!-- t=0.75 -->
     <g transform="translate(406.434375 218.301331) scale(0.1 -0.1)">
      <defs>
       <path id="DejaVuSans-37" d="M 525 4666 
L 3525 4666 
L 3525 4397 
L 1831 0 
L 1172 0 
L 2766 4134 
L 525 4134 
L 525 4666 
z
" transform="scale(0.015625)"/>
      </defs>
      <use xlink:href="#DejaVuSans-74"/>
      <use xlink:href="#DejaVuSans-3d" x="39.208984"/>
      <use xlink:href="#DejaVuSans-30" x="122.998047"/>
      <use xlink:href="#DejaVuSans-2e" x="186.621094"/>
      <use xlink:href="#DejaVuSans-37" x="218.408203"/>
      <use xlink:href="#DejaVuSans-35" x="282.03125"/>
     </g>
    </g>
   </g>
  </g>
  <g id="axes_5">
   <g id="patch_26">
    <path d="M 24.1625 304.44375 
L 450 304.44375 
L 450 260.297816 
L 24.1625 260.297816 
z
" style="fill: #ffffff"/>
   </g>
   <g id="matplotlib.axis_9">
    <g id="xtick_25">
     <g id="line2d_41">
      <g>
       <use xlink:href="#mabd62791b7" x="59.648958" y="304.44375" style="stroke: #000000; stroke-width: 0.8"/>
      </g>
     </g>
     <g id="text_14">
      <!-- 0.0 -->
      <g transform="translate(51.697396 319.042187) scale(0.1 -0.1)">
       <use xlink:href="#DejaVuSans-30"/>
       <use xlink:href="#DejaVuSans-2e" x="63.623047"/>
       <use xlink:href="#DejaVuSans-30" x="95.410156"/>
      </g>
     </g>
    </g>
    <g id="xtick_26">
     <g id="line2d_42">
      <g>
       <use xlink:href="#mabd62791b7" x="130.621875" y="304.44375" style="stroke: #000000; stroke-width: 0.8"/>
      </g>
     </g>
     <g id="text_15">
      <!-- 0.2 -->
      <g transform="translate(122.670312 319.042187) scale(0.1 -0.1)">
       <use xlink:href="#DejaVuSans-30"/>
       <use xlink:href="#DejaVuSans-2e" x="63.623047"/>
       <use xlink:href="#DejaVuSans-32" x="95.410156"/>
      </g>
     </g>
    </g>
    <g id="xtick_27">
     <g id="line2d_43">
      <g>
       <use xlink:href="#mabd62791b7" x="201.594792" y="304.44375" style="stroke: #000000; stroke-width: 0.8"/>
      </g>
     </g>
     <g id="text_16">
      <!-- 0.4 -->
      <g transform="translate(193.643229 319.042187) scale(0.1 -0.1)">
       <defs>
        <path id="DejaVuSans-34" d="M 2419 4116 
L 825 1625 
L 2419 1625 
L 2419 4116 
z
M 2253 4666 
L 3047 4666 
L 3047 1625 
L 3713 1625 
L 3713 1100 
L 3047 1100 
L 3047 0 
L 2419 0 
L 2419 1100 
L 313 1100 
L 313 1709 
L 2253 4666 
z
" transform="scale(0.015625)"/>
       </defs>
       <use xlink:href="#DejaVuSans-30"/>
       <use xlink:href="#DejaVuSans-2e" x="63.623047"/>
       <use xlink:href="#DejaVuSans-34" x="95.410156"/>
      </g>
     </g>
    </g>
    <g id="xtick_28">
     <g id="line2d_44">
      <g>
       <use xlink:href="#mabd62791b7" x="272.567708" y="304.44375" style="stroke: #000000; stroke-width: 0.8"/>
      </g>
     </g>
     <g id="text_17">
      <!-- 0.6 -->
      <g transform="translate(264.616146 319.042187) scale(0.1 -0.1)">
       <defs>
        <path id="DejaVuSans-36" d="M 2113 2584 
Q 1688 2584 1439 2293 
Q 1191 2003 1191 1497 
Q 1191 994 1439 701 
Q 1688 409 2113 409 
Q 2538 409 2786 701 
Q 3034 994 3034 1497 
Q 3034 2003 2786 2293 
Q 2538 2584 2113 2584 
z
M 3366 4563 
L 3366 3988 
Q 3128 4100 2886 4159 
Q 2644 4219 2406 4219 
Q 1781 4219 1451 3797 
Q 1122 3375 1075 2522 
Q 1259 2794 1537 2939 
Q 1816 3084 2150 3084 
Q 2853 3084 3261 2657 
Q 3669 2231 3669 1497 
Q 3669 778 3244 343 
Q 2819 -91 2113 -91 
Q 1303 -91 875 529 
Q 447 1150 447 2328 
Q 447 3434 972 4092 
Q 1497 4750 2381 4750 
Q 2619 4750 2861 4703 
Q 3103 4656 3366 4563 
z
" transform="scale(0.015625)"/>
       </defs>
       <use xlink:href="#DejaVuSans-30"/>
       <use xlink:href="#DejaVuSans-2e" x="63.623047"/>
       <use xlink:href="#DejaVuSans-36" x="95.410156"/>
      </g>
     </g>
    </g>
    <g id="xtick_29">
     <g id="line2d_45">
      <g>
       <use xlink:href="#mabd62791b7" x="343.540625" y="304.44375" style="stroke: #000000; stroke-width: 0.8"/>
      </g>
     </g>
     <g id="text_18">
      <!-- 0.8 -->
      <g transform="translate(335.589062 319.042187) scale(0.1 -0.1)">
       <defs>
        <path id="DejaVuSans-38" d="M 2034 2216 
Q 1584 2216 1326 1975 
Q 1069 1734 1069 1313 
Q 1069 891 1326 650 
Q 1584 409 2034 409 
Q 2484 409 2743 651 
Q 3003 894 3003 1313 
Q 3003 1734 2745 1975 
Q 2488 2216 2034 2216 
z
M 1403 2484 
Q 997 2584 770 2862 
Q 544 3141 544 3541 
Q 544 4100 942 4425 
Q 1341 4750 2034 4750 
Q 2731 4750 3128 4425 
Q 3525 4100 3525 3541 
Q 3525 3141 3298 2862 
Q 3072 2584 2669 2484 
Q 3125 2378 3379 2068 
Q 3634 1759 3634 1313 
Q 3634 634 3220 271 
Q 2806 -91 2034 -91 
Q 1263 -91 848 271 
Q 434 634 434 1313 
Q 434 1759 690 2068 
Q 947 2378 1403 2484 
z
M 1172 3481 
Q 1172 3119 1398 2916 
Q 1625 2713 2034 2713 
Q 2441 2713 2670 2916 
Q 2900 3119 2900 3481 
Q 2900 3844 2670 4047 
Q 2441 4250 2034 4250 
Q 1625 4250 1398 4047 
Q 1172 3844 1172 3481 
z
" transform="scale(0.015625)"/>
       </defs>
       <use xlink:href="#DejaVuSans-30"/>
       <use xlink:href="#DejaVuSans-2e" x="63.623047"/>
       <use xlink:href="#DejaVuSans-38" x="95.410156"/>
      </g>
     </g>
    </g>
    <g id="xtick_30">
     <g id="line2d_46">
      <g>
       <use xlink:href="#mabd62791b7" x="414.513542" y="304.44375" style="stroke: #000000; stroke-width: 0.8"/>
      </g>
     </g>
     <g id="text_19">
      <!-- 1.0 -->
      <g transform="translate(406.561979 319.042187) scale(0.1 -0.1)">
       <use xlink:href="#DejaVuSans-31"/>
       <use xlink:href="#DejaVuSans-2e" x="63.623047"/>
       <use xlink:href="#DejaVuSans-30" x="95.410156"/>
      </g>
     </g>
    </g>
    <g id="text_20">
     <!-- position -->
     <g transform="translate(217.276562 332.720312) scale(0.1 -0.1)">
      <defs>
       <path id="DejaVuSans-70" d="M 1159 525 
L 1159 -1331 
L 581 -1331 
L 581 3500 
L 1159 3500 
L 1159 2969 
Q 1341 3281 1617 3432 
Q 1894 3584 2278 3584 
Q 2916 3584 3314 3078 
Q 3713 2572 3713 1747 
Q 3713 922 3314 415 
Q 2916 -91 2278 -91 
Q 1894 -91 1617 61 
Q 1341 213 1159 525 
z
M 3116 1747 
Q 3116 2381 2855 2742 
Q 2594 3103 2138 3103 
Q 1681 3103 1420 2742 
Q 1159 2381 1159 1747 
Q 1159 1113 1420 752 
Q 1681 391 2138 391 
Q 2594 391 2855 752 
Q 3116 1113 3116 1747 
z
" transform="scale(0.015625)"/>
       <path id="DejaVuSans-6f" d="M 1959 3097 
Q 1497 3097 1228 2736 
Q 959 2375 959 1747 
Q 959 1119 1226 758 
Q 1494 397 1959 397 
Q 2419 397 2687 759 
Q 2956 1122 2956 1747 
Q 2956 2369 2687 2733 
Q 2419 3097 1959 3097 
z
M 1959 3584 
Q 2709 3584 3137 3096 
Q 3566 2609 3566 1747 
Q 3566 888 3137 398 
Q 2709 -91 1959 -91 
Q 1206 -91 779 398 
Q 353 888 353 1747 
Q 353 2609 779 3096 
Q 1206 3584 1959 3584 
z
" transform="scale(0.015625)"/>
      </defs>
      <use xlink:href="#DejaVuSans-70"/>
      <use xlink:href="#DejaVuSans-6f" x="63.476562"/>
      <use xlink:href="#DejaVuSans-73" x="124.658203"/>
      <use xlink:href="#DejaVuSans-69" x="176.757812"/>
      <use xlink:href="#DejaVuSans-74" x="204.541016"/>
      <use xlink:href="#DejaVuSans-69" x="243.75"/>
      <use xlink:href="#DejaVuSans-6f" x="271.533203"/>
      <use xlink:href="#DejaVuSans-6e" x="332.714844"/>
     </g>
    </g>
   </g>
   <g id="matplotlib.axis_10">
    <g id="ytick_9">
     <g id="line2d_47">
      <g>
       <use xlink:href="#mae5f3a981a" x="24.1625" y="300.764922" style="stroke: #000000; stroke-width: 0.8"/>
      </g>
     </g>
     <g id="text_21">
      <!-- 0 -->
      <g transform="translate(10.8 304.564141) scale(0.1 -0.1)">
       <use xlink:href="#DejaVuSans-30"/>
      </g>
     </g>
    </g>
    <g id="ytick_10">
     <g id="line2d_48">
      <g>
       <use xlink:href="#mae5f3a981a" x="24.1625" y="263.976644" style="stroke: #000000; stroke-width: 0.8"/>
      </g>
     </g>
     <g id="text_22">
      <!-- 1 -->
      <g transform="translate(10.8 267.775863) scale(0.1 -0.1)">
       <use xlink:href="#DejaVuSans-31"/>
      </g>
     </g>
    </g>
   </g>
   <g id="line2d_49">
    <path d="M 59.648958 282.370783 
L 63.197604 283.525761 
L 66.74625 284.67618 
L 70.294896 285.817501 
L 73.843542 286.945219 
L 77.392187 288.054885 
L 80.940833 289.142117 
L 84.489479 290.202627 
L 88.038125 291.232227 
L 91.586771 292.226856 
L 95.135417 293.182587 
L 98.684062 294.095649 
L 102.232708 294.962438 
L 105.781354 295.779533 
L 109.33 296.543711 
L 112.878646 297.251954 
L 116.427292 297.901468 
L 119.975937 298.48969 
L 123.524583 299.014298 
L 127.073229 299.473221 
L 130.621875 299.864649 
L 134.170521 300.187036 
L 137.719167 300.439111 
L 141.267812 300.619879 
L 144.816458 300.728626 
L 148.365104 300.764922 
L 151.91375 300.728626 
L 155.462396 300.619879 
L 159.011042 300.439111 
L 162.559687 300.187036 
L 166.108333 299.864649 
L 169.656979 299.473221 
L 173.205625 299.014298 
L 176.754271 298.48969 
L 180.302917 297.901468 
L 183.851562 297.251954 
L 187.400208 296.543711 
L 190.948854 295.779533 
L 194.4975 294.962438 
L 198.046146 294.095649 
L 201.594792 293.182587 
L 205.143437 292.226856 
L 208.692083 291.232227 
L 212.240729 290.202627 
L 215.789375 289.142117 
L 219.338021 288.054885 
L 222.886667 286.945219 
L 226.435312 285.817501 
L 229.983958 284.67618 
L 233.532604 283.525761 
L 237.08125 282.370783 
L 240.629896 281.215805 
L 244.178542 280.065386 
L 247.727187 278.924065 
L 251.275833 277.796347 
L 254.824479 276.686681 
L 258.373125 275.599449 
L 261.921771 274.53894 
L 265.470417 273.509339 
L 269.019062 272.51471 
L 272.567708 271.558979 
L 276.116354 270.645917 
L 279.665 269.779128 
L 283.213646 268.962033 
L 286.762292 268.197855 
L 290.310937 267.489612 
L 293.859583 266.840098 
L 297.408229 266.251876 
L 300.956875 265.727268 
L 304.505521 265.268345 
L 308.054167 264.876917 
L 311.602812 264.55453 
L 315.151458 264.302455 
L 318.700104 264.121687 
L 322.24875 264.012941 
L 325.797396 263.976644 
L 329.346042 264.012941 
L 332.894687 264.121687 
L 336.443333 264.302455 
L 339.991979 264.55453 
L 343.540625 264.876917 
L 347.089271 265.268345 
L 350.637917 265.727268 
L 354.186562 266.251876 
L 357.735208 266.840098 
L 361.283854 267.489612 
L 364.8325 268.197855 
L 368.381146 268.962033 
L 371.929792 269.779128 
L 375.478437 270.645917 
L 379.027083 271.558979 
L 382.575729 272.51471 
L 386.124375 273.509339 
L 389.673021 274.53894 
L 393.221667 275.599449 
L 396.770312 276.686681 
L 400.318958 277.796347 
L 403.867604 278.924065 
L 407.41625 280.065386 
L 410.964896 281.215805 
L 414.513542 282.370783 
" clip-path="url(#p8f52855769)" style="fill: none; stroke: #1f77b4; stroke-width: 1.5; stroke-linecap: square"/>
   </g>
   <g id="patch_27">
    <path d="M 24.1625 304.44375 
L 24.1625 260.297816 
" style="fill: none; stroke: #000000; stroke-width: 0.8; stroke-linejoin: miter; stroke-linecap: square"/>
   </g>
   <g id="patch_28">
    <path d="M 450 304.44375 
L 450 260.297816 
" style="fill: none; stroke: #000000; stroke-width: 0.8; stroke-linejoin: miter; stroke-linecap: square"/>
   </g>
   <g id="patch_29">
    <path d="M 24.1625 304.44375 
L 450 304.44375 
" style="fill: none; stroke: #000000; stroke-width: 0.8; stroke-linejoin: miter; stroke-linecap: square"/>
   </g>
   <g id="patch_30">
    <path d="M 24.1625 260.297816 
L 450 260.297816 
" style="fill: none; stroke: #000000; stroke-width: 0.8; stroke-linejoin: miter; stroke-linecap: square"/>
   </g>
   <g id="legend_5">
    <g id="patch_31">
     <path d="M 376.434375 282.975941 
L 443 282.975941 
Q 445 282.975941 445 280.975941 
L 445 267.297816 
Q 445 265.297816 443 265.297816 
L 376.434375 265.297816 
Q 374.434375 265.297816 374.434375 267.297816 
L 374.434375 280.975941 
Q 374.434375 282.975941 376.434375 282.975941 
z
" style="fill: #ffffff; opacity: 0.8; stroke: #cccccc; stroke-linejoin: miter"/>
    </g>
    <g id="line2d_50">
     <path d="M 378.434375 273.396254 
L 388.434375 273.396254 
L 398.434375 273.396254 
" style="fill: none; stroke: #1f77b4; stroke-width: 1.5; stroke-linecap: square"/>
    </g>
    <g id="text_23">
     <!-- t=1.00 -->
     <g transform="translate(406.434375 276.896254) scale(0.1 -0.1)">
      <use xlink:href="#DejaVuSans-74"/>
      <use xlink:href="#DejaVuSans-3d" x="39.208984"/>
      <use xlink:href="#DejaVuSans-31" x="122.998047"/>
      <use xlink:href="#DejaVuSans-2e" x="186.621094"/>
      <use xlink:href="#DejaVuSans-30" x="218.408203"/>
      <use xlink:href="#DejaVuSans-30" x="282.03125"/>
     </g>
    </g>
   </g>
  </g>
 </g>
 <defs>
  <clipPath id="p38756fe0a1">
   <rect x="24.1625" y="25.918125" width="425.8375" height="44.145934"/>
  </clipPath>
  <clipPath id="pbdc4a1b0df">
   <rect x="24.1625" y="84.513048" width="425.8375" height="44.145934"/>
  </clipPath>
  <clipPath id="p48746e48b9">
   <rect x="24.1625" y="143.107971" width="425.8375" height="44.145934"/>
  </clipPath>
  <clipPath id="p9e8a6dbfa8">
   <rect x="24.1625" y="201.702893" width="425.8375" height="44.145934"/>
  </clipPath>
  <clipPath id="p8f52855769">
   <rect x="24.1625" y="260.297816" width="425.8375" height="44.145934"/>
  </clipPath>
 </defs>
</svg>
