<?xml version="1.0" encoding="utf-8" standalone="no"?>
<!DOCTYPE svg PUBLIC "-//W3C//DTD SVG 1.1//EN"
  "http://www.w3.org/Graphics/SVG/1.1/DTD/svg11.dtd">
<svg xmlns:xlink="http://www.w3.org/1999/xlink" width="460.8pt" height="345.6pt" viewBox="0 0 460.8 345.6" xmlns="http://www.w3.org/2000/svg" version="1.1">
 <metadata>
  <rdf:RDF xmlns:dc="http://purl.org/dc/elements/1.1/" xmlns:cc="http://creativecommons.org/ns#" xmlns:rdf="http://www.w3.org/1999/02/22-rdf-syntax-ns#">
   <cc:Work>
    <dc:type rdf:resource="http://purl.org/dc/dcmitype/StillImage"/>
    <dc:date>2025-03-18T21:08:22.739663</dc:date>
    <dc:format>image/svg+xml</dc:format>
    <dc:creator>
     <cc:Agent>
      <dc:title>Matplotlib v3.8.4, https://matplotlib.org/</dc:title>
     </cc:Agent>
    </dc:creator>
   </cc:Work>
  </rdf:RDF>
 </metadata>
 <defs>
  <style type="text/css">*{stroke-linejoin: round; stroke-linecap: butt}</style>
 </defs>
 <g id="figure_1">
  <g id="patch_1">
   <path d="M 0 345.6 
L 460.8 345.6 
L 460.8 0 
L 0 0 
z
" style="fill: #ffffff"/>
  </g>
  <g id="axes_1">
   <g id="patch_2">
    <path d="M 24.1625 70.064059 
L 450 70.064059 
L 450 25.918125 
L 24.1625 25.918125 
z
" style="fill: #ffffff"/>
   </g>
   <g id="matplotlib.axis_1">
    <g id="xtick_1">
     <g id="line2d_1">
      <defs>
       <path id="m3152e6abac" d="M 0 0 
L 0 3.5 
" style="stroke: #000000; stroke-width: 0.8"/>
      </defs>
      <g>
       <use xlink:href="#m3152e6abac" x="59.648958" y="70.064059" style="stroke: #000000; stroke-width: 0.8"/>
      </g>
     </g>
    </g>
    <g id="xtick_2">
     <g id="line2d_2">
      <g>
       <use xlink:href="#m3152e6abac" x="130.621875" y="70.064059" style="stroke: #000000; stroke-width: 0.8"/>
      </g>
     </g>
    </g>
    <g id="xtick_3">
     <g id="line2d_3">
      <g>
       <use xlink:href="#m3152e6abac" x="201.594792" y="70.064059" style="stroke: #000000; stroke-width: 0.8"/>
      </g>
     </g>
    </g>
    <g id="xtick_4">
     <g id="line2d_4">
      <g>
       <use xlink:href="#m3152e6abac" x="272.567708" y="70.064059" style="stroke: #000000; stroke-width: 0.8"/>
      </g>
     </g>
    </g>
    <g id="xtick_5">
     <g id="line2d_5">
      <g>
       <use xlink:href="#m3152e6abac" x="343.540625" y="70.064059" style="stroke: #000000; stroke-width: 0.8"/>
      </g>
     </g>
    </g>
    <g id="xtick_6">
     <g id="line2d_6">
      <g>
       <use xlink:href="#m3152e6abac" x="414.513542" y="70.064059" style="stroke: #000000; stroke-width: 0.8"/>
      </g>
     </g>
    </g>
   </g>
   <g id="matplotlib.axis_2">
    <g id="ytick_1">
     <g id="line2d_7">
      <defs>
       <path id="m5612f3dd63" d="M 0 0 
L -3.5 0 
" style="stroke: #000000; stroke-width: 0.8"/>
      </defs>
      <g>
       <use xlink:href="#m5612f3dd63" x="24.1625" y="66.385231" style="stroke: #000000; stroke-width: 0.8"/>
      </g>
     </g>
     <g id="text_1">
      <!-- 0 -->
      <g transform="translate(10.8 70.18445) scale(0.1 -0.1)">
       <defs>
        <path id="DejaVuSans-30" d="M 2034 4250 
Q 1547 4250 1301 3770 
Q 1056 3291 1056 2328 
Q 1056 1369 1301 889 
Q 1547 409 2034 409 
Q 2525 409 2770 889 
Q 3016 1369 3016 2328 
Q 3016 3291 2770 3770 
Q 2525 4250 2034 4250 
z
M 2034 4750 
Q 2819 4750 3233 4129 
Q 3647 3509 3647 2328 
Q 3647 1150 3233 529 
Q 2819 -91 2034 -91 
Q 1250 -91 836 529 
Q 422 1150 422 2328 
Q 422 3509 836 4129 
Q 1250 4750 2034 4750 
z
" transform="scale(0.015625)"/>
       </defs>
       <use xlink:href="#DejaVuSans-30"/>
      </g>
     </g>
    </g>
    <g id="ytick_2">
     <g id="line2d_8">
      <g>
       <use xlink:href="#m5612f3dd63" x="24.1625" y="29.596953" style="stroke: #000000; stroke-width: 0.8"/>
      </g>
     </g>
     <g id="text_2">
      <!-- 1 -->
      <g transform="translate(10.8 33.396172) scale(0.1 -0.1)">
       <defs>
        <path id="DejaVuSans-31" d="M 794 531 
L 1825 531 
L 1825 4091 
L 703 3866 
L 703 4441 
L 1819 4666 
L 2450 4666 
L 2450 531 
L 3481 531 
L 3481 0 
L 794 0 
L 794 531 
z
" transform="scale(0.015625)"/>
       </defs>
       <use xlink:href="#DejaVuSans-31"/>
      </g>
     </g>
    </g>
   </g>
   <g id="line2d_9">
    <path d="M 59.648958 66.385231 
L 63.197604 66.385231 
L 66.74625 66.385231 
L 70.294896 66.385231 
L 73.843542 66.385231 
L 77.392187 66.385231 
L 80.940833 66.385231 
L 84.489479 66.385231 
L 88.038125 66.385231 
L 91.586771 66.385231 
L 95.135417 66.385231 
L 98.684062 66.385231 
L 102.232708 66.385231 
L 105.781354 66.385231 
L 109.33 66.385231 
L 112.878646 66.385231 
L 116.427292 66.385231 
L 119.975937 66.385231 
L 123.524583 66.385231 
L 127.073229 66.385231 
L 130.621875 66.385231 
L 134.170521 66.385231 
L 137.719167 66.385231 
L 141.267812 66.385231 
L 144.816458 66.385231 
L 148.365104 66.385231 
L 151.91375 66.385231 
L 155.462396 66.385231 
L 159.011042 66.385231 
L 162.559687 66.385231 
L 166.108333 66.385231 
L 169.656979 66.385231 
L 173.205625 66.385231 
L 176.754271 66.385231 
L 180.302917 66.385231 
L 183.851562 66.385231 
L 187.400208 66.385231 
L 190.948854 66.385231 
L 194.4975 66.385231 
L 198.046146 66.385231 
L 201.594792 66.385231 
L 205.143437 66.385231 
L 208.692083 66.385231 
L 212.240729 66.385231 
L 215.789375 66.385231 
L 219.338021 66.385231 
L 222.886667 66.385231 
L 226.435312 66.385231 
L 229.983958 66.385231 
L 233.532604 66.385231 
L 237.08125 66.385231 
L 240.629896 66.385231 
L 244.178542 66.385231 
L 247.727187 66.385231 
L 251.275833 66.385231 
L 254.824479 66.385231 
L 258.373125 66.385231 
L 261.921771 66.385231 
L 265.470417 66.385231 
L 269.019062 66.385231 
L 272.567708 66.385231 
L 276.116354 66.385231 
L 279.665 66.385231 
L 283.213646 66.385231 
L 286.762292 66.385231 
L 290.310937 66.385231 
L 293.859583 66.385231 
L 297.408229 66.385231 
L 300.956875 66.385231 
L 304.505521 66.385231 
L 308.054167 66.385231 
L 311.602812 66.385231 
L 315.151458 66.385231 
L 318.700104 66.385231 
L 322.24875 66.385231 
L 325.797396 66.385231 
L 329.346042 66.385231 
L 332.894687 66.385231 
L 336.443333 66.385231 
L 339.991979 66.385231 
L 343.540625 66.385231 
L 347.089271 66.385231 
L 350.637917 66.385231 
L 354.186562 66.385231 
L 357.735208 66.385231 
L 361.283854 66.385231 
L 364.8325 66.385231 
L 368.381146 66.385231 
L 371.929792 66.385231 
L 375.478437 66.385231 
L 379.027083 66.385231 
L 382.575729 66.385231 
L 386.124375 66.385231 
L 389.673021 66.385231 
L 393.221667 66.385231 
L 396.770312 66.385231 
L 400.318958 66.385231 
L 403.867604 66.385231 
L 407.41625 66.385231 
L 410.964896 66.385231 
L 414.513542 66.385231 
" clip-path="url(#p9b68945423)" style="fill: none; stroke: #1f77b4; stroke-width: 1.5; stroke-linecap: square"/>
   </g>
   <g id="patch_3">
    <path d="M 24.1625 70.064059 
L 24.1625 25.918125 
" style="fill: none; stroke: #000000; stroke-width: 0.8; stroke-linejoin: miter; stroke-linecap: square"/>
   </g>
   <g id="patch_4">
    <path d="M 450 70.064059 
L 450 25.918125 
" style="fill: none; stroke: #000000; stroke-width: 0.8; stroke-linejoin: miter; stroke-linecap: square"/>
   </g>
   <g id="patch_5">
    <path d="M 24.1625 70.064059 
L 450 70.064059 
" style="fill: none; stroke: #000000; stroke-width: 0.8; stroke-linejoin: miter; stroke-linecap: square"/>
   </g>
   <g id="patch_6">
    <path d="M 24.1625 25.918125 
L 450 25.918125 
" style="fill: none; stroke: #000000; stroke-width: 0.8; stroke-linejoin: miter; stroke-linecap: square"/>
   </g>
   <g id="text_3">
    <!-- wipe_quad -->
    <g transform="translate(204.909062 19.918125) scale(0.12 -0.12)">
     <defs>
      <path id="DejaVuSans-77" d="M 269 3500 
L 844 3500 
L 1563 769 
L 2278 3500 
L 2956 3500 
L 3675 769 
L 4391 3500 
L 4966 3500 
L 4050 0 
L 3372 0 
L 2619 2869 
L 1863 0 
L 1184 0 
L 269 3500 
z
" transform="scale(0.015625)"/>
      <path id="DejaVuSans-69" d="M 603 3500 
L 1178 3500 
L 1178 0 
L 603 0 
L 603 3500 
z
M 603 4863 
L 1178 4863 
L 1178 4134 
L 603 4134 
L 603 4863 
z
" transform="scale(0.015625)"/>
      <path id="DejaVuSans-70" d="M 1159 525 
L 1159 -1331 
L 581 -1331 
L 581 3500 
L 1159 3500 
L 1159 2969 
Q 1341 3281 1617 3432 
Q 1894 3584 2278 3584 
Q 2916 3584 3314 3078 
Q 3713 2572 3713 1747 
Q 3713 922 3314 415 
Q 2916 -91 2278 -91 
Q 1894 -91 1617 61 
Q 1341 213 1159 525 
z
M 3116 1747 
Q 3116 2381 2855 2742 
Q 2594 3103 2138 3103 
Q 1681 3103 1420 2742 
Q 1159 2381 1159 1747 
Q 1159 1113 1420 752 
Q 1681 391 2138 391 
Q 2594 391 2855 752 
Q 3116 1113 3116 1747 
z
" transform="scale(0.015625)"/>
      <path id="DejaVuSans-65" d="M 3597 1894 
L 3597 1613 
L 953 1613 
Q 991 1019 1311 708 
Q 1631 397 2203 397 
Q 2534 397 2845 478 
Q 3156 559 3463 722 
L 3463 178 
Q 3153 47 2828 -22 
Q 2503 -91 2169 -91 
Q 1331 -91 842 396 
Q 353 884 353 1716 
Q 353 2575 817 3079 
Q 1281 3584 2069 3584 
Q 2775 3584 3186 3129 
Q 3597 2675 3597 1894 
z
M 3022 2063 
Q 3016 2534 2758 2815 
Q 2500 3097 2075 3097 
Q 1594 3097 1305 2825 
Q 1016 2553 972 2059 
L 3022 2063 
z
" transform="scale(0.015625)"/>
      <path id="DejaVuSans-5f" d="M 3263 -1063 
L 3263 -1509 
L -63 -1509 
L -63 -1063 
L 3263 -1063 
z
" transform="scale(0.015625)"/>
      <path id="DejaVuSans-71" d="M 947 1747 
Q 947 1113 1208 752 
Q 1469 391 1925 391 
Q 2381 391 2643 752 
Q 2906 1113 2906 1747 
Q 2906 2381 2643 2742 
Q 2381 3103 1925 3103 
Q 1469 3103 1208 2742 
Q 947 2381 947 1747 
z
M 2906 525 
Q 2725 213 2448 61 
Q 2172 -91 1784 -91 
Q 1150 -91 751 415 
Q 353 922 353 1747 
Q 353 2572 751 3078 
Q 1150 3584 1784 3584 
Q 2172 3584 2448 3432 
Q 2725 3281 2906 2969 
L 2906 3500 
L 3481 3500 
L 3481 -1331 
L 2906 -1331 
L 2906 525 
z
" transform="scale(0.015625)"/>
      <path id="DejaVuSans-75" d="M 544 1381 
L 544 3500 
L 1119 3500 
L 1119 1403 
Q 1119 906 1312 657 
Q 1506 409 1894 409 
Q 2359 409 2629 706 
Q 2900 1003 2900 1516 
L 2900 3500 
L 3475 3500 
L 3475 0 
L 2900 0 
L 2900 538 
Q 2691 219 2414 64 
Q 2138 -91 1772 -91 
Q 1169 -91 856 284 
Q 544 659 544 1381 
z
M 1991 3584 
L 1991 3584 
z
" transform="scale(0.015625)"/>
      <path id="DejaVuSans-61" d="M 2194 1759 
Q 1497 1759 1228 1600 
Q 959 1441 959 1056 
Q 959 750 1161 570 
Q 1363 391 1709 391 
Q 2188 391 2477 730 
Q 2766 1069 2766 1631 
L 2766 1759 
L 2194 1759 
z
M 3341 1997 
L 3341 0 
L 2766 0 
L 2766 531 
Q 2569 213 2275 61 
Q 1981 -91 1556 -91 
Q 1019 -91 701 211 
Q 384 513 384 1019 
Q 384 1609 779 1909 
Q 1175 2209 1959 2209 
L 2766 2209 
L 2766 2266 
Q 2766 2663 2505 2880 
Q 2244 3097 1772 3097 
Q 1472 3097 1187 3025 
Q 903 2953 641 2809 
L 641 3341 
Q 956 3463 1253 3523 
Q 1550 3584 1831 3584 
Q 2591 3584 2966 3190 
Q 3341 2797 3341 1997 
z
" transform="scale(0.015625)"/>
      <path id="DejaVuSans-64" d="M 2906 2969 
L 2906 4863 
L 3481 4863 
L 3481 0 
L 2906 0 
L 2906 525 
Q 2725 213 2448 61 
Q 2172 -91 1784 -91 
Q 1150 -91 751 415 
Q 353 922 353 1747 
Q 353 2572 751 3078 
Q 1150 3584 1784 3584 
Q 2172 3584 2448 3432 
Q 2725 3281 2906 2969 
z
M 947 1747 
Q 947 1113 1208 752 
Q 1469 391 1925 391 
Q 2381 391 2643 752 
Q 2906 1113 2906 1747 
Q 2906 2381 2643 2742 
Q 2381 3103 1925 3103 
Q 1469 3103 1208 2742 
Q 947 2381 947 1747 
z
" transform="scale(0.015625)"/>
     </defs>
     <use xlink:href="#DejaVuSans-77"/>
     <use xlink:href="#DejaVuSans-69" x="81.787109"/>
     <use xlink:href="#DejaVuSans-70" x="109.570312"/>
     <use xlink:href="#DejaVuSans-65" x="173.046875"/>
     <use xlink:href="#DejaVuSans-5f" x="234.570312"/>
     <use xlink:href="#DejaVuSans-71" x="284.570312"/>
     <use xlink:href="#DejaVuSans-75" x="348.046875"/>
     <use xlink:href="#DejaVuSans-61" x="411.425781"/>
     <use xlink:href="#DejaVuSans-64" x="472.705078"/>
    </g>
   </g>
   <g id="legend_1">
    <g id="patch_7">
     <path d="M 376.434375 48.59625 
L 443 48.59625 
Q 445 48.59625 445 46.59625 
L 445 32.918125 
Q 445 30.918125 443 30.918125 
L 376.434375 30.918125 
Q 374.434375 30.918125 374.434375 32.918125 
L 374.434375 46.59625 
Q 374.434375 48.59625 376.434375 48.59625 
z
" style="fill: #ffffff; opacity: 0.8; stroke: #cccccc; stroke-linejoin: miter"/>
    </g>
    <g id="line2d_10">
     <path d="M 378.434375 39.016563 
L 388.434375 39.016563 
L 398.434375 39.016563 
" style="fill: none; stroke: #1f77b4; stroke-width: 1.5; stroke-linecap: square"/>
    </g>
    <g id="text_4">
     <!-- t=0.00 -->
     <g transform="translate(406.434375 42.516563) scale(0.1 -0.1)">
      <defs>
       <path id="DejaVuSans-74" d="M 1172 4494 
L 1172 3500 
L 2356 3500 
L 2356 3053 
L 1172 3053 
L 1172 1153 
Q 1172 725 1289 603 
Q 1406 481 1766 481 
L 2356 481 
L 2356 0 
L 1766 0 
Q 1100 0 847 248 
Q 594 497 594 1153 
L 594 3053 
L 172 3053 
L 172 3500 
L 594 3500 
L 594 4494 
L 1172 4494 
z
" transform="scale(0.015625)"/>
       <path id="DejaVuSans-3d" d="M 678 2906 
L 4684 2906 
L 4684 2381 
L 678 2381 
L 678 2906 
z
M 678 1631 
L 4684 1631 
L 4684 1100 
L 678 1100 
L 678 1631 
z
" transform="scale(0.015625)"/>
       <path id="DejaVuSans-2e" d="M 684 794 
L 1344 794 
L 1344 0 
L 684 0 
L 684 794 
z
" transform="scale(0.015625)"/>
      </defs>
      <use xlink:href="#DejaVuSans-74"/>
      <use xlink:href="#DejaVuSans-3d" x="39.208984"/>
      <use xlink:href="#DejaVuSans-30" x="122.998047"/>
      <use xlink:href="#DejaVuSans-2e" x="186.621094"/>
      <use xlink:href="#DejaVuSans-30" x="218.408203"/>
      <use xlink:href="#DejaVuSans-30" x="282.03125"/>
     </g>
    </g>
   </g>
  </g>
  <g id="axes_2">
   <g id="patch_8">
    <path d="M 24.1625 128.658982 
L 450 128.658982 
L 450 84.513048 
L 24.1625 84.513048 
z
" style="fill: #ffffff"/>
   </g>
   <g id="matplotlib.axis_3">
    <g id="xtick_7">
     <g id="line2d_11">
      <g>
       <use xlink:href="#m3152e6abac" x="59.648958" y="128.658982" style="stroke: #000000; stroke-width: 0.8"/>
      </g>
     </g>
    </g>
    <g id="xtick_8">
     <g id="line2d_12">
      <g>
       <use xlink:href="#m3152e6abac" x="130.621875" y="128.658982" style="stroke: #000000; stroke-width: 0.8"/>
      </g>
     </g>
    </g>
    <g id="xtick_9">
     <g id="line2d_13">
      <g>
       <use xlink:href="#m3152e6abac" x="201.594792" y="128.658982" style="stroke: #000000; stroke-width: 0.8"/>
      </g>
     </g>
    </g>
    <g id="xtick_10">
     <g id="line2d_14">
      <g>
       <use xlink:href="#m3152e6abac" x="272.567708" y="128.658982" style="stroke: #000000; stroke-width: 0.8"/>
      </g>
     </g>
    </g>
    <g id="xtick_11">
     <g id="line2d_15">
      <g>
       <use xlink:href="#m3152e6abac" x="343.540625" y="128.658982" style="stroke: #000000; stroke-width: 0.8"/>
      </g>
     </g>
    </g>
    <g id="xtick_12">
     <g id="line2d_16">
      <g>
       <use xlink:href="#m3152e6abac" x="414.513542" y="128.658982" style="stroke: #000000; stroke-width: 0.8"/>
      </g>
     </g>
    </g>
   </g>
   <g id="matplotlib.axis_4">
    <g id="ytick_3">
     <g id="line2d_17">
      <g>
       <use xlink:href="#m5612f3dd63" x="24.1625" y="124.980154" style="stroke: #000000; stroke-width: 0.8"/>
      </g>
     </g>
     <g id="text_5">
      <!-- 0 -->
      <g transform="translate(10.8 128.779373) scale(0.1 -0.1)">
       <use xlink:href="#DejaVuSans-30"/>
      </g>
     </g>
    </g>
    <g id="ytick_4">
     <g id="line2d_18">
      <g>
       <use xlink:href="#m5612f3dd63" x="24.1625" y="88.191876" style="stroke: #000000; stroke-width: 0.8"/>
      </g>
     </g>
     <g id="text_6">
      <!-- 1 -->
      <g transform="translate(10.8 91.991094) scale(0.1 -0.1)">
       <use xlink:href="#DejaVuSans-31"/>
      </g>
     </g>
    </g>
   </g>
   <g id="line2d_19">
    <path d="M 59.648958 88.191876 
L 63.197604 88.244197 
L 66.74625 88.40116 
L 70.294896 88.662766 
L 73.843542 89.029013 
L 77.392187 89.499903 
L 80.940833 90.075435 
L 84.489479 90.75561 
L 88.038125 91.540426 
L 91.586771 92.429885 
L 95.135417 93.423986 
L 98.684062 94.52273 
L 102.232708 95.726115 
L 105.781354 97.034143 
L 109.33 98.446813 
L 112.878646 99.964125 
L 116.427292 101.586079 
L 119.975937 103.312675 
L 123.524583 105.143914 
L 127.073229 107.073255 
L 130.621875 108.956815 
L 134.170521 110.735733 
L 137.719167 112.410008 
L 141.267812 113.979641 
L 144.816458 115.444632 
L 148.365104 116.804981 
L 151.91375 118.060687 
L 155.462396 119.211752 
L 159.011042 120.258174 
L 162.559687 121.199954 
L 166.108333 122.037092 
L 169.656979 122.769587 
L 173.205625 123.39744 
L 176.754271 123.920651 
L 180.302917 124.33922 
L 183.851562 124.653147 
L 187.400208 124.862431 
L 190.948854 124.967074 
L 194.4975 124.980154 
L 198.046146 124.980154 
L 201.594792 124.980154 
L 205.143437 124.980154 
L 208.692083 124.980154 
L 212.240729 124.980154 
L 215.789375 124.980154 
L 219.338021 124.980154 
L 222.886667 124.980154 
L 226.435312 124.980154 
L 229.983958 124.980154 
L 233.532604 124.980154 
L 237.08125 124.980154 
L 240.629896 124.980154 
L 244.178542 124.980154 
L 247.727187 124.980154 
L 251.275833 124.980154 
L 254.824479 124.980154 
L 258.373125 124.980154 
L 261.921771 124.980154 
L 265.470417 124.980154 
L 269.019062 124.980154 
L 272.567708 124.980154 
L 276.116354 124.980154 
L 279.665 124.980154 
L 283.213646 124.980154 
L 286.762292 124.980154 
L 290.310937 124.980154 
L 293.859583 124.980154 
L 297.408229 124.980154 
L 300.956875 124.980154 
L 304.505521 124.980154 
L 308.054167 124.980154 
L 311.602812 124.980154 
L 315.151458 124.980154 
L 318.700104 124.980154 
L 322.24875 124.980154 
L 325.797396 124.980154 
L 329.346042 124.980154 
L 332.894687 124.980154 
L 336.443333 124.980154 
L 339.991979 124.980154 
L 343.540625 124.980154 
L 347.089271 124.980154 
L 350.637917 124.980154 
L 354.186562 124.980154 
L 357.735208 124.980154 
L 361.283854 124.980154 
L 364.8325 124.980154 
L 368.381146 124.980154 
L 371.929792 124.980154 
L 375.478437 124.980154 
L 379.027083 124.980154 
L 382.575729 124.980154 
L 386.124375 124.980154 
L 389.673021 124.980154 
L 393.221667 124.980154 
L 396.770312 124.980154 
L 400.318958 124.980154 
L 403.867604 124.980154 
L 407.41625 124.980154 
L 410.964896 124.980154 
L 414.513542 124.980154 
" clip-path="url(#p6cf55b2134)" style="fill: none; stroke: #1f77b4; stroke-width: 1.5; stroke-linecap: square"/>
   </g>
   <g id="patch_9">
    <path d="M 24.1625 128.658982 
L 24.1625 84.513048 
" style="fill: none; stroke: #000000; stroke-width: 0.8; stroke-linejoin: miter; stroke-linecap: square"/>
   </g>
   <g id="patch_10">
    <path d="M 450 128.658982 
L 450 84.513048 
" style="fill: none; stroke: #000000; stroke-width: 0.8; stroke-linejoin: miter; stroke-linecap: square"/>
   </g>
   <g id="patch_11">
    <path d="M 24.1625 128.658982 
L 450 128.658982 
" style="fill: none; stroke: #000000; stroke-width: 0.8; stroke-linejoin: miter; stroke-linecap: square"/>
   </g>
   <g id="patch_12">
    <path d="M 24.1625 84.513048 
L 450 84.513048 
" style="fill: none; stroke: #000000; stroke-width: 0.8; stroke-linejoin: miter; stroke-linecap: square"/>
   </g>
   <g id="legend_2">
    <g id="patch_13">
     <path d="M 376.434375 107.191173 
L 443 107.191173 
Q 445 107.191173 445 105.191173 
L 445 91.513048 
Q 445 89.513048 443 89.513048 
L 376.434375 89.513048 
Q 374.434375 89.513048 374.434375 91.513048 
L 374.434375 105.191173 
Q 374.434375 107.191173 376.434375 107.191173 
z
" style="fill: #ffffff; opacity: 0.8; stroke: #cccccc; stroke-linejoin: miter"/>
    </g>
    <g id="line2d_20">
     <path d="M 378.434375 97.611485 
L 388.434375 97.611485 
L 398.434375 97.611485 
" style="fill: none; stroke: #1f77b4; stroke-width: 1.5; stroke-linecap: square"/>
    </g>
    <g id="text_7">
     <!-- t=0.25 -->
     <g transform="translate(406.434375 101.111485) scale(0.1 -0.1)">
      <defs>
       <path id="DejaVuSans-32" d="M 1228 531 
L 3431 531 
L 3431 0 
L 469 0 
L 469 531 
Q 828 903 1448 1529 
Q 2069 2156 2228 2338 
Q 2531 2678 2651 2914 
Q 2772 3150 2772 3378 
Q 2772 3750 2511 3984 
Q 2250 4219 1831 4219 
Q 1534 4219 1204 4116 
Q 875 4013 500 3803 
L 500 4441 
Q 881 4594 1212 4672 
Q 1544 4750 1819 4750 
Q 2544 4750 2975 4387 
Q 3406 4025 3406 3419 
Q 3406 3131 3298 2873 
Q 3191 2616 2906 2266 
Q 2828 2175 2409 1742 
Q 1991 1309 1228 531 
z
" transform="scale(0.015625)"/>
       <path id="DejaVuSans-35" d="M 691 4666 
L 3169 4666 
L 3169 4134 
L 1269 4134 
L 1269 2991 
Q 1406 3038 1543 3061 
Q 1681 3084 1819 3084 
Q 2600 3084 3056 2656 
Q 3513 2228 3513 1497 
Q 3513 744 3044 326 
Q 2575 -91 1722 -91 
Q 1428 -91 1123 -41 
Q 819 9 494 109 
L 494 744 
Q 775 591 1075 516 
Q 1375 441 1709 441 
Q 2250 441 2565 725 
Q 2881 1009 2881 1497 
Q 2881 1984 2565 2268 
Q 2250 2553 1709 2553 
Q 1456 2553 1204 2497 
Q 953 2441 691 2322 
L 691 4666 
z
" transform="scale(0.015625)"/>
      </defs>
      <use xlink:href="#DejaVuSans-74"/>
      <use xlink:href="#DejaVuSans-3d" x="39.208984"/>
      <use xlink:href="#DejaVuSans-30" x="122.998047"/>
      <use xlink:href="#DejaVuSans-2e" x="186.621094"/>
      <use xlink:href="#DejaVuSans-32" x="218.408203"/>
      <use xlink:href="#DejaVuSans-35" x="282.03125"/>
     </g>
    </g>
   </g>
  </g>
  <g id="axes_3">
   <g id="patch_14">
    <path d="M 24.1625 187.253904 
L 450 187.253904 
L 450 143.107971 
L 24.1625 143.107971 
z
" style="fill: #ffffff"/>
   </g>
   <g id="matplotlib.axis_5">
    <g id="xtick_13">
     <g id="line2d_21">
      <g>
       <use xlink:href="#m3152e6abac" x="59.648958" y="187.253904" style="stroke: #000000; stroke-width: 0.8"/>
      </g>
     </g>
    </g>
    <g id="xtick_14">
     <g id="line2d_22">
      <g>
       <use xlink:href="#m3152e6abac" x="130.621875" y="187.253904" style="stroke: #000000; stroke-width: 0.8"/>
      </g>
     </g>
    </g>
    <g id="xtick_15">
     <g id="line2d_23">
      <g>
       <use xlink:href="#m3152e6abac" x="201.594792" y="187.253904" style="stroke: #000000; stroke-width: 0.8"/>
      </g>
     </g>
    </g>
    <g id="xtick_16">
     <g id="line2d_24">
      <g>
       <use xlink:href="#m3152e6abac" x="272.567708" y="187.253904" style="stroke: #000000; stroke-width: 0.8"/>
      </g>
     </g>
    </g>
    <g id="xtick_17">
     <g id="line2d_25">
      <g>
       <use xlink:href="#m3152e6abac" x="343.540625" y="187.253904" style="stroke: #000000; stroke-width: 0.8"/>
      </g>
     </g>
    </g>
    <g id="xtick_18">
     <g id="line2d_26">
      <g>
       <use xlink:href="#m3152e6abac" x="414.513542" y="187.253904" style="stroke: #000000; stroke-width: 0.8"/>
      </g>
     </g>
    </g>
   </g>
   <g id="matplotlib.axis_6">
    <g id="ytick_5">
     <g id="line2d_27">
      <g>
       <use xlink:href="#m5612f3dd63" x="24.1625" y="183.575077" style="stroke: #000000; stroke-width: 0.8"/>
      </g>
     </g>
     <g id="text_8">
      <!-- 0 -->
      <g transform="translate(10.8 187.374295) scale(0.1 -0.1)">
       <use xlink:href="#DejaVuSans-30"/>
      </g>
     </g>
    </g>
    <g id="ytick_6">
     <g id="line2d_28">
      <g>
       <use xlink:href="#m5612f3dd63" x="24.1625" y="146.786798" style="stroke: #000000; stroke-width: 0.8"/>
      </g>
     </g>
     <g id="text_9">
      <!-- 1 -->
      <g transform="translate(10.8 150.586017) scale(0.1 -0.1)">
       <use xlink:href="#DejaVuSans-31"/>
      </g>
     </g>
    </g>
   </g>
   <g id="line2d_29">
    <path d="M 59.648958 146.786798 
L 63.197604 146.786798 
L 66.74625 146.786798 
L 70.294896 146.786798 
L 73.843542 146.786798 
L 77.392187 146.786798 
L 80.940833 146.786798 
L 84.489479 146.786798 
L 88.038125 146.786798 
L 91.586771 146.786798 
L 95.135417 146.786798 
L 98.684062 146.786798 
L 102.232708 146.786798 
L 105.781354 146.786798 
L 109.33 146.786798 
L 112.878646 146.786798 
L 116.427292 146.786798 
L 119.975937 146.786798 
L 123.524583 146.786798 
L 127.073229 146.786798 
L 130.621875 146.786798 
L 134.170521 146.786798 
L 137.719167 146.786798 
L 141.267812 146.786798 
L 144.816458 146.786798 
L 148.365104 146.786798 
L 151.91375 146.786798 
L 155.462396 146.786798 
L 159.011042 146.786798 
L 162.559687 146.786798 
L 166.108333 146.786798 
L 169.656979 146.786798 
L 173.205625 146.786798 
L 176.754271 146.786798 
L 180.302917 146.786798 
L 183.851562 146.786798 
L 187.400208 146.786798 
L 190.948854 146.786798 
L 194.4975 146.799879 
L 198.046146 146.904521 
L 201.594792 147.113805 
L 205.143437 147.427732 
L 208.692083 147.846301 
L 212.240729 148.369512 
L 215.789375 148.997365 
L 219.338021 149.729861 
L 222.886667 150.566998 
L 226.435312 151.508778 
L 229.983958 152.5552 
L 233.532604 153.706265 
L 237.08125 154.961971 
L 240.629896 156.32232 
L 244.178542 157.787311 
L 247.727187 159.356944 
L 251.275833 161.03122 
L 254.824479 162.810137 
L 258.373125 164.693697 
L 261.921771 166.623038 
L 265.470417 168.454277 
L 269.019062 170.180873 
L 272.567708 171.802828 
L 276.116354 173.32014 
L 279.665 174.73281 
L 283.213646 176.040837 
L 286.762292 177.244223 
L 290.310937 178.342966 
L 293.859583 179.337067 
L 297.408229 180.226526 
L 300.956875 181.011342 
L 304.505521 181.691517 
L 308.054167 182.267049 
L 311.602812 182.737939 
L 315.151458 183.104187 
L 318.700104 183.365792 
L 322.24875 183.522756 
L 325.797396 183.575077 
L 329.346042 183.575077 
L 332.894687 183.575077 
L 336.443333 183.575077 
L 339.991979 183.575077 
L 343.540625 183.575077 
L 347.089271 183.575077 
L 350.637917 183.575077 
L 354.186562 183.575077 
L 357.735208 183.575077 
L 361.283854 183.575077 
L 364.8325 183.575077 
L 368.381146 183.575077 
L 371.929792 183.575077 
L 375.478437 183.575077 
L 379.027083 183.575077 
L 382.575729 183.575077 
L 386.124375 183.575077 
L 389.673021 183.575077 
L 393.221667 183.575077 
L 396.770312 183.575077 
L 400.318958 183.575077 
L 403.867604 183.575077 
L 407.41625 183.575077 
L 410.964896 183.575077 
L 414.513542 183.575077 
" clip-path="url(#p66c52325ce)" style="fill: none; stroke: #1f77b4; stroke-width: 1.5; stroke-linecap: square"/>
   </g>
   <g id="patch_15">
    <path d="M 24.1625 187.253904 
L 24.1625 143.107971 
" style="fill: none; stroke: #000000; stroke-width: 0.8; stroke-linejoin: miter; stroke-linecap: square"/>
   </g>
   <g id="patch_16">
    <path d="M 450 187.253904 
L 450 143.107971 
" style="fill: none; stroke: #000000; stroke-width: 0.8; stroke-linejoin: miter; stroke-linecap: square"/>
   </g>
   <g id="patch_17">
    <path d="M 24.1625 187.253904 
L 450 187.253904 
" style="fill: none; stroke: #000000; stroke-width: 0.8; stroke-linejoin: miter; stroke-linecap: square"/>
   </g>
   <g id="patch_18">
    <path d="M 24.1625 143.107971 
L 450 143.107971 
" style="fill: none; stroke: #000000; stroke-width: 0.8; stroke-linejoin: miter; stroke-linecap: square"/>
   </g>
   <g id="legend_3">
    <g id="patch_19">
     <path d="M 376.434375 165.786096 
L 443 165.786096 
Q 445 165.786096 445 163.786096 
L 445 150.107971 
Q 445 148.107971 443 148.107971 
L 376.434375 148.107971 
Q 374.434375 148.107971 374.434375 150.107971 
L 374.434375 163.786096 
Q 374.434375 165.786096 376.434375 165.786096 
z
" style="fill: #ffffff; opacity: 0.8; stroke: #cccccc; stroke-linejoin: miter"/>
    </g>
    <g id="line2d_30">
     <path d="M 378.434375 156.206408 
L 388.434375 156.206408 
L 398.434375 156.206408 
" style="fill: none; stroke: #1f77b4; stroke-width: 1.5; stroke-linecap: square"/>
    </g>
    <g id="text_10">
     <!-- t=0.50 -->
     <g transform="translate(406.434375 159.706408) scale(0.1 -0.1)">
      <use xlink:href="#DejaVuSans-74"/>
      <use xlink:href="#DejaVuSans-3d" x="39.208984"/>
      <use xlink:href="#DejaVuSans-30" x="122.998047"/>
      <use xlink:href="#DejaVuSans-2e" x="186.621094"/>
      <use xlink:href="#DejaVuSans-35" x="218.408203"/>
      <use xlink:href="#DejaVuSans-30" x="282.03125"/>
     </g>
    </g>
   </g>
  </g>
  <g id="axes_4">
   <g id="patch_20">
    <path d="M 24.1625 245.848827 
L 450 245.848827 
L 450 201.702893 
L 24.1625 201.702893 
z
" style="fill: #ffffff"/>
   </g>
   <g id="matplotlib.axis_7">
    <g id="xtick_19">
     <g id="line2d_31">
      <g>
       <use xlink:href="#m3152e6abac" x="59.648958" y="245.848827" style="stroke: #000000; stroke-width: 0.8"/>
      </g>
     </g>
    </g>
    <g id="xtick_20">
     <g id="line2d_32">
      <g>
       <use xlink:href="#m3152e6abac" x="130.621875" y="245.848827" style="stroke: #000000; stroke-width: 0.8"/>
      </g>
     </g>
    </g>
    <g id="xtick_21">
     <g id="line2d_33">
      <g>
       <use xlink:href="#m3152e6abac" x="201.594792" y="245.848827" style="stroke: #000000; stroke-width: 0.8"/>
      </g>
     </g>
    </g>
    <g id="xtick_22">
     <g id="line2d_34">
      <g>
       <use xlink:href="#m3152e6abac" x="272.567708" y="245.848827" style="stroke: #000000; stroke-width: 0.8"/>
      </g>
     </g>
    </g>
    <g id="xtick_23">
     <g id="line2d_35">
      <g>
       <use xlink:href="#m3152e6abac" x="343.540625" y="245.848827" style="stroke: #000000; stroke-width: 0.8"/>
      </g>
     </g>
    </g>
    <g id="xtick_24">
     <g id="line2d_36">
      <g>
       <use xlink:href="#m3152e6abac" x="414.513542" y="245.848827" style="stroke: #000000; stroke-width: 0.8"/>
      </g>
     </g>
    </g>
   </g>
   <g id="matplotlib.axis_8">
    <g id="ytick_7">
     <g id="line2d_37">
      <g>
       <use xlink:href="#m5612f3dd63" x="24.1625" y="242.169999" style="stroke: #000000; stroke-width: 0.8"/>
      </g>
     </g>
     <g id="text_11">
      <!-- 0 -->
      <g transform="translate(10.8 245.969218) scale(0.1 -0.1)">
       <use xlink:href="#DejaVuSans-30"/>
      </g>
     </g>
    </g>
    <g id="ytick_8">
     <g id="line2d_38">
      <g>
       <use xlink:href="#m5612f3dd63" x="24.1625" y="205.381721" style="stroke: #000000; stroke-width: 0.8"/>
      </g>
     </g>
     <g id="text_12">
      <!-- 1 -->
      <g transform="translate(10.8 209.18094) scale(0.1 -0.1)">
       <use xlink:href="#DejaVuSans-31"/>
      </g>
     </g>
    </g>
   </g>
   <g id="line2d_39">
    <path d="M 59.648958 205.381721 
L 63.197604 205.381721 
L 66.74625 205.381721 
L 70.294896 205.381721 
L 73.843542 205.381721 
L 77.392187 205.381721 
L 80.940833 205.381721 
L 84.489479 205.381721 
L 88.038125 205.381721 
L 91.586771 205.381721 
L 95.135417 205.381721 
L 98.684062 205.381721 
L 102.232708 205.381721 
L 105.781354 205.381721 
L 109.33 205.381721 
L 112.878646 205.381721 
L 116.427292 205.381721 
L 119.975937 205.381721 
L 123.524583 205.381721 
L 127.073229 205.381721 
L 130.621875 205.381721 
L 134.170521 205.381721 
L 137.719167 205.381721 
L 141.267812 205.381721 
L 144.816458 205.381721 
L 148.365104 205.381721 
L 151.91375 205.381721 
L 155.462396 205.381721 
L 159.011042 205.381721 
L 162.559687 205.381721 
L 166.108333 205.381721 
L 169.656979 205.381721 
L 173.205625 205.381721 
L 176.754271 205.381721 
L 180.302917 205.381721 
L 183.851562 205.381721 
L 187.400208 205.381721 
L 190.948854 205.381721 
L 194.4975 205.381721 
L 198.046146 205.381721 
L 201.594792 205.381721 
L 205.143437 205.381721 
L 208.692083 205.381721 
L 212.240729 205.381721 
L 215.789375 205.381721 
L 219.338021 205.381721 
L 222.886667 205.381721 
L 226.435312 205.381721 
L 229.983958 205.381721 
L 233.532604 205.381721 
L 237.08125 205.381721 
L 240.629896 205.381721 
L 244.178542 205.381721 
L 247.727187 205.381721 
L 251.275833 205.381721 
L 254.824479 205.381721 
L 258.373125 205.381721 
L 261.921771 205.381721 
L 265.470417 205.381721 
L 269.019062 205.381721 
L 272.567708 205.381721 
L 276.116354 205.381721 
L 279.665 205.381721 
L 283.213646 205.381721 
L 286.762292 205.381721 
L 290.310937 205.381721 
L 293.859583 205.381721 
L 297.408229 205.381721 
L 300.956875 205.381721 
L 304.505521 205.381721 
L 308.054167 205.381721 
L 311.602812 205.381721 
L 315.151458 205.381721 
L 318.700104 205.381721 
L 322.24875 205.381721 
L 325.797396 205.381721 
L 329.346042 205.434042 
L 332.894687 205.591006 
L 336.443333 205.852611 
L 339.991979 206.218859 
L 343.540625 206.689749 
L 347.089271 207.265281 
L 350.637917 207.945455 
L 354.186562 208.730272 
L 357.735208 209.619731 
L 361.283854 210.613832 
L 364.8325 211.712575 
L 368.381146 212.915961 
L 371.929792 214.223988 
L 375.478437 215.636658 
L 379.027083 217.15397 
L 382.575729 218.775924 
L 386.124375 220.502521 
L 389.673021 222.33376 
L 393.221667 224.263101 
L 396.770312 226.14666 
L 400.318958 227.925578 
L 403.867604 229.599853 
L 407.41625 231.169487 
L 410.964896 232.634478 
L 414.513542 233.994826 
" clip-path="url(#p1415ea8ac5)" style="fill: none; stroke: #1f77b4; stroke-width: 1.5; stroke-linecap: square"/>
   </g>
   <g id="patch_21">
    <path d="M 24.1625 245.848827 
L 24.1625 201.702893 
" style="fill: none; stroke: #000000; stroke-width: 0.8; stroke-linejoin: miter; stroke-linecap: square"/>
   </g>
   <g id="patch_22">
    <path d="M 450 245.848827 
L 450 201.702893 
" style="fill: none; stroke: #000000; stroke-width: 0.8; stroke-linejoin: miter; stroke-linecap: square"/>
   </g>
   <g id="patch_23">
    <path d="M 24.1625 245.848827 
L 450 245.848827 
" style="fill: none; stroke: #000000; stroke-width: 0.8; stroke-linejoin: miter; stroke-linecap: square"/>
   </g>
   <g id="patch_24">
    <path d="M 24.1625 201.702893 
L 450 201.702893 
" style="fill: none; stroke: #000000; stroke-width: 0.8; stroke-linejoin: miter; stroke-linecap: square"/>
   </g>
   <g id="legend_4">
    <g id="patch_25">
     <path d="M 376.434375 224.381018 
L 443 224.381018 
Q 445 224.381018 445 222.381018 
L 445 208.702893 
Q 445 206.702893 443 206.702893 
L 376.434375 206.702893 
Q 374.434375 206.702893 374.434375 208.702893 
L 374.434375 222.381018 
Q 374.434375 224.381018 376.434375 224.381018 
z
" style="fill: #ffffff; opacity: 0.8; stroke: #cccccc; stroke-linejoin: miter"/>
    </g>
    <g id="line2d_40">
     <path d="M 378.434375 214.801331 
L 388.434375 214.801331 
L 398.434375 214.801331 
" style="fill: none; stroke: #1f77b4; stroke-width: 1.5; stroke-linecap: square"/>
    </g>
    <g id="text_13">
     <!-- t=0.75 -->
     <g transform="translate(406.434375 218.301331) scale(0.1 -0.1)">
      <defs>
       <path id="DejaVuSans-37" d="M 525 4666 
L 3525 4666 
L 3525 4397 
L 1831 0 
L 1172 0 
L 2766 4134 
L 525 4134 
L 525 4666 
z
" transform="scale(0.015625)"/>
      </defs>
      <use xlink:href="#DejaVuSans-74"/>
      <use xlink:href="#DejaVuSans-3d" x="39.208984"/>
      <use xlink:href="#DejaVuSans-30" x="122.998047"/>
      <use xlink:href="#DejaVuSans-2e" x="186.621094"/>
      <use xlink:href="#DejaVuSans-37" x="218.408203"/>
      <use xlink:href="#DejaVuSans-35" x="282.03125"/>
     </g>
    </g>
   </g>
  </g>
  <g id="axes_5">
   <g id="patch_26">
    <path d="M 24.1625 304.44375 
L 450 304.44375 
L 450 260.297816 
L 24.1625 260.297816 
z
" style="fill: #ffffff"/>
   </g>
   <g id="matplotlib.axis_9">
    <g id="xtick_25">
     <g id="line2d_41">
      <g>
       <use xlink:href="#m3152e6abac" x="59.648958" y="304.44375" style="stroke: #000000; stroke-width: 0.8"/>
      </g>
     </g>
     <g id="text_14">
      <!-- 0.0 -->
      <g transform="translate(51.697396 319.042187) scale(0.1 -0.1)">
       <use xlink:href="#DejaVuSans-30"/>
       <use xlink:href="#DejaVuSans-2e" x="63.623047"/>
       <use xlink:href="#DejaVuSans-30" x="95.410156"/>
      </g>
     </g>
    </g>
    <g id="xtick_26">
     <g id="line2d_42">
      <g>
       <use xlink:href="#m3152e6abac" x="130.621875" y="304.44375" style="stroke: #000000; stroke-width: 0.8"/>
      </g>
     </g>
     <g id="text_15">
      <!-- 0.2 -->
      <g transform="translate(122.670312 319.042187) scale(0.1 -0.1)">
       <use xlink:href="#DejaVuSans-30"/>
       <use xlink:href="#DejaVuSans-2e" x="63.623047"/>
       <use xlink:href="#DejaVuSans-32" x="95.410156"/>
      </g>
     </g>
    </g>
    <g id="xtick_27">
     <g id="line2d_43">
      <g>
       <use xlink:href="#m3152e6abac" x="201.594792" y="304.44375" style="stroke: #000000; stroke-width: 0.8"/>
      </g>
     </g>
     <g id="text_16">
      <!-- 0.4 -->
      <g transform="translate(193.643229 319.042187) scale(0.1 -0.1)">
       <defs>
        <path id="DejaVuSans-34" d="M 2419 4116 
L 825 1625 
L 2419 1625 
L 2419 4116 
z
M 2253 4666 
L 3047 4666 
L 3047 1625 
L 3713 1625 
L 3713 1100 
L 3047 1100 
L 3047 0 
L 2419 0 
L 2419 1100 
L 313 1100 
L 313 1709 
L 2253 4666 
z
" transform="scale(0.015625)"/>
       </defs>
       <use xlink:href="#DejaVuSans-30"/>
       <use xlink:href="#DejaVuSans-2e" x="63.623047"/>
       <use xlink:href="#DejaVuSans-34" x="95.410156"/>
      </g>
     </g>
    </g>
    <g id="xtick_28">
     <g id="line2d_44">
      <g>
       <use xlink:href="#m3152e6abac" x="272.567708" y="304.44375" style="stroke: #000000; stroke-width: 0.8"/>
      </g>
     </g>
     <g id="text_17">
      <!-- 0.6 -->
      <g transform="translate(264.616146 319.042187) scale(0.1 -0.1)">
       <defs>
        <path id="DejaVuSans-36" d="M 2113 2584 
Q 1688 2584 1439 2293 
Q 1191 2003 1191 1497 
Q 1191 994 1439 701 
Q 1688 409 2113 409 
Q 2538 409 2786 701 
Q 3034 994 3034 1497 
Q 3034 2003 2786 2293 
Q 2538 2584 2113 2584 
z
M 3366 4563 
L 3366 3988 
Q 3128 4100 2886 4159 
Q 2644 4219 2406 4219 
Q 1781 4219 1451 3797 
Q 1122 3375 1075 2522 
Q 1259 2794 1537 2939 
Q 1816 3084 2150 3084 
Q 2853 3084 3261 2657 
Q 3669 2231 3669 1497 
Q 3669 778 3244 343 
Q 2819 -91 2113 -91 
Q 1303 -91 875 529 
Q 447 1150 447 2328 
Q 447 3434 972 4092 
Q 1497 4750 2381 4750 
Q 2619 4750 2861 4703 
Q 3103 4656 3366 4563 
z
" transform="scale(0.015625)"/>
       </defs>
       <use xlink:href="#DejaVuSans-30"/>
       <use xlink:href="#DejaVuSans-2e" x="63.623047"/>
       <use xlink:href="#DejaVuSans-36" x="95.410156"/>
      </g>
     </g>
    </g>
    <g id="xtick_29">
     <g id="line2d_45">
      <g>
       <use xlink:href="#m3152e6abac" x="343.540625" y="304.44375" style="stroke: #000000; stroke-width: 0.8"/>
      </g>
     </g>
     <g id="text_18">
      <!-- 0.8 -->
      <g transform="translate(335.589062 319.042187) scale(0.1 -0.1)">
       <defs>
        <path id="DejaVuSans-38" d="M 2034 2216 
Q 1584 2216 1326 1975 
Q 1069 1734 1069 1313 
Q 1069 891 1326 650 
Q 1584 409 2034 409 
Q 2484 409 2743 651 
Q 3003 894 3003 1313 
Q 3003 1734 2745 1975 
Q 2488 2216 2034 2216 
z
M 1403 2484 
Q 997 2584 770 2862 
Q 544 3141 544 3541 
Q 544 4100 942 4425 
Q 1341 4750 2034 4750 
Q 2731 4750 3128 4425 
Q 3525 4100 3525 3541 
Q 3525 3141 3298 2862 
Q 3072 2584 2669 2484 
Q 3125 2378 3379 2068 
Q 3634 1759 3634 1313 
Q 3634 634 3220 271 
Q 2806 -91 2034 -91 
Q 1263 -91 848 271 
Q 434 634 434 1313 
Q 434 1759 690 2068 
Q 947 2378 1403 2484 
z
M 1172 3481 
Q 1172 3119 1398 2916 
Q 1625 2713 2034 2713 
Q 2441 2713 2670 2916 
Q 2900 3119 2900 3481 
Q 2900 3844 2670 4047 
Q 2441 4250 2034 4250 
Q 1625 4250 1398 4047 
Q 1172 3844 1172 3481 
z
" transform="scale(0.015625)"/>
       </defs>
       <use xlink:href="#DejaVuSans-30"/>
       <use xlink:href="#DejaVuSans-2e" x="63.623047"/>
       <use xlink:href="#DejaVuSans-38" x="95.410156"/>
      </g>
     </g>
    </g>
    <g id="xtick_30">
     <g id="line2d_46">
      <g>
       <use xlink:href="#m3152e6abac" x="414.513542" y="304.44375" style="stroke: #000000; stroke-width: 0.8"/>
      </g>
     </g>
     <g id="text_19">
      <!-- 1.0 -->
      <g transform="translate(406.561979 319.042187) scale(0.1 -0.1)">
       <use xlink:href="#DejaVuSans-31"/>
       <use xlink:href="#DejaVuSans-2e" x="63.623047"/>
       <use xlink:href="#DejaVuSans-30" x="95.410156"/>
      </g>
     </g>
    </g>
    <g id="text_20">
     <!-- position -->
     <g transform="translate(217.276562 332.720312) scale(0.1 -0.1)">
      <defs>
       <path id="DejaVuSans-6f" d="M 1959 3097 
Q 1497 3097 1228 2736 
Q 959 2375 959 1747 
Q 959 1119 1226 758 
Q 1494 397 1959 397 
Q 2419 397 2687 759 
Q 2956 1122 2956 1747 
Q 2956 2369 2687 2733 
Q 2419 3097 1959 3097 
z
M 1959 3584 
Q 2709 3584 3137 3096 
Q 3566 2609 3566 1747 
Q 3566 888 3137 398 
Q 2709 -91 1959 -91 
Q 1206 -91 779 398 
Q 353 888 353 1747 
Q 353 2609 779 3096 
Q 1206 3584 1959 3584 
z
" transform="scale(0.015625)"/>
       <path id="DejaVuSans-73" d="M 2834 3397 
L 2834 2853 
Q 2591 2978 2328 3040 
Q 2066 3103 1784 3103 
Q 1356 3103 1142 2972 
Q 928 2841 928 2578 
Q 928 2378 1081 2264 
Q 1234 2150 1697 2047 
L 1894 2003 
Q 2506 1872 2764 1633 
Q 3022 1394 3022 966 
Q 3022 478 2636 193 
Q 2250 -91 1575 -91 
Q 1294 -91 989 -36 
Q 684 19 347 128 
L 347 722 
Q 666 556 975 473 
Q 1284 391 1588 391 
Q 1994 391 2212 530 
Q 2431 669 2431 922 
Q 2431 1156 2273 1281 
Q 2116 1406 1581 1522 
L 1381 1569 
Q 847 1681 609 1914 
Q 372 2147 372 2553 
Q 372 3047 722 3315 
Q 1072 3584 1716 3584 
Q 2034 3584 2315 3537 
Q 2597 3491 2834 3397 
z
" transform="scale(0.015625)"/>
       <path id="DejaVuSans-6e" d="M 3513 2113 
L 3513 0 
L 2938 0 
L 2938 2094 
Q 2938 2591 2744 2837 
Q 2550 3084 2163 3084 
Q 1697 3084 1428 2787 
Q 1159 2491 1159 1978 
L 1159 0 
L 581 0 
L 581 3500 
L 1159 3500 
L 1159 2956 
Q 1366 3272 1645 3428 
Q 1925 3584 2291 3584 
Q 2894 3584 3203 3211 
Q 3513 2838 3513 2113 
z
" transform="scale(0.015625)"/>
      </defs>
      <use xlink:href="#DejaVuSans-70"/>
      <use xlink:href="#DejaVuSans-6f" x="63.476562"/>
      <use xlink:href="#DejaVuSans-73" x="124.658203"/>
      <use xlink:href="#DejaVuSans-69" x="176.757812"/>
      <use xlink:href="#DejaVuSans-74" x="204.541016"/>
      <use xlink:href="#DejaVuSans-69" x="243.75"/>
      <use xlink:href="#DejaVuSans-6f" x="271.533203"/>
      <use xlink:href="#DejaVuSans-6e" x="332.714844"/>
     </g>
    </g>
   </g>
   <g id="matplotlib.axis_10">
    <g id="ytick_9">
     <g id="line2d_47">
      <g>
       <use xlink:href="#m5612f3dd63" x="24.1625" y="300.764922" style="stroke: #000000; stroke-width: 0.8"/>
      </g>
     </g>
     <g id="text_21">
      <!-- 0 -->
      <g transform="translate(10.8 304.564141) scale(0.1 -0.1)">
       <use xlink:href="#DejaVuSans-30"/>
      </g>
     </g>
    </g>
    <g id="ytick_10">
     <g id="line2d_48">
      <g>
       <use xlink:href="#m5612f3dd63" x="24.1625" y="263.976644" style="stroke: #000000; stroke-width: 0.8"/>
      </g>
     </g>
     <g id="text_22">
      <!-- 1 -->
      <g transform="translate(10.8 267.775863) scale(0.1 -0.1)">
       <use xlink:href="#DejaVuSans-31"/>
      </g>
     </g>
    </g>
   </g>
   <g id="line2d_49">
    <path d="M 59.648958 263.976644 
L 63.197604 263.976644 
L 66.74625 263.976644 
L 70.294896 263.976644 
L 73.843542 263.976644 
L 77.392187 263.976644 
L 80.940833 263.976644 
L 84.489479 263.976644 
L 88.038125 263.976644 
L 91.586771 263.976644 
L 95.135417 263.976644 
L 98.684062 263.976644 
L 102.232708 263.976644 
L 105.781354 263.976644 
L 109.33 263.976644 
L 112.878646 263.976644 
L 116.427292 263.976644 
L 119.975937 263.976644 
L 123.524583 263.976644 
L 127.073229 263.976644 
L 130.621875 263.976644 
L 134.170521 263.976644 
L 137.719167 263.976644 
L 141.267812 263.976644 
L 144.816458 263.976644 
L 148.365104 263.976644 
L 151.91375 263.976644 
L 155.462396 263.976644 
L 159.011042 263.976644 
L 162.559687 263.976644 
L 166.108333 263.976644 
L 169.656979 263.976644 
L 173.205625 263.976644 
L 176.754271 263.976644 
L 180.302917 263.976644 
L 183.851562 263.976644 
L 187.400208 263.976644 
L 190.948854 263.976644 
L 194.4975 263.976644 
L 198.046146 263.976644 
L 201.594792 263.976644 
L 205.143437 263.976644 
L 208.692083 263.976644 
L 212.240729 263.976644 
L 215.789375 263.976644 
L 219.338021 263.976644 
L 222.886667 263.976644 
L 226.435312 263.976644 
L 229.983958 263.976644 
L 233.532604 263.976644 
L 237.08125 263.976644 
L 240.629896 263.976644 
L 244.178542 263.976644 
L 247.727187 263.976644 
L 251.275833 263.976644 
L 254.824479 263.976644 
L 258.373125 263.976644 
L 261.921771 263.976644 
L 265.470417 263.976644 
L 269.019062 263.976644 
L 272.567708 263.976644 
L 276.116354 263.976644 
L 279.665 263.976644 
L 283.213646 263.976644 
L 286.762292 263.976644 
L 290.310937 263.976644 
L 293.859583 263.976644 
L 297.408229 263.976644 
L 300.956875 263.976644 
L 304.505521 263.976644 
L 308.054167 263.976644 
L 311.602812 263.976644 
L 315.151458 263.976644 
L 318.700104 263.976644 
L 322.24875 263.976644 
L 325.797396 263.976644 
L 329.346042 263.976644 
L 332.894687 263.976644 
L 336.443333 263.976644 
L 339.991979 263.976644 
L 343.540625 263.976644 
L 347.089271 263.976644 
L 350.637917 263.976644 
L 354.186562 263.976644 
L 357.735208 263.976644 
L 361.283854 263.976644 
L 364.8325 263.976644 
L 368.381146 263.976644 
L 371.929792 263.976644 
L 375.478437 263.976644 
L 379.027083 263.976644 
L 382.575729 263.976644 
L 386.124375 263.976644 
L 389.673021 263.976644 
L 393.221667 263.976644 
L 396.770312 263.976644 
L 400.318958 263.976644 
L 403.867604 263.976644 
L 407.41625 263.976644 
L 410.964896 263.976644 
L 414.513542 263.976644 
" clip-path="url(#pb83715a3ff)" style="fill: none; stroke: #1f77b4; stroke-width: 1.5; stroke-linecap: square"/>
   </g>
   <g id="patch_27">
    <path d="M 24.1625 304.44375 
L 24.1625 260.297816 
" style="fill: none; stroke: #000000; stroke-width: 0.8; stroke-linejoin: miter; stroke-linecap: square"/>
   </g>
   <g id="patch_28">
    <path d="M 450 304.44375 
L 450 260.297816 
" style="fill: none; stroke: #000000; stroke-width: 0.8; stroke-linejoin: miter; stroke-linecap: square"/>
   </g>
   <g id="patch_29">
    <path d="M 24.1625 304.44375 
L 450 304.44375 
" style="fill: none; stroke: #000000; stroke-width: 0.8; stroke-linejoin: miter; stroke-linecap: square"/>
   </g>
   <g id="patch_30">
    <path d="M 24.1625 260.297816 
L 450 260.297816 
" style="fill: none; stroke: #000000; stroke-width: 0.8; stroke-linejoin: miter; stroke-linecap: square"/>
   </g>
   <g id="legend_5">
    <g id="patch_31">
     <path d="M 376.434375 282.975941 
L 443 282.975941 
Q 445 282.975941 445 280.975941 
L 445 267.297816 
Q 445 265.297816 443 265.297816 
L 376.434375 265.297816 
Q 374.434375 265.297816 374.434375 267.297816 
L 374.434375 280.975941 
Q 374.434375 282.975941 376.434375 282.975941 
z
" style="fill: #ffffff; opacity: 0.8; stroke: #cccccc; stroke-linejoin: miter"/>
    </g>
    <g id="line2d_50">
     <path d="M 378.434375 273.396254 
L 388.434375 273.396254 
L 398.434375 273.396254 
" style="fill: none; stroke: #1f77b4; stroke-width: 1.5; stroke-linecap: square"/>
    </g>
    <g id="text_23">
     <!-- t=1.00 -->
     <g transform="translate(406.434375 276.896254) scale(0.1 -0.1)">
      <use xlink:href="#DejaVuSans-74"/>
      <use xlink:href="#DejaVuSans-3d" x="39.208984"/>
      <use xlink:href="#DejaVuSans-31" x="122.998047"/>
      <use xlink:href="#DejaVuSans-2e" x="186.621094"/>
      <use xlink:href="#DejaVuSans-30" x="218.408203"/>
      <use xlink:href="#DejaVuSans-30" x="282.03125"/>
     </g>
    </g>
   </g>
  </g>
 </g>
 <defs>
  <clipPath id="p9b68945423">
   <rect x="24.1625" y="25.918125" width="425.8375" height="44.145934"/>
  </clipPath>
  <clipPath id="p6cf55b2134">
   <rect x="24.1625" y="84.513048" width="425.8375" height="44.145934"/>
  </clipPath>
  <clipPath id="p66c52325ce">
   <rect x="24.1625" y="143.107971" width="425.8375" height="44.145934"/>
  </clipPath>
  <clipPath id="p1415ea8ac5">
   <rect x="24.1625" y="201.702893" width="425.8375" height="44.145934"/>
  </clipPath>
  <clipPath id="pb83715a3ff">
   <rect x="24.1625" y="260.297816" width="425.8375" height="44.145934"/>
  </clipPath>
 </defs>
</svg>
